/* XPM */
static char *_53aeb3397534446f87a297270bb5947r0z47OOSWXPE0mew[] = {
/* columns rows colors chars-per-pixel */
"50 50 187 2 ",
"   c #0B0801",
".  c #100903",
"X  c #150D0B",
"o  c #13110C",
"O  c #191611",
"+  c #221A17",
"@  c #241E1E",
"#  c #23221E",
"$  c #29231C",
"%  c #252320",
"&  c #2B2623",
"*  c #2D2925",
"=  c #27282A",
"-  c #2E2E2B",
";  c #322C26",
":  c #302728",
">  c #312D2A",
",  c #383127",
"<  c #34312D",
"1  c #3A342F",
"2  c #363024",
"3  c #333233",
"4  c #3A3532",
"5  c #3D3A35",
"6  c #393738",
"7  c #3D3B3A",
"8  c #463F35",
"9  c #423E3B",
"0  c #493F35",
"q  c #3F403B",
"w  c #44423E",
"e  c #4B453D",
"r  c #4B473B",
"t  c #413F40",
"y  c #444443",
"u  c #4A4542",
"i  c #464847",
"p  c #4D4A45",
"a  c #464648",
"s  c #4D4C4A",
"d  c #514B45",
"f  c #504748",
"g  c #524E4B",
"h  c #504644",
"j  c #585147",
"k  c #54514D",
"l  c #5A544E",
"z  c #4E4E52",
"x  c #514F50",
"c  c #4F5150",
"v  c #555453",
"b  c #5A5552",
"n  c #5C5A55",
"m  c #5D5C5C",
"M  c #605752",
"N  c #625D56",
"B  c #635E5B",
"V  c #5F6058",
"C  c #65625E",
"Z  c #6A645C",
"A  c #716B5F",
"S  c #5F5D60",
"D  c #646463",
"F  c #6A6562",
"G  c #666867",
"H  c #6B6965",
"J  c #696768",
"K  c #6C6C6C",
"L  c #656668",
"P  c #716C64",
"I  c #726D69",
"U  c #786F6A",
"Y  c #6E706F",
"T  c #787167",
"R  c #74726D",
"E  c #7B746E",
"W  c #7C796E",
"Q  c #767062",
"!  c #6D6E72",
"~  c #6D7075",
"^  c #757473",
"/  c #7A7673",
"(  c #7C7A75",
")  c #75747A",
"_  c #79777A",
"`  c #7C7B7C",
"'  c #81796C",
"]  c #827C75",
"[  c #827E7B",
"{  c #887E7C",
"}  c #878076",
"|  c #84827C",
" . c #8B847C",
".. c #8E887C",
"X. c #90877E",
"o. c #91887F",
"O. c #777B83",
"+. c #7D7D83",
"@. c #7D7F8A",
"#. c #817F82",
"$. c #7D8181",
"%. c #7E828B",
"&. c #7D8391",
"*. c #848384",
"=. c #8B8682",
"-. c #8D8A85",
";. c #83858B",
":. c #898788",
">. c #86898D",
",. c #8C8B8B",
"<. c #908783",
"1. c #938C84",
"2. c #928E8B",
"3. c #9A8F89",
"4. c #8E908D",
"5. c #949086",
"6. c #999185",
"7. c #95928D",
"8. c #9B948C",
"9. c #9B998F",
"0. c #848A92",
"q. c #8B8D92",
"w. c #868C9A",
"e. c #818795",
"r. c #908F93",
"t. c #8E9095",
"y. c #8D929B",
"u. c #949393",
"i. c #9A9692",
"p. c #979894",
"a. c #9C9A95",
"s. c #94959A",
"d. c #99979A",
"f. c #96999E",
"g. c #9E9D99",
"h. c #9F9E9C",
"j. c #9C9B9B",
"k. c #A19A8F",
"l. c #A29791",
"z. c #A09B97",
"x. c #A29C95",
"c. c #A19E9A",
"v. c #A29E9B",
"b. c #9FA19F",
"n. c #A4A096",
"m. c #A5A19E",
"M. c #A4A19D",
"N. c #A9A49C",
"B. c #AAA297",
"V. c #8F95A1",
"C. c #9296A1",
"Z. c #969AA2",
"A. c #9B9DA3",
"S. c #999DA9",
"D. c #A19FA3",
"F. c #9EA1A4",
"G. c #9DA2AA",
"H. c #A4A3A3",
"J. c #ACA7A3",
"K. c #A9A5A3",
"L. c #A6A8A7",
"P. c #ADAAA5",
"I. c #ACA9A5",
"U. c #A4A5AA",
"Y. c #A9A7AB",
"T. c #A5A9AE",
"R. c #ABABAB",
"E. c #B1ADAB",
"W. c #B4ADA5",
"Q. c #B4B1AD",
"!. c #B9B2AA",
"~. c #A4A6B0",
"^. c #A5AAB1",
"/. c #ACADB2",
"(. c #B1AFB3",
"). c #ADB1B5",
"_. c #ADB1B9",
"`. c #B4B2B4",
"'. c #B9B6B4",
"]. c #BCB8B4",
"[. c #B3B3BA",
"{. c #B8B6BB",
"}. c #B9B9BA",
"|. c #B4B8B9",
" X c #B9B9C1",
".X c #C0C0C8",
"XX c #C5C5C7",
/* pixels */
";.%.+.@.@.@.;.@.;.) ~ J _ q.-.*.%.>.-.F.d.,.g.7.i.c.b < a.a.v.i.4.7.b.p.p.g.1. .7.=.<.<.1.k.3.l.x.' ",
"%.%.;.0.;.@.@.O.) ! ) m ` j.,.,.:.p.:.-.Q.J.x.a.7.i.n H H.m.a.z.7.b...-.-.} g.4.8.6...1.} o.l.8.3.M ",
">.>.;.;.@.O.+.+._ ! ! D ` M.h.g.I.4.g.b.h.p.v.i.2.P.R Z K.a.c.P.b.9.b.b.g.9.5.5.8.5. . .5.o.] 1.X.8 ",
"` +.` ` ` _ +.) +.$.K m C 4.M.I.R.b.L.H.h.c.P.i.x.J.R F v.c.c.7.9.k.o.9.6.a.5.} ..1.6.1.5. .A  .N @ ",
"$.` ` ` +.` $.+.+._ _ v p ^ p.H.p.g.2.2.v.v.K.J.E.!./ n 2.a.K.c.M.p.4.9.4.a.g.l.5.7.8.a...|  .T Z E ",
"| / Y ^ ^ K ^ ) L S s B m w ( p.u.5.[ i.m.8.2.z.1.2.d o 4 u B I Y ( } ` | | | [ ` R I G C m u > F E ",
"v v v m v s i y y S ` ;.` - @ J ( | ( / =.I N B K n u v s p 4 & 7 s 3 3 7 b ^ S D K ^ ` *.,.` r.#.K ",
"u.F.F.d.s.s.s.q.#.` ! *.*.*.^ v w 4 k l v d I c.J.7.8.7.m.J.K.i.| 6 v F.d.K.R.Y.K./.U.D.d.f.s.f.Y.Z.",
"^.b.F.f.s.t.f.s.f.q.;.f.s.Y./.R.I l ] ( I 7.].J.i. .-.1.7.2.7.a.R.k g.`.H.H.H.D.U.A.^.f.s.A.U.q.q.S.",
"^.b.y.b.s.A.y.s.0.t.q.s.r.S.U.A.I.[ g B i.J.i.m.i.7.i.c.7.( ( 2.-.| R.M.Y.R.D.H.R.a.U.F.A.H.T.F.S.E.",
"G.F.F.b.s.Z.t.t.y.Z.f.s.Z.A.A.D.K.I.< w c.K.u.-.a.2.2.d.7.i.c.2.} R M.N.a.a.h.g.v.p.g.j.d.j.U.H.U.R.",
"T.G.f.Z.f.A.f.q.f.s.A.A.R.A.A.f.D.z.k d 2.K.K.a.i.a.a.v.| 1.v.i.W I a.a.M.m.g.M.a.d.a.g.p.g.p.a.a.v.",
"F.b.r.f.r.s.q.s.f.u.s.j.R.^.R.U.i.2.4 & ( h.4.7.d.u.[ =.-.{ | x.T l 5.8.N.a...i.z.a.p.M.M.c.a.a.j.v.",
",.u.u.p.r.H.p.b.d.j.H.H.H.Y.I.d.a.*.o o v ` M.R.R.H.i.c.i.| ] 8.l 4 ] ( ( ( I F F Z n G ^ :.-.*.*.*.",
"C H G G R K I D C H H m B J I K v - # 6 - 6 D ! R R ] [ ( I Z l 1 $ 4 1 e 1 4 f d v g k B ^ [ ) ` ` ",
"H.L.a.p.2.u ^ ( -.h.v.i.2./ b i - i D ` u.$.;.:.` ` *._ 2.i. .H / | F b / ( 2.K.a.v.m.J.v.j.J.H.f.d.",
").U.L.U.U.z |.XX|.Q.I.`.Q.'.| m y.G._.).).F.T./.f.>.#.s.D.K.R.E.J.R.J.M.k g I.a.9.p.p.5.b.H.H.j.d.d.",
"F.d.t.j.d.` E.|.L.R.R.K.K.R.| *.|.F.f.G./.A.f.t.u.s.f.u.D.a.J.D.j.I.K.H.c.G M.b.a.p.a.p.H.U.H.j.M.F.",
"M.H.7.p.b.V M.I.K.a.b.J.p.P.-.{ R.E.E.b.b.b.b.u.,.A.j.A.R.K.R.R.F.j.K.H.Q.` b.a.f.g.F.b.R.R.T.K.U.L.",
"K.K.p.4.p.^ I.K.N.4.| N.n.N.R ] Q.p.K.E.J.h.H.b.a.H.v.J.(.E.K.D.a.b.R.P.R.( ` H.L.K.H.H.L.F.H.b.H.H.",
"L.a.2.a.4.W K.K.m.a.i.R.h.'.R n P.B.b.8.n.N.N.b.9.b.I.M.E.L.R.g.J.W.N.J.J.{ / c.m.m.z.i.v.z.m.m.M.M.",
"M.h.i.H.R.G b.'.Q.].'.].K.p.5 k 5.o.6.9.6.9.M.a.9.b.I.I.P.I.E.M.W.!.N.x.v.B ] z.z.x.z.z.N.l.B.n.N.N.",
"5.4.-.R ( v n ^ ( ,.7.^ z y # q n A V Z H A W W ( | ( *.,.5.7.p.6.x.3.X.] 2 h <.{ { { 1.8.1.l.k.8.6.",
"*.Y ^ Y D V K Y ^ _ ! D V L Y Y C C w < 4 g ` -.R ( I s s w k k l e 8 , : e B F N g u u e ; 1 0 r r ",
"F.y.G.G.Z.F.G.F.Z.G.G.V.V.V.y.f.;.c 7 m *.R.L.m.M.I.'.P.d.H 9 I Z y n ^ ,.g.s.d.Y.j.r.:./ s * : k u ",
"G.Z.Z.V.V.V.V.y.V.y.&.V.V.&.&.0.q.G.D ! |.j.d.H.f.H.J.P.I.m.& f ) ,.Y.R.F.s.u.A.U.f.(.}.U.M.*.x ^ R ",
"_.^.G.G.^.G.Z.w.%.y.%.%.w.w.0.&.%.Z.0.! U.f.A.H.v.I.`.K.J.v.1 [ K.J.d.2.,.d.H.,.:.d.,.d.h.p.r._ Z Z ",
"G.y.^.G.G.G.G.y.O.t.0.;.%.%.%.t.q.0.q.z q.R.d.H.j.j.v.c.P.2.p a.d.i.2.z.,.| d.g.2.-.:.-.7.p.<.,.n G ",
"f.w.A.Z.G.b.G.s.;.q.q.0.q.q.;.f.F.s.s.u *.R.M.P.K.E.m.P.v.=.f [ 2.3.3.z.x.i.l.l.v.v.l.1.1.3.8.l.T M ",
"f.s.t.>.s.0.>.t.q.>.,.:.u.i.:.u.d.,.d.v / P.I.h.J.P.M.J.v.z.B B { 2.2.2.1.3.3.l.x.X.l.3.<.3.' l $ Z ",
">.2.t.u.p.-.-.4.8.a.7.-.-.=.( R P B b : p 1.x.N.i.v.J.c.a.[ B x 6 9 v F B N F P l P E U B 4 + X o : ",
"v v V C c w y p N C N n p 4 , > : : ; 1 * < l N I E I Z g 4 k J ^ :.#._ / I H n Z b u ; : 4 B ^ ^ [ ",
"` G G H b 9 * d b 4 4 b J Y $.$.>.*.;.;.,.$.^ F B b s w n :.s.}./.).|._.)././.[.`.Y.R._ > :.K.D.L.K.",
"U.).L.M.a.( F N b k [ d.U./.T.).T.T.^./. X[._.(.D.i./ s d.d.`.^._.^.^.T.^.|./.[./.[.(.D.S 2.u.c.j.A.",
"U.Y.H.i.c.c.i.w B r.v.d.U.F.Y.^.G.U.U.~. X/.R.R.H.j.p.D /.U./.[.^.^.).T.Y././.`.`.R.`.2.J 2.2.c.d.j.",
"u.-.2.2.i.7.,.b 2.a.d.D.H.U.R.Y.H./.^.T._./.D.U.M.M.2.^ J.U.Y.T.Q.R.R.I.).`.Q.L.P.Y.J.2.5 2.J.K.h.h.",
"6.3.6.7.1. .( r | b.p.H.d.h.H.m.K.L.I.K.J.H.a.c.a.p.-.c W F.L.F.b.b.I.K.b.b.M.K.M.N.m.2.g 8.7.a.c.g.",
"..6.o.} T T C   C I.9.a.m.b.M.7.4.7.p.a.v.m.v.c.c.n.C g K W p.L.b.H.M.K.N.N.N.N.N.c.J.P + =.a.7.p.p.",
"Z ' P A I N w # * c ^ ( R D C n Z F H R K I G Z n w < V R n s L 4.b.M.L.K.M.M.l.7.} R 5 O : K ] ^ ^ ",
"0 0 j d k y 4 w i c G K H p w < * < 4 w 7 p s f w q w y i i q = 3 t p v V V l w , 1 , 9 v B v B m C ",
"I h f 2.i.u.t.>.U.U.F.f.R./.H.r.#.L J v v ! :.Y.~.Y.^.U.Z.y.A.A.d.s.,.=._ 6 $ 9 K -.m.E.'.{.(.R.R.R.",
"3.g x (.U.F./.U.Z.T.G.A./.~./.{./.Y.D.[.O.J /.Y./.^./.S.~.^._.|.[.R./.R.(.F b i.R.!.}.`.R.K.R./.H.R.",
"#.x m H.f.u.F.U.T./._./.~.Y./.D.Y.D.Y.D.m S r.r.D./.U.O.;.s.T.T.(.U.R.I.R.b #.E.P.R.R.Y.P.R.H.H.A.R.",
"{ 9 J v.j.H.I.p.t.j.F.d.D.D.H.Y.D.v.K.J.v D E.Y.Y.(.`./.^.A.f.u.i.v.d.U.`.p D '.`.!.P.J.D.i.u.f.E.R.",
"F 9 n a.6.M.p.b.p.4.7.4.c.m.M.R.a.i.i.N.V ( K.J.H.H.K.).H.i.p.a.u.h.J.c.R.^ 0 v.v.v.c.N.I.i.6.m.!.R.",
"C k k } b.N.9.b.N.5.p.8.p.n.M.M.8.i.8.x.r W 9.1.7.i.a.M.2.z.x.x.m.p.-.| i.i.& I x.2.z.M.8.v.W.N.i.z.",
"n p w r p n | ..} | | [ -.7.i.M.<.<.....2 r 8.i.v.i.r.H.D.J.z.v.B.a.x.x.3.3.1 . M <.l.8.B.x.6.l.8.l.",
"q c v c q w w y g 5 < d C N n 5 : d H F Q 1 0 ^ I _ _ ^ ^ I U [ ] Z N k k k 6 & @ 9 Z ] W T A Z d e ",
"t.s.>.s.s.A.U.d.U.M.` n _ *.S K #.) ) ) #.#.#.O.#.#.) #.#.#.J 6 c m m S ) ;.q.y.q.) #.s.y.#.g & g I ",
"F.s.%.Z.Z.Z.^.^.`.R.H.K u S q.(._._.{. X X[. X.X X[.[.{.{./.D.) u.U.U.G.^.~.S.S.S.~.~./././.U.m _ i."
};
