/* XPM */
static char *c675c0b4962b4d05e3968f271beabdfdNJH236FGsA5Ur81F[] = {
/* columns rows colors chars-per-pixel */
"75 75 215 2 ",
"   c None",
".  c #553F37",
"X  c #5B4237",
"o  c #55413A",
"O  c #5C4338",
"+  c #7F4C2F",
"@  c #644536",
"#  c #6B4734",
"$  c #6E4834",
"%  c #694C3C",
"&  c #734933",
"*  c #7C4B31",
"=  c #7A4E38",
"-  c #76533E",
";  c #554B45",
":  c #56544E",
">  c #555A57",
",  c #784D41",
"<  c #755B47",
"1  c #6C5949",
"2  c #66675D",
"3  c #716B5C",
"4  c #556766",
"5  c #597575",
"6  c #4D6D6F",
"7  c #717366",
"8  c #647E79",
"9  c #6D776B",
"0  c #844D2F",
"q  c #884F2F",
"w  c #8C502D",
"e  c #91522C",
"r  c #824D30",
"t  c #8B4F36",
"y  c #985239",
"u  c #8C5031",
"i  c #A0543A",
"p  c #9C544B",
"a  c #974F57",
"s  c #8F4E4B",
"d  c #A85548",
"f  c #B95756",
"g  c #B65755",
"h  c #B1564E",
"j  c #995B62",
"k  c #B35B63",
"l  c #AC616B",
"z  c #876776",
"x  c #C3586A",
"c  c #CF587F",
"v  c #CE5A73",
"b  c #D55A7D",
"n  c #D1727A",
"m  c #69867F",
"M  c #FEB62B",
"N  c #89D93A",
"B  c #FFCA07",
"V  c #FCAE4A",
"C  c #FDA252",
"Z  c #FAA36B",
"A  c #FC9470",
"S  c #93D042",
"D  c #527C80",
"F  c #7A50FF",
"G  c #B16788",
"H  c #D55B83",
"J  c #DB5B84",
"K  c #DB5D88",
"L  c #CF5A81",
"P  c #E45C89",
"I  c #EB5E8E",
"U  c #E35D85",
"Y  c #ED5E90",
"T  c #F05F90",
"R  c #CE6D8D",
"E  c #C26286",
"W  c #D26B8D",
"Q  c #DC7287",
"!  c #D47292",
"~  c #DC7496",
"^  c #D57997",
"/  c #D57D9B",
"(  c #DC799A",
")  c #CF7897",
"_  c #E2678B",
"`  c #E77589",
"'  c #F1728D",
"]  c #EE6191",
"[  c #ED6994",
"{  c #F26394",
"}  c #FC6397",
"|  c #FF6599",
" . c #F46C9A",
".. c #FD6C9C",
"X. c #E17599",
"o. c #EA799F",
"O. c #E7789B",
"+. c #FC709F",
"@. c #F9769E",
"#. c #D761BA",
"$. c #EC7BA1",
"%. c #E87EA5",
"&. c #FD74A2",
"*. c #F47CA4",
"=. c #FB7BA6",
"-. c #FE7EA9",
";. c #F576A0",
":. c #EA6DB0",
">. c #BB62D7",
",. c #9A5BEF",
"<. c #A963E1",
"1. c #C15DCB",
"2. c #C968CB",
"3. c #D566C1",
"4. c #568386",
"5. c #488C95",
"6. c #47949D",
"7. c #48939C",
"8. c #5D9698",
"9. c #4C8990",
"0. c #63949A",
"q. c #638C92",
"w. c #4799A4",
"e. c #5B9CA7",
"r. c #57A6AD",
"t. c #58ACB4",
"y. c #48A6B3",
"u. c #61A4A6",
"i. c #79DDB4",
"p. c #5CEDB2",
"a. c #45B4C4",
"s. c #46BBCC",
"d. c #49BDCC",
"f. c #4BB6C5",
"g. c #53B9C5",
"h. c #47BFD1",
"j. c #4AC0CF",
"k. c #56C2CE",
"l. c #47C3D5",
"z. c #4AC2D3",
"x. c #47C6DA",
"c. c #4AC7D9",
"v. c #47C9DD",
"b. c #4ACADC",
"n. c #56C7D5",
"m. c #65C5DC",
"M. c #47CEE3",
"N. c #4ACEE1",
"B. c #46D0E6",
"V. c #4AD1E5",
"C. c #47D3E9",
"Z. c #49D6EA",
"A. c #4AD9EE",
"S. c #52D3E5",
"D. c #51D8EB",
"F. c #4BDDF3",
"G. c #50DEF3",
"H. c #4CE0F7",
"J. c #4DE4FB",
"K. c #4DE8FF",
"L. c #AE809A",
"P. c #BD86A4",
"I. c #BCBCB8",
"U. c #D4819D",
"Y. c #D9829F",
"T. c #F98F8E",
"R. c #DA84A1",
"E. c #D58AA4",
"W. c #D788A3",
"Q. c #DA99AF",
"!. c #DF90AB",
"~. c #DB9AB1",
"^. c #E987A8",
"/. c #F580A7",
"(. c #F685AB",
"). c #FB82AB",
"_. c #F789AE",
"`. c #F988AF",
"'. c #F889A2",
"]. c #F291AD",
"[. c #F78DB1",
"{. c #F98CB1",
"}. c #F787B0",
"|. c #E698B6",
" X c #F793B5",
".X c #F895B7",
"XX c #F892B5",
"oX c #F796B8",
"OX c #F69ABA",
"+X c #F89ABB",
"@X c #F89EBD",
"#X c #F89FBD",
"$X c #F99DBD",
"%X c #F89DBC",
"&X c #F996B8",
"*X c #E191AC",
"=X c #D0B7B2",
"-X c #E9A4BB",
";X c #F5A1BE",
":X c #FAA0BF",
">X c #F4ACBE",
",X c #E5A3A8",
"<X c #A6C7B7",
"1X c #A1DFA6",
"2X c #C0E29D",
"3X c #D8C3A9",
"4X c #E1C1B2",
"5X c #95B5D0",
"6X c #B6AAC7",
"7X c #F5A5C1",
"8X c #FBA4C2",
"9X c #FDA8C5",
"0X c #F5A8C2",
"qX c #EEC6D3",
"wX c #ECD0D9",
/* pixels */
"                                                                                                                                                      ",
"                                                                                                                                                      ",
"                                                                                                                                                      ",
"                                                                          U.                                                                          ",
"                                                                          / / U.                                                                      ",
"                                                                          ! / / ^ /                                                                   ",
"                                                                          ! / ^.U.^ ^                                                                 ",
"                                                                          ! / [.(.%.^ ~                                                               ",
"                                                                          ! ( _._._.%.^ !                                                             ",
"                                                                        ! W %.[._._.(.o.! !                                                           ",
"                                                                      ! ! X.(.[._.`.(.(.o.^ !                                                         ",
"                                                                  ! ! ! X.*._.[._.`.(.(./.o.! ^                                                       ",
"                                                              ! ! ! ~ o.*.(.[.[._.`.(.(./.*.X.W                                                       ",
"                                                          ! ! ! ~ o.*.=.=._.[.[._._.(.(.)./.o.! ^                                                     ",
"                                                      ! ! ! X.$.*.*.*.*._.[.[.[.(.T.'.(./.).@.~ ) E.                                                  ",
"                                                  ! ! ! ~ $.*.*.*.=.(.{. X[.XX[.Z B V '.).*./.o.~ R.E.E.                                              ",
"                                                ! ! ~ O.*.*.*.=.*._.[. X X X[.[.Z B V =.(.-.*.=.=. X|.W.E.E.                                          ",
"                                              ! ! X.*.*.*.=.*._.XXoXoX X[.[.[.[._.T.'.(.(.*.=.;.*.@X#XOX!.E.E.                                        ",
"                                            ! ! X.*.*.*.*._.|.oX&XoX X X X[.[.[.[._.(.(.=.*.*.=.[.@X#X#XOX!./                                         ",
"                                            ! X.*.=.*./.{.6Xm.6X&XoXoX XXX[.[.[._._.`.(.(.*.(.XX@X-X=X-X@X XW K                                       ",
"                                          ! ! *.*.=.(. XOX5XC.5XXX X X X X[.[.[.[._.(.(.`.[.+X@X@XI.p.<X-X*XK H                                       ",
"                                          ! X.*.*.(. XoXoX|.6X|.&XoXoX X X X X[.[. X&X&X@X@X@X@X$X=Xi.<XOX&.Y H !                                     ",
"                                        W.U.^. X X.X+X+X@X+X+X+X@X+X+X+X@X+X@X+X@X@X@X@X@X@X@X@X@X@X7XOX=.} } _ R                                     ",
"                                  E.E.W.U.R._.[.[._.[.[.{.XXXX.XOX+X@X@X@X@X@X@X@X@X@X@X@X@X@X@X@X@X X=.} } |  .! R                                   ",
"                                W.U.U.^.^._.`._.(.(.(.(.).=.(.(.(.(.`.{.{. XoXOX#X@X@X@X@X@X+X+X.X-.| | } } } @.! R                                   ",
"                              U.U.^._._._.[.`._._._.(.(.(.(./.-.=.=.=.=.=.=.=.=.-.).(.).).).=.&.| | | | } } @.$.~ R                                   ",
"                              U.R.[.[.[._._._._.`.`.`.(.).=.=.(.=.-.=.;.@.;.&.;.&.+.&.........| | | | | |  .*.*.X.R                                   ",
"                            U.U.^.[._._.].,X].'.(.(.(.(.(./.(.-./.=.=.T.M C &.&.&.&.+.&...........| | ..;.*.$.*.~ R                                   ",
"                            U.R.[..XXX.X=X2X3X X{.{._._.(.(.(.=.=.=.=.A B M '.@.&.&.+.......:.1.#.+.&.=.*.*.$.*.! R                                   ",
"                            E.~.8X9X9X9X3X2X4X:X:X@X@X+X+XXXXX{.[._._.'.Z T.).@.=.=.&.=.&.@.2.F ,.%.*.*.*.$.*.$.~ W J                                 ",
"                          Q.~.;X9X9X9X9X>X>X:X:X8X@X@X@X+X+XOXOXoXoXoXXXXXXX_.{._._._._._.(.%.<.>.(.(.*.*.*.*.*.o.P H H                               ",
"                        Q.~.;X9X9X9X9X9X9X8X9X:X@X8X@X@X:X:XOXoXoXoXoXXXXXXX{.XXXX_._._._.(.(.(.(.*.(.*.*.*.$.$...| I H H                             ",
"                        ~.~.7X9X9X9X9X9X8X8X8X:X:X:X:X:XqXqX7X&XoX X X X XXX[.[.[.[._._._.(.(.(././././.*.*.$.@.| | } J L                             ",
"                          ~.|.9X9X9X9X9X9X8X8X8X:X:X$X:XqXwX0X&XoXoXoXXX X[.XX[.{._._._._.(.(.(.(./././.*.*...} } | } P L                             ",
"                          ~.~.7X8X8X8X8X8X$X8X:X:X&X$X$X7X0X$X&XoXoX X.X XXX[.XX[.[.{._._.(.(.(././.$.*.+.| | | | | T P c L                           ",
"                          E.W._.{.`.`.`.`.-.`.-.`.`.`.-.`.`.).`.`.`._.{.[.{.[._._.{.`.).(.(.-.*.*.&...| | | | ' ' T I J c                             ",
"                          ( ( *.-.`.-.-.=. .;.-.-.-.-.-.-.=.=.=.=.=.=.&.&.&.=.&.=.=.&.+.&.........| | | | | ` N N Q I H c                             ",
"                      w.8.) $.*.-.-.`.-.=.Y Y -.-.-.-.-.-.=.=.=.&.=.&.&.&.&.&.&.&.#.2.:...........| | | | | ` N N Q P c G                             ",
"                    7.7.6.L.*.).}.-.-.-.-. .&.-.-.-.-.-.-.=.-.&.=.&.&.&.&.&.&.+.&.>.,.#.......| ..| | | } T Y n b T I E q.7.7.                        ",
"                    7.6.w.e.E.-.-.-.`.-.-.-.-.-.-.-.-.-.-.=.=.=.&.=.&.&.&.&.+.&.&.:.2.:.........| } { { I I I Y T T P z 7.w.7.7.                      ",
"                    7.w.w.5.> j %.-.).-.-.-.).-.-.-.-.-.-.=.=.=.-.&.=.&.&.&.+.+.+.+..... .} { { Y I I I I I I I I P a @ > 5.w.7.7.7.                  ",
"                  7.7.w.9.; O O , l X.-.).-.-.-.-.-.).-.=.=.=.&.+.+.+. .} { { { { ] ] ] I I I I I I I I I I I Y J a @ X o : 9.7.7.7.                  ",
"                  7.7.5.: . o O O @ , l ! (.).-.-.-.;.+. .{ ] Y Y I Y Y I I I I I I P I I I I I I I I I I I I x s @ @ X o o > 5.7.7.                  ",
"                  y.w.4 . . o O @ @ & & = p v X.[ { ] I I I I I I I I Y I I I I I I I I I I I I I I Y I I v a & @ @ X X o o o 6 w.                    ",
"                  c.z.9.; o o O O # # $ & * + t p g v J P ] { [ Y I I I I I I I I I I I I I ] ] I I J x p * $ $ @ @ O o o o . 4 y.c.                  ",
"                  c.b.G.5.; > ; O O @ # & & * + 0 0 w y d f x v b J U I I I I I I I I I P U b v k d t * * & $ # @ O O o o o > a.b.c.                  ",
"                    c.F.A.g.A.g.6 O O @ $ $ & * + 0 q w w e w e i i i h h g g f f f h h d y y q r r * * & $ # # @ O ; 4.r.D d.H.b.c.                  ",
"                    c.N.J.J.K.K.D.5 > m 2 # $ & & * + 0 0 0 w w q e e e e e e e w w w w w 0 0 0 * * & & # # % : ; > f.J.J.F.J.A.c.                    ",
"                    c.b.H.J.J.K.K.S.S.K.D.8.% - 1 - * * + 0 q q q q w w w w w w w w w w 0 + + + & & $ & # 5 g.S.t.g.J.J.K.K.J.S.c.                    ",
"                      c.Z.J.K.J.N.G.J.K.K.H.r.t.A.k.m & - 3 < + + 0 r 0 0 0 0 0 + + + + - < & & 2 u.g.8.4.G.J.K.J.Z.S.J.J.K.G.c.c.                    ",
"                      c.S.K.K.G.j.N.J.K.K.K.H.K.K.K.Z.8.k.G.S.0.- m t.u.3 + 7 u.u.9 - q.n.S.r.m S.K.J.G.D.K.J.K.J.V.z.H.J.J.Z.z.                      ",
"                      c.c.H.K.H.c.c.H.J.J.J.J.G.A.K.J.F.J.K.K.H.t.H.K.K.S.u.D.K.K.Z.t.J.J.K.J.D.J.J.N.C.K.J.J.J.H.c.c.H.J.J.b.c.                      ",
"                      c.z.D.J.J.N.j.F.J.J.J.H.b.c.H.J.J.J.F.V.H.K.J.J.J.K.J.J.J.J.J.H.F.c.Z.J.J.J.H.c.c.H.J.J.J.G.z.N.J.J.F.c.c.                      ",
"                        h.S.J.J.D.j.Z.J.H.J.J.b.z.F.J.J.J.V.z.A.K.J.J.J.H.V.A.J.J.J.J.Z.j.V.J.J.J.F.z.N.H.H.J.J.Z.d.Z.J.J.S.z.                        ",
"                        z.b.F.J.A.j.N.H.J.H.H.N.z.A.J.H.H.V.z.S.H.J.J.H.Z.j.V.J.J.H.J.V.j.Z.H.H.H.A.z.N.J.J.H.H.S.d.A.H.H.b.z.                        ",
"                        h.l.A.G.F.z.c.F.H.H.H.N.j.D.H.H.H.D.j.V.H.H.H.H.D.j.N.H.F.J.H.V.j.Z.H.H.H.Z.d.S.H.H.H.H.c.z.F.H.D.z.z.                        ",
"                          d.S.G.F.b.j.A.H.H.H.Z.j.V.H.H.H.A.j.N.H.H.H.H.Z.j.N.H.H.H.H.N.j.A.H.H.H.N.j.Z.H.H.H.A.z.c.G.H.V.j.                          ",
"                          z.b.F.H.N.j.Z.H.F.H.A.j.N.H.F.F.A.j.b.H.H.H.H.Z.j.b.H.H.H.H.x.j.A.H.H.H.b.z.A.H.H.H.Z.z.N.H.F.c.j.                          ",
"                          z.z.A.H.Z.j.b.F.F.F.A.j.b.F.F.F.A.j.b.F.F.F.F.Z.j.N.H.F.A.F.b.j.A.F.F.F.c.z.A.A.H.H.N.d.Z.F.A.z.z.                          ",
"                            d.N.F.A.j.x.F.F.F.A.z.z.F.F.F.A.l.l.F.F.F.F.Z.j.b.F.F.F.F.l.z.F.F.F.A.z.l.A.H.A.A.x.z.Z.F.V.d.                            ",
"                            d.c.A.A.x.j.Z.F.F.A.c.j.A.A.A.A.l.l.A.A.A.A.V.j.v.A.A.F.A.l.x.A.A.A.Z.j.c.A.A.H.Z.j.c.A.A.c.d.                            ",
"                            d.d.Z.A.v.j.B.A.A.A.c.j.C.A.A.A.x.j.A.A.A.A.V.j.v.A.A.A.C.j.x.A.A.A.V.j.b.A.A.A.B.j.b.A.Z.d.d.                            ",
"                              d.v.A.M.j.v.A.A.Z.x.j.M.A.A.A.l.j.C.A.A.A.M.j.v.A.A.A.B.j.x.A.A.A.b.j.b.A.A.A.v.d.v.A.N.d.d.                            ",
"                              d.j.Z.B.j.l.Z.Z.Z.v.j.b.A.Z.Z.x.j.B.A.A.A.M.j.l.Z.Z.Z.M.j.x.Z.Z.A.x.j.M.A.Z.Z.c.d.C.A.c.d.                              ",
"                              d.s.M.Z.d.d.C.Z.Z.M.d.x.Z.C.A.x.d.M.C.A.C.M.d.l.Z.C.A.M.d.x.C.A.Z.x.d.B.C.Z.C.j.j.Z.C.d.s.                              ",
"                                a.z.C.x.h.B.C.C.M.d.x.C.C.C.x.d.M.C.C.C.M.d.c.C.C.C.x.d.M.C.C.C.l.d.B.C.C.C.j.x.C.x.s.f.                              ",
"                                a.s.x.B.B.C.B.C.B.d.h.B.B.C.b.s.v.B.C.B.M.d.l.C.B.C.x.s.v.B.B.B.j.j.B.C.B.B.M.B.v.s.a.                                ",
"                                  a.a.d.v.M.C.C.B.h.d.B.B.C.x.s.l.B.B.B.M.s.h.B.B.B.x.f.M.B.B.B.l.l.B.B.B.B.B.l.s.a.                                  ",
"                                    a.a.a.d.x.M.M.M.M.B.B.B.x.d.h.B.B.B.M.s.l.M.B.B.x.d.M.B.B.B.B.M.M.M.v.l.a.a.a.                                    ",
"                                        a.a.a.a.s.l.v.B.B.B.M.x.M.M.M.B.M.h.l.M.B.B.M.B.M.B.M.M.M.x.l.s.a.a.a.a.                                      ",
"                                            a.a.a.a.a.a.a.l.l.l.l.x.x.v.b.v.b.v.x.x.x.x.l.h.s.a.a.a.a.a.s.                                            ",
"                                                    a.a.a.a.a.y.a.a.a.a.a.a.a.a.a.a.a.a.a.a.a.a.a.a.                                                  ",
"                                                                  a.a.a.a.a.a.a.a.a.a.                                                                ",
"                                                                                                                                                      ",
"                                                                                                                                                      "
};
