/* XPM */
static char *_9e141773f274197c75bf55df3b88e38x1ofSm9w4aAsdEoM[] = {
/* columns rows colors chars-per-pixel */
"50 50 158 2 ",
"   c None",
".  c #494F56",
"X  c #4A4F58",
"o  c #4A5157",
"O  c #4C5359",
"+  c #4F595B",
"@  c #52575D",
"#  c #525B5D",
"$  c #54625D",
"%  c #56695E",
"&  c #586D5F",
"*  c #555B61",
"=  c #5B5D62",
"-  c #645E64",
";  c #576260",
":  c #5A6465",
">  c #5B6B63",
",  c #5D6368",
"<  c #5C7461",
"1  c #5E7963",
"2  c #686166",
"3  c #61656B",
"4  c #646A6F",
"5  c #75666B",
"6  c #7A666C",
"7  c #607167",
"8  c #637569",
"9  c #66796B",
"0  c #697E6E",
"q  c #656B71",
"w  c #686F74",
"e  c #6B7176",
"r  c #6E7378",
"t  c #71767B",
"y  c #747A7E",
"u  c #816C70",
"i  c #8A7175",
"p  c #9A787C",
"a  c #A2777E",
"s  c #698E68",
"d  c #678669",
"f  c #6B9469",
"g  c #6E996B",
"h  c #709E6C",
"j  c #6F8771",
"k  c #738E75",
"l  c #7A9779",
"z  c #799779",
"x  c #73A46E",
"c  c #75A86F",
"v  c #77AD70",
"b  c #7DA679",
"n  c #7AB472",
"m  c #7DBA74",
"M  c #82A37F",
"N  c #83C576",
"B  c #84C877",
"V  c #88CD7A",
"C  c #8DDB7C",
"Z  c #89D27A",
"A  c #92E67F",
"S  c #93E87F",
"D  c #777C81",
"F  c #7A7F84",
"G  c #A57D80",
"H  c #7C8186",
"J  c #7F8488",
"K  c #81868A",
"L  c #868A8E",
"P  c #95898F",
"I  c #898E92",
"U  c #8E9296",
"Y  c #909497",
"T  c #919599",
"R  c #95999C",
"E  c #AE8284",
"W  c #B38486",
"Q  c #B68688",
"!  c #B98789",
"~  c #BD898B",
"^  c #BC969E",
"/  c #84A781",
"(  c #88AC83",
")  c #8CB387",
"_  c #93BD8C",
"`  c #9B9FA2",
"'  c #9DA1A4",
"]  c #A3A7AA",
"[  c #A7AAAD",
"{  c #A5A8AB",
"}  c #ABAEB1",
"|  c #ADB0B3",
" . c #B0B3B5",
".. c #B4B6B9",
"X. c #B5B8BB",
"o. c #B9BBBE",
"O. c #C58D8F",
"+. c #C88E8F",
"@. c #CA8F90",
"#. c #D59496",
"$. c #D99697",
"%. c #E98E9D",
"&. c #E79C9D",
"*. c #EB9E9F",
"=. c #FE93A4",
"-. c #F5A3A3",
";. c #FAA5A5",
":. c #FFA3B1",
">. c #90C087",
",. c #95C28C",
"<. c #90CE83",
"1. c #9AD98B",
"2. c #9FCE94",
"3. c #A6DA99",
"4. c #A6D999",
"5. c #95EA80",
"6. c #9AEC86",
"7. c #9FEE8B",
"8. c #A1F08C",
"9. c #ACE39D",
"0. c #ABEA9A",
"q. c #AEF59A",
"w. c #A8F294",
"e. c #B2F89E",
"r. c #B3ECA2",
"t. c #B5F1A4",
"y. c #B8F5A6",
"u. c #BAFDA6",
"i. c #BDFDA9",
"p. c #B7FCA3",
"a. c #C1FFAD",
"s. c #BCBEC1",
"d. c #BEC1C3",
"f. c #C4C6C8",
"g. c #C9CBCD",
"h. c #C4C6C8",
"j. c #CDCED0",
"k. c #CED0D1",
"l. c #D6D7D8",
"z. c #D7D8DA",
"x. c #D9DADC",
"c. c #D1D2D4",
"v. c #FED4DA",
"b. c #DEDFE0",
"n. c #FFDDE3",
"m. c #DFE0E1",
"M. c #E3E4E5",
"N. c #E7E8E8",
"B. c #ECECED",
"V. c #FEE0E5",
"C. c #EFEFF0",
"Z. c #EFF0F0",
"A. c #F4F5F5",
"S. c #F7F7F8",
"D. c white",
"F. c #FDFDFD",
"G. c #FFFFFF",
"H. c #FDF0F2",
/* pixels */
"                                                                                                    ",
"                                                                                                    ",
"      O O O O O                                                                     O O O O O       ",
"    O O O O O O O O                                                             O O O O O O O O     ",
"    O O O O O O O O O O                                                     O O O O O O O O O O     ",
"    O O O O O O O O O O O                                                 O O O O O O O O O O O     ",
"    O O O O O O O O O O O O O                                         O O O O O O O O O O O O O     ",
"    O O O O O O O O O O O O O O O                                 O O O O O O O O O O O O O O O     ",
"    O O O O O 2 2 O O O O O O O O O                             O O O O O O O O @ - - O O O O O     ",
"    O O O O = #.&.~ 6 # O O O O O O O                         O O O O O O O # 6 ! &.$.= O O O O     ",
"    O O O o 5 -.;.;.-.+.6 # O O O O O O O O O O O O O O O O O O O O O O O 6 @.-.;.;.-.5 O O O O     ",
"    O O o o i ;.;.;.;.;.-.W = O O O O O O O O O O O O O O O O O O O O - ~ -.;.;.-.;.-.i o O O O     ",
"    O O O O p ;.-.;.;.&.Q 6 @ O O O O O O O O O O O O O O O O O O O O # i +.-.;.;.-.;.p O O O O     ",
"    O O O O a ;.-.-.O.5 O O O O O O O O O O O O O O O O O O O O O O O O o @ i $.-.;.;.G o O O O     ",
"    O O O O E ;.*.p # O O O O O O O O O O O O O O O O O O O O O O O O O O O O - Q ;.;.W O O O O     ",
"    O O O O W &.u O O O O O O O O O O O O O O O @ O O O O O O O O O O O O O O o @ a -.W O O O O     ",
"    O O O O a u O O O O O O O O O O O O O O O O O O O O O O O O O O O O O O O O O O G W O O O O     ",
"    O O O O : O O O O O O O O O O O O O O O O O O O O O O O O O O O O O O O O O O O # 5 @ O O O     ",
"    O O O O O O O O O O O O O O O O O O O O O O O O O O O O @ O O O O O O O O O O O O O O O O O     ",
"    O O O O O O O O O O O O O O O O O O O O O O O O O O O O O O O O O O O O O O O O O O O O O O     ",
"    O O O O O O O O O O O O O O O @ O O O O O O O O O O O O O O O O O O O O O O O O O O O O O O     ",
"    O O O O O O O O O O O O O O O O O O O O O O O O O O O O O O O O O O O O O O O O O O O O O O     ",
"      O O O O O O O O O o O O O O O O O O O O O O O O O O O O O O O O O O O O O O O O O O O O O     ",
"      O O O O O O O O O + O O o O O O O O O O O O O O O O O O O O O O O O O O o O O O O O O O       ",
"      O O @ O O O $ d c n 1 $ $ O O O O O O O O O O O O O O O O O O > + f n x 1 O X O O O O O       ",
"      O O O O O 1 B S 5.C % < B s + O O O O O O O O O O O O O O % v n + s S 5.C v $ O O O O O       ",
"    O O O O o 9 1.5.S 5.m + $ Z A s O O O O O O o o O O O O O # m 5.x O < C S S 6.,.; O O O O       ",
"    O O O O o ) u.6.S 5.n + + B S C > O O O O , U K # O O O O g S 5.g X % C S S w.u.j O O O O       ",
"    O O O O O l i.t.5.5.n O # N S 6.b O O o y x.G.F.s., O O # <.5.S g X % C S 7.i.t.8 O O O O O     ",
"    O O O O O > r.a.q.6.m O # V 8.p.4.+ O e m.G.G.G.G.o.# O 8 t.q.6.x X & C 7.p.a.,.O O O O O O     ",
"    O O O O O O l i.a.p.1.+ > 0.i.i._ O = j.G.G.G.G.G.G.] O > 3.a.i._ O d 0.i.a.r.8 O O O O O O     ",
"    O O O O O O + / y.a.i.k / a.i.,.; O } G.G.G.G.G.G.G.C.F X 9 3.a.r.0 _ a.a.9.j O O O O O O O     ",
"    O O O O O O O @ 0 _ 9.9.3.2.k # o L A.G.G.G.G.G.G.G.G.x.3 . > / 4.3.9.3.( > O O O O O O O O     ",
"    O O O O O O O O O O $ > > # O o t N.G.G.G.S.A.S.G.G.G.G.d.* . O # > > # O O O O O O O O O O     ",
"    O O O O O O O O O O O O X o O K M.G.G.A.[ K y y I d.S.G.G.d.q O O O o O O O O O O O O O O O     ",
"    O O O O O O O O O O O O O w ..A.G.G.G...o o o o o = b.G.G.G.m.R = . O O O O O O O O O O O O     ",
"      O O O O O O O O o O r } B.G.G.G.G.G.g.# O O O O w B.G.G.G.G.G.z.R , o o O O O O O O O O       ",
"      O O O O O O o * J s.C.G.G.G.G.G.G.G.S.I o O O @ X.G.G.G.G.G.G.G.G.b.] e O . O O O O O         ",
"        O O O O w ' l.S.G.G.G.G.G.G.G.G.G.G.B.U + , } S.G.G.G.G.G.G.G.G.G.G.B.h.L , O O O O         ",
"          O t f.B.G.G.G.G.G.G.G.A.G.G.G.G.G.G.C.w Y G.G.G.G.G.G.S.S.G.G.G.G.G.G.F.M.] * O           ",
"            q X.G.G.G.G.G.G.G.G.N.l.G.G.G.G.G...@ 3 b.G.G.G.G.S.k.A.G.G.G.G.G.G.G.N.I @             ",
"              * R B.G.G.G.G.G.G.S. ...N.A.M.} 3 a 6 r h.B.A.x.[ c.G.G.G.G.G.G.G.f.r                 ",
"                . t f.F.G.G.G.G.G.A.} H y e y ^ =.%.P w r F R g.G.G.G.G.G.G.B.` =                   ",
"                    * Y b.G.G.G.G.G.G.B.x.b.A.n.=.:.H.B.x.M.S.G.G.G.G.G.S.s.r O                     ",
"                      . 3 ] M.G.G.G.G.G.G.G.G.F.v.n.G.G.G.G.G.G.G.G.S.g.J *                         ",
"                          O q ` x.S.G.G.G.G.G.G.G.G.G.G.G.G.G.G.C.d.K *                             ",
"                              . , K ..x.A.G.G.G.G.G.G.G.S.B.g.' r @                                 ",
"                                    O , y R [ X.s.s. .' L e *                                       ",
"                                                                                                    ",
"                                                                                                    "
};
