/* XPM */
static char *_63b695b9049448394a3c61d78ecb4f5eWhPrTyX1rmQ1mD9[] = {
/* columns rows colors chars-per-pixel */
"75 75 157 2 ",
"   c None",
".  c #8FB6D5",
"X  c #91B7D5",
"o  c #94B9D6",
"O  c #9BBCD6",
"+  c #90B7D8",
"@  c #94BBDB",
"#  c #9ABEDA",
"$  c #A1BFD6",
"%  c #94BEE1",
"&  c #9AC0DF",
"*  c #A5C1D6",
"=  c #ACC3D6",
"-  c #A4C2D9",
";  c #AAC5DA",
":  c #AEC9DE",
">  c #B3C7D7",
",  c #B6C8D7",
"<  c #BCCBD7",
"1  c #B0C6D8",
"2  c #B4CADB",
"3  c #BBCBD9",
"4  c #BED0DE",
"5  c #97C0E1",
"6  c #9BC3E4",
"7  c #9DC7E9",
"8  c #9ECAED",
"9  c #A3C7E3",
"0  c #A5C9E6",
"q  c #AAC9E2",
"w  c #A3CBEB",
"e  c #ACCFEA",
"r  c #B5D1E6",
"t  c #B9D0E3",
"y  c #B5D5EE",
"u  c #BAD5EB",
"i  c #B9D8EF",
"p  c #A2CFF3",
"a  c #A5D1F5",
"s  c #AAD4F5",
"d  c #A6D5FA",
"f  c #AAD6FA",
"g  c #AED8FA",
"h  c #B2D6F3",
"j  c #B3D8F6",
"k  c #B8DBF7",
"l  c #B4DBFB",
"z  c #BADEFB",
"x  c #BEE0FB",
"c  c #C3CFD7",
"v  c #C2CED8",
"b  c #C3D0D7",
"n  c #C5D1D9",
"m  c #C8D5DD",
"M  c #C4D5E2",
"N  c #CCD9E2",
"B  c #C4DBED",
"V  c #CADDEB",
"C  c #D2DFE9",
"Z  c #C2DEF3",
"A  c #C9DFF1",
"S  c #D3E1EC",
"D  c #CAE1F3",
"F  c #C7E4FC",
"G  c #C7E5FC",
"H  c #C7E5FD",
"J  c #C6E4FC",
"K  c #C5E4FC",
"L  c #C3E3FB",
"P  c #C9E4F9",
"I  c #CAE6FB",
"U  c #CDE7FA",
"Y  c #C8E5FC",
"T  c #C9E5FC",
"R  c #C9E6FC",
"E  c #C9E6FD",
"W  c #CAE6FC",
"Q  c #CBE6FC",
"!  c #CBE7FC",
"~  c #CAE6FD",
"^  c #CCE7FC",
"/  c #CDE7FC",
"(  c #CEE7FC",
")  c #CAE6FC",
"_  c #CDE8FC",
"`  c #CEE8FC",
"'  c #CFE8FC",
"]  c #CFE9FC",
"[  c #CEE8FD",
"{  c #CEE8FC",
"}  c #D0E3F2",
"|  c #D3E4F0",
" . c #D4E5F3",
".. c #D9E7F2",
"X. c #DAE8F2",
"o. c #DBE9F4",
"O. c #DBEAF4",
"+. c #DCEAF5",
"@. c #DCEBF5",
"#. c #DDEBF5",
"$. c #DDEBF6",
"%. c #DDECF7",
"&. c #DEEDF7",
"*. c #D5EAF9",
"=. c #D5EAFA",
"-. c #D0E9FC",
";. c #D1E9FC",
":. c #D1EAFC",
">. c #D2EAFC",
",. c #D3EAFC",
"<. c #D3EBFC",
"1. c #D2EAFD",
"2. c #D3EBFD",
"3. c #D4EBFC",
"4. c #D5EBFC",
"5. c #D5EBFD",
"6. c #D6EBFC",
"7. c #D6ECFC",
"8. c #D7ECFC",
"9. c #D6ECFD",
"0. c #D8ECFB",
"q. c #DCEDFA",
"w. c #D8ECFC",
"e. c #D8EDFC",
"r. c #D9EDFC",
"t. c #D8EDFD",
"y. c #D9EDFD",
"u. c #DAEDFD",
"i. c #DBEEFC",
"p. c #DAEEFD",
"a. c #DBEEFD",
"s. c #DBEEFE",
"d. c #DCEEFD",
"f. c #DCEFFD",
"g. c #DDEFFD",
"h. c #DEEFFD",
"j. c #DDEFFE",
"k. c #DEF0FD",
"l. c #DFF0FD",
"z. c #DEF0FE",
"x. c #DFF1FE",
"c. c #E0EFFA",
"v. c #E1F0FB",
"b. c #E0F0FC",
"n. c #E1F0FC",
"m. c #E0F0FD",
"M. c #E0F1FD",
"N. c #E1F1FD",
"B. c #E2F1FC",
"V. c #E3F1FC",
"C. c #E2F1FD",
"Z. c #E2F2FD",
"A. c #E3F2FD",
"S. c #E0F1FE",
"D. c #E3F2FE",
"F. c #E3F3FE",
"G. c #E4F3FE",
/* pixels */
"                                                  b b v c c c c c                                                                                     ",
"                                            b b v v n n n n n c c c c c                                                                               ",
"                                          v b b N C X.c.c.c.c.X.S N n c c n                                                                           ",
"                                      b c b C $.G.G.G.c.c.G.c.G.G.V.c.C n c c                                                                         ",
"                                    b c N #.A.A.G.G.c.G.G.G.c.G.S.V.G.V.c.N c c                                                                       ",
"                                  c b C V.Z.A.A.G.c.G.G.G.c.G.G.V.G.V.G.V.c.C n c                                                                     ",
"                                < b S V.V.S.A.A.G.G.G.G.G.G.G.G.G.V.G.V.G.V.G.S b c                 v < c                                             ",
"                              < c V V.A.A.V.A.A.G.c.G.c.G.c.G.c.V.G.V.G.V.G.G.V.S v b       b c c c c c < < < <                                       ",
"                              < M g.S.V.S.V.A.A.A.A.A.A.V.G.S.V.G.V.G.V.A.A.A.A.V.N b     b c m N S | } S V M < < 3                                   ",
"                            3 v  .k.S.S.V.S.V.G.A.A.A.A.G.V.G.G.V.S.V.G.A.A.A.A.S.@.b c c b C #.S.S.S.k.k.w.0.} M 3 ,                                 ",
"                            < M w.k.k.k.S.S.V.S.A.A.A.A.V.A.G.V.G.V.G.V.A.A.A.A.V.G.S m N X.V.S.c.k.k.f.w.f.w.w.>.B 3 ,                               ",
"                          3 3 } k.w.k.w.k.V.S.V.A.A.A.A.A.A.V.G.V.G.V.S.A.A.A.Z.G.S.G.V.V.V.S.S.k.f.k.k.w.w.9.9.>.*.V , 2                             ",
"                          , 4 *.w.k.k.k.f.k.k.S.V.V.Z.Z.G.V.G.V.G.V.A.A.A.A.Z.Z.V.G.V.S.V.S.S.k.f.f.f.w.w.w.9.9.*.>.1.B 1 >                           ",
"                          , M w.w.w.w.k.f.f.k.k.k.S.V.S.G.S.V.S.G.S.A.A.A.A.Z.V.S.V.S.V.V.k.f.f.f.f.f.w.9.9.9.*.1.1.` U t >                           ",
"                          , B 9.0.w.w.f.f.f.k.f.k.k.k.S.S.S.S.k.V.S.V.S.V.k.S.S.V.k.k.S.k.k.f.f.w.w.w.w.8.*.*.>.1.1.` ` Z = =                         ",
"                        > , D 9.9.9.w.w.w.w.k.0.k.k.k.k.k.k.S.k.V.k.S.V.S.V.k.V.k.k.f.f.w.f.w.f.w.w.w.9.5.5.1.>.] ] ` ( U 2 >                         ",
"                        , , A 1.5.5.8.8.0.w.w.k.k.k.k.k.k.k.k.k.k.k.k.k.k.k.k.k.k.k.k.w.w.k.w.0.k.9.9.9.>.>.>.1.( ( ( ! ! t =                         ",
"                        > 2 A 1.1.5.5.9.9.8.w.w.w.9.9.w.w.k.k.k.k.k.w.k.k.k.w.k.w.k.w.k.w.w.w.8.9.9.>.>.>.>.>.U ` ( ! ! F u =                         ",
"                    = 1 1 2 D 1.1.>.>.1.8.8.9.w.w.k.w.w.w.w.k.k.w.k.k.k.w.k.k.w.w.w.9.0.k.9.9.9.9.*.>.>.>.] ( ( ( ! ! ! ` u ;                         ",
"              = = = 1 2 t B ( ` ` 1.>.*.<.<.9.9.9.w.w.w.w.k.9.w.w.w.w.w.w.9.w.0.9.k.8.8.9.9.5.*.1.>.>.>.1.` ( ( ! ! ! K ! u *                         ",
"            = = : u Z P P ! ` ` 1.` >.1.>.>.>.<.5.5.8.9.9.9.8.9.w.w.k.9.8.8.8.8.9.9.8.<.*.5.1.>.1.>.1.( ` ` ( ! F ! F K K r *                         ",
"          * ; r Z K K F ! ! ! ! ( ` U ` ] >.>.>.1.*.>.*.5.*.8.9.9.9.9.9.8.8.8.>.2.9.8.<.1.1.1.>.] ] ` ( ( ! F ! F ! F K L q =                         ",
"        * ; i L K K K K H ! ! ! ! ( ` ` 1.` >.>.>.>.>.>.>.*.*.5.<.8.2.<.>.8.9.*.>.>.>.>.1.` 1.( ] ` ` ! ! ! ! ! ! K K K L 2 * * $ * $                 ",
"      $ ; y x L L L K K K H H P ! ! ! ! ( U ] ] ] >.>.1.1.1.>.>.>.>.>.<.>.1.1.>.>.] >.] 1.( ( ( U ( ! ! ! ! K K K K K L L i q = ; ; - $ $ $           ",
"    $ * h z x L L L L L L F F P H P ! ! ( ( ! ( ( ` ` 1.1.U 1.1.>.>.1.1.>.1.1.U ` 1.( ` ` ` ( ! ( ! ( F F F K K K K L L x L z z z k h e - O O         ",
"    $ q z x z L z L L L L L F F F F ! ! ( F ! ( ( ! ` ` ( ( ( ( U ] ` ` U ( 1.( ( ( ` ( ( ( ( ! F ( F F ! K K K K Z L L x z Z z z z z z j q O #       ",
"  & - h z x z x x x L x L L L L K K H H ! ! ! ! ! ! ! ( ( ! ( ( ` ` ` ` ( ( ( ( ( ( ! ( ! ! ! ! F ! K F K K K L L L L L x x z z z z z l l l 0 O O     ",
"  O ; l z z z x x x z L L L L L K K K K K F F ! ! ! ! ! ! ! ! ( ( ! ! ( ! ! ! ! F ! ! ( H ! K K F K K K K K L L L z x z x z x z z z l l l l l 9 o O   ",
"O O e l z z z z z x x L x L x L L L L L H K K H K K ! ! F ! ( ! ! ! ! ( ! P ! ! ! ! K F K ! K K K K K L L x L x x x L z z z z z l l z l l l l s O o   ",
"O O h l l l l z z z z x z x L L L L L L L K L K K F F F F F F F F F F F H F ! H K ! K F K K K L K K L Z L L z L x x z z z z z l l l l l g l g g w o o ",
"O # j l l l z z z z z z x x x x Z x L L L L L L K K K K K K F F F F F F F K K K K K K K K K L L L L L z L x L x z z z z z z z l l l l l l g g g a o o ",
"O O j l l z l z z z z z z x x x z L x L L L L L K L L K K K K K K K K K K K K K L L K L K Z L L x L x L x x z z x z z z l z l l l l l g g g g f s O o ",
"O O s l l l l l z l z z z z z z x x x x x L x L x L L K x K K K L L L K L L L L L L L L L L L x x x x x x z x z z z l z l l l l g l g g g g f f d @ + ",
"o # s l g l l l l z l z z z z z z z x x x x x x x L x x x K x x L L x L L L L x x L L z x x x x x x z z z z z z z l z z l l l l l l g g g g f f d @ o ",
"o O p g l g l l l l l l l z z z z x z x x x x x x x x x x K x x Z x L L x L x L L x x L x x x x z z x z z z z z z l l l l l l l g g g g f f f f a @ X ",
"  o 0 g g g g l l l l z l l l z z l z z z z z z x x x x x x x x z L z Z x z x x x z x x z z z x x z z z l z l l l l l l l l g g g g f f f f f d 8 X X ",
"  o O f g g g g l l l l l l l z l x l x z z z x x x x z x x l x x x x x x x z x z x z z z z z z z z z l z l l l l l l g g g l g f f f f d d d d & .   ",
"  o X w g g g g g g g l g l l l l l l l z z l x l z z z l x x x z z z x z z x z z z z z z z z z z l l z l l l l l g l l g g g f f f f f d d d 8 . .   ",
"    X # s f g g g g g l l l l l l l l z z l z l z z l z x x l x l x z z z z z l z z z z z l l l l l l l l l l l l g g g g g f f f f d d d d a @ .     ",
"    o X % s f f f g g g g g l g l l l l l l l z l l l z l l x l z l z l z l z z l z l l z l l l l l l l l l l g g g g g g f f f f d d d d p @ . .     ",
"      X X 5 s f g f g g g g g l l g l l l l l l x g l g x g l x l l z l l l z l l z l l l l l l l l l l l g l g g g f f f g f f d d d a 7 + . .       ",
"        o o % p f f f g f g g g g l g l g l l l g x g x l l l g l l l l l l l l l l l l l l g l l g g g g g g g f g f 0 @ 5 7 8 8 8 6 @ . . +         ",
"          o o # 7 a f f f g g g g g l g l g g l l g g l l l l x l l l l l l l l l l l l l l l g g g g g g f f f f f w o o X X X X . . X .             ",
"            @ X o @ 5 w w a s f f f f g g g g g g l g l g l g g g l l l g l g l g g l g g g g g g g g g g f f d f d 5 o       X . .                   ",
"                + @ o o o o @ w f f f f f g g g g g g g g g g g g g g g l g l s w s g g g g g g f g f f f f f f f 7 X X                               ",
"                      @ # @ @ # a f f f f f f g g f g g g g g g g g g g g g s & o O 0 s g g f f f f f f f d d d 8 o X                                 ",
"                              X 5 s f f d f f f f f g f g f f f g f g g g f 6 o O # o 7 a f f f f f f d d d d 7 X X                                   ",
"                              + X 6 d d d f d f f f f f f f f f f f f f f 7 o O     o o # 8 a f d d d d a 8 @ X X                                     ",
"                                + + 5 a d d d d d d d f d d f f f f g a 5 X @         @ X o @ 5 7 7 7 @ @ . . +                                       ",
"                                  @ X + 7 a d d d d d d d d d d d a 7 @ o O               @ o X . . . . X +                                           ",
"                                    @ + . + 6 8 p a d d d a a 8 6 @ + + #                                                                             ",
"                                        @ + . . + + % % 5 @ + + X + @                                                                                 ",
"                                            % @ + + @ + + + @ @ 5                                                                                     ",
"                                                                                                                                                      ",
"                                                                                                                                                      ",
"                                                                                                                                                      ",
"                                                                                                                                                      ",
"                                                                                                                                                      ",
"                                                                                                                                                      ",
"                                                                                                                                                      ",
"                                                                                                                                                      ",
"                                                                                                                                                      ",
"                                                                                                                                                      ",
"                                                                                                                                                      ",
"                                                                                                                                                      ",
"                                                                                                                                                      ",
"                                                                                                                                                      ",
"                                                                                                                                                      ",
"                                                                                                                                                      ",
"                                                                                                                                                      ",
"                                                                                                                                                      ",
"                                                                                                                                                      ",
"                                                                                                                                                      ",
"                                                                                                                                                      ",
"                                                                                                                                                      "
};
