/* XPM */
static char *_56d92fd16c04e3287579e14a4c55a77JU6HBxtPT3Vli0dB[] = {
/* columns rows colors chars-per-pixel */
"75 75 171 2 ",
"   c None",
".  c #5D9ED2",
"X  c #5EA1D6",
"o  c #5FA4DB",
"O  c #60A7DF",
"+  c #7FAED4",
"@  c #60A7E0",
"#  c #61A9E4",
"$  c #61ADEA",
"%  c #62B0EE",
"&  c #64B5F6",
"*  c #80AFD4",
"=  c #81B0D6",
"-  c #8FB6D5",
";  c #83B4DB",
":  c #91B7D5",
">  c #94B9D6",
",  c #9BBCD6",
"<  c #90B7D8",
"1  c #94BBDA",
"2  c #9ABEDA",
"3  c #A2BFD6",
"4  c #86B9E2",
"5  c #88BCE6",
"6  c #89BFE9",
"7  c #94BFE1",
"8  c #9AC0DF",
"9  c #A6C1D6",
"0  c #ACC3D7",
"q  c #A4C2D9",
"w  c #AAC5DB",
"e  c #AEC9DE",
"r  c #B2C7D7",
"t  c #B6C8D7",
"y  c #BCCBD7",
"u  c #B0C7D9",
"i  c #B4CADB",
"p  c #BBCCD9",
"a  c #BED0DE",
"s  c #8BC2ED",
"d  c #97C0E1",
"f  c #9BC3E4",
"g  c #9DC7E9",
"h  c #9ECAED",
"j  c #8EC6F4",
"k  c #8FC8F6",
"l  c #8FC9F8",
"z  c #90CAF9",
"x  c #A3C7E3",
"c  c #A5C9E6",
"v  c #AAC9E2",
"b  c #A3CBEB",
"n  c #ACCFEA",
"m  c #B5D1E6",
"M  c #B9D0E3",
"N  c #B5D5EE",
"B  c #BAD5EB",
"V  c #B9D8EF",
"C  c #A2CFF3",
"Z  c #A5D1F5",
"A  c #AAD4F5",
"S  c #A6D5FA",
"D  c #AAD6FA",
"F  c #AED8FA",
"G  c #B2D6F3",
"H  c #B3D8F6",
"J  c #B8DBF7",
"K  c #B4DBFB",
"L  c #BADEFB",
"P  c #BEE0FB",
"I  c #C3CFD7",
"U  c #C2CFD8",
"Y  c #C5D1D9",
"T  c #C8D5DD",
"R  c #C4D5E2",
"E  c #CCD9E2",
"W  c #C4DBED",
"Q  c #CADDEB",
"!  c #D2DFE9",
"~  c #C2DEF3",
"^  c #C9DFF1",
"/  c #D3E1EC",
"(  c #CAE1F3",
")  c #C7E5FC",
"_  c #C7E5FD",
"`  c #C6E4FC",
"'  c #C5E4FC",
"]  c #C3E3FB",
"[  c #C9E4F9",
"{  c #CAE6FB",
"}  c #CDE7FA",
"|  c #C8E5FC",
" . c #C9E5FC",
".. c #C9E6FC",
"X. c #C9E6FD",
"o. c #CAE6FC",
"O. c #CBE6FC",
"+. c #CBE7FC",
"@. c #CAE6FD",
"#. c #CCE7FC",
"$. c #CDE7FC",
"%. c #CEE7FC",
"&. c #CAE6FC",
"*. c #CDE8FC",
"=. c #CEE8FC",
"-. c #CFE8FC",
";. c #CFE9FC",
":. c #CEE8FD",
">. c #D0E3F2",
",. c #D3E4F0",
"<. c #D4E5F3",
"1. c #D9E7F2",
"2. c #DAE8F2",
"3. c #DBE9F4",
"4. c #DBEAF4",
"5. c #DCEBF5",
"6. c #DDEBF6",
"7. c #DDECF7",
"8. c #DEEDF7",
"9. c #D5EAF9",
"0. c #D5EAFA",
"q. c #D0E9FC",
"w. c #D1E9FC",
"e. c #D1EAFC",
"r. c #D2EAFC",
"t. c #D3EAFC",
"y. c #D3EBFC",
"u. c #D3EBFD",
"i. c #D4EBFC",
"p. c #D5EBFC",
"a. c #D5EBFD",
"s. c #D6EBFC",
"d. c #D6ECFC",
"f. c #D7ECFC",
"g. c #D6ECFD",
"h. c #D8ECFB",
"j. c #DCEDFA",
"k. c #D8ECFC",
"l. c #D8EDFC",
"z. c #D9EDFC",
"x. c #D9EDFD",
"c. c #D8EDFD",
"v. c #DAEDFD",
"b. c #DAEEFD",
"n. c #DBEEFD",
"m. c #DBEEFC",
"M. c #DBEEFE",
"N. c #DCEEFD",
"B. c #DCEFFD",
"V. c #DDEFFD",
"C. c #DEEFFD",
"Z. c #DDEFFE",
"A. c #DEF0FD",
"S. c #DFF0FD",
"D. c #DEF0FE",
"F. c #DFF1FE",
"G. c #E0EFFA",
"H. c #E1F0FB",
"J. c #E0F0FD",
"K. c #E0F1FD",
"L. c #E1F1FD",
"P. c #E1F0FC",
"I. c #E2F1FC",
"U. c #E2F1FD",
"Y. c #E3F1FC",
"T. c #E2F2FD",
"R. c #E3F2FD",
"E. c #E0F1FE",
"W. c #E3F2FE",
"Q. c #E3F3FE",
"!. c #E4F3FE",
/* pixels */
"                                                  I I I I I I I I                                                                                     ",
"                                            I I I I I Y T T I I I I I I                                                                               ",
"                                          I I Y E / 2.5.5.8.5.2./ E Y I I I                                                                           ",
"                                      I I Y / 5.Y.!.!.!.R.Y.!.!.!.!.5./ T I I                                                                         ",
"                                    I I E 5.R.Y.E.!.Y.E.!.Y.R.R.Y.!.Y.!.5.E I I                                                                       ",
"                                  I Y ! Y.R.R.!.!.Y.!.Y.Y.!.R.R.R.Y.!.Y.!.Y./ I I                                                                     ",
"                                I I / Y.E.Y.!.Y.Y.E.Y.!.!.R.R.R.R.R.Y.E.Y.!.!./ I I                 I I y                                             ",
"                              y y Q Y.R.Y.!.Y.!.!.Y.!.Y.Y.R.R.R.R.R.!.Y.!.Y.!.Y./ I I       I I I I I y I y y y                                       ",
"                              y R j.E.E.!.!.E.Y.!.Y.Y.!.Y.!.Y.!.R.R.R.R.R.R.R.R.S.E I     I I Y E ! <.<./ Q R p y t                                   ",
"                            p U <.D.G.E.E.Y.Y.!.Y.!.E.Y.!.Y.E.Y.R.R.R.R.R.R.R.R.R.4.Y I I T / 5.E.G.B.G.B.l.h.>.R p t                                 ",
"                            y R B.B.B.D.Y.Y.E.Y.!.Y.Y.!.Y.!.Y.!.R.R.R.R.R.R.R.R.R.R./ T E 2.R.Y.E.G.B.B.B.l.l.l.r.Q i t                               ",
"                          y p >.B.l.B.D.B.E.Y.E.R.R.!.Y.E.Y.!.Y.R.R.R.R.R.R.R.R.R.R.E.Y.Y.R.D.S.D.B.B.B.B.l.f.f.9.w.( t r                             ",
"                          t a 9.l.D.l.D.A.A.S.S.Y.E.R.R.!.!.!.E.R.R.R.R.R.R.R.R.R.R.R.Y.D.Y.D.D.B.B.B.l.l.f.f.f.r.r.r.W t r                           ",
"                          t R f.f.f.D.l.h.A.S.S.D.Y.D.Y.E.!.!.Y.R.R.R.R.R.R.R.R.E.Y.S.S.S.D.h.D.B.B.B.l.f.f.a.w.r.r.-.%.M 0                           ",
"                          t W f.f.f.f.D.D.l.D.A.A.S.S.Y.E.E.E.E.E.Y.E.Y.E.Y.E.Y.Y.S.S.S.S.A.h.D.l.l.l.k.f.a.9.r.r.r.-.=.~ u r                         ",
"                        r t ( f.f.f.f.l.l.l.i.A.A.A.S.D.G.E.G.E.Y.E.Y.D.Y.D.S.S.D.S.S.A.A.A.D.f.l.l.k.a.a.9.r.r.r.%.-.%.{ i 0                         ",
"                        i i ( a.a.a.h.l.l.l.l.B.D.l.D.D.l.D.E.B.D.G.G.B.D.D.D.D.B.B.B.B.D.l.l.f.l.k.a.a.f.w.w.w.=.=.=.=.| M 0                         ",
"                        r r ^ w.a.w.i.i.f.f.l.l.f.D.l.D.l.D.B.B.B.B.B.B.B.B.B.D.B.B.l.l.l.l.l.f.l.a.a.a.w.w.w.=.=.=.=.| | B 0                         ",
"                    u 0 r i ( w.w.w.w.i.a.f.l.f.f.f.l.f.l.B.B.B.B.B.B.B.l.B.l.l.B.l.l.l.l.f.f.y.9.a.w.w.w.w.w.=.=.=.| +.| B 0                         ",
"              0 0 0 u i M W $.-.w.w.w.a.w.a.a.f.f.f.f.f.l.l.l.l.l.l.l.B.l.l.l.f.l.l.f.f.f.f.f.f.w.w.a.w.w.=.=.=.+.| | | | B w                         ",
"            0 0 e B ~ [ { =.$.=.w.=.w.w.w.w.f.y.f.f.f.f.f.f.f.f.l.l.l.l.f.f.f.f.k.a.f.a.f.f.w.y.w.w.w.=.=.=.=.| | | | ' ' m 0                         ",
"          9 w m ~ ' '  .| $.| $.=.=.=.=.w.w.y.w.y.y.w.f.f.w.f.f.k.a.l.a.f.f.f.f.a.a.a.a.w.w.w.w.w.w.=.=.=.+.=.| | | ' ] [ v 0                         ",
"        3 w V ] ] ' | ' | | | $.+.=.=.=.=.w.w.w.y.w.w.y.w.f.f.f.a.a.a.a.f.y.w.9.r.r.r.r.w.w.w.w.w.=.=.=.| $.| | | | [ ] ] e 9 9 9 3 3                 ",
"      3 0 V L ] ] ] ' | ' | | | | +.+.=.=.=.=.=.w.w.w.w.w.w.w.w.r.a.w.w.w.a.w.r.r.r.r.-.w.=.=.=.=.=.+.| | +.| | | ' ] ] ] V e w w q q 9 3 ,           ",
"    3 9 N L P P ] ] ] ] ' ' ' | | | =.+.=.$.=.=.=.=.=.w.w.w.w.w.r.r.w.w.w.w.w.w.w.w.=.=.=.=.$.$.$.$.|  .| | ' ' ' ' ] ] P ] L J J J H n q 2 ,         ",
"    3 v L P P ] P ] ] ] ] ] ' | | | | | | $.$.$.$.=.=.=.=.=.=.=.%.%.=.=.w.=.=.=.$.$.=.$.$.$.=.| | |  . .| ' ' ] [ ' ] ] P P ] L L L L J K v 2 ,       ",
"  3 2 G P L L P P P P ] ] ] ] ] | ' | | | | $.| =.=.+.=.$.$.$.$.-.=.=.w.=.=.$.$.$.$.$.$.| $.$.| | |  .' ' ' ] ] P ] P P P P L L L L L K K K v , ,     ",
"  , v J L L L P P P P P ] ] ] ] ' ' | ' | | | | | | | | $.| $.$.{ $.$.| =.| $.$.$.$.| | | | | |  . .' ' ' ' ] ] ] P P P P P P J L L K L K K K c > ,   ",
", , n K L L L L L P P P ] ] ] ] ] [ ' ' ' ' ' ' | | | | | =.| $.| $.| $.| | =.| | | | | | | ' ' ' ' ' [ ] ] ] ] P P P P L L L K L K K K K K K A 8 >   ",
", 2 G K L K K L L P L P P P P ] ] P ] ] ' ' ] [ ' | | ' | | | | | | | | | | | |  .' |  .' ' ' ] ' ] ' L P ] P P P P L L L L L L K K K K F K F F x > , ",
", 2 G K K K L L L L P L L P P P P ] ] ] ] ] ] ] ' ] ' ' ' ' | '  . . .' ' | | ' ' ' ' ' ' ' ] ] ] ] ] ~ ] P ] P L P P L L L K K K K K K F F F F Z > : ",
", 2 G K K K K L K L L L L P P P P P P P ] ] ] ] ' [ ] ] ' ' ' ' ' ' ' ' ' ' ' ' ' ] ' ] ] ] ] ] P ] P P P P L L L L L L K K L K K K F F K F F H Z 2 : ",
"> 2 F K K K K K K L L L L L L L P P P P P ] P P ] ] ] ] ] ] ] ] ] [ ' ] ] ] ] ] ] ] ] ] ] ] P P P P P P P L L L L L L K L K K K K F F K F F F D S 2 < ",
", , A K F K K K K K K L L L L L L L P P P P P P P P P ] P ] ] ] ] ~ ] ' ] ] ] P ] P P P P P P P P P L P P L L L L K L K K K K K K K F F F D D D S 1 < ",
"> > n D F K K K K K L K K L L L L P P L P P P P P P P P P ] P P P ] P L ] ] P ] P ] ] P P P P P P L P L L L K L K L K K K K K F F F F F D D S S Z > : ",
"  > g F K D F K K K K K K K L L K K P K P L P L P P P P P P P P L P P ] L L P L P L P P J P P P L L P K L K L K K K K K F K K F F F D D D D D S h < : ",
"  > 2 A F F F F K K K K K K K K P K P L P L L P P P L P P P L P P P P P P P L P L P L L L L L P L K L K L K K K K K K F F K F F F F D D D S S S 8 -   ",
"  > > b F F F F K F F K K K K K K K K K K P K P K P L K K P P K P L L L L L L L L L L L L L L J K L L K K K K K K F K K F F F F D D D S S S S h < -   ",
"    > 1 A F D F F F F K K F K K K K K K L K L K K L L L P P K P K L L L K L L L L L K L K L K K K L K K K K K K K F F F F F D D D S S S S S h 7 -     ",
"    > : 7 D D D F F D F K D K F K K K K K K K L K L K K K K P K L L K L L L L L L K L L K K K K K K K K K K K F F F F F F D D D D D S S S h 7 - -     ",
"      > > f Z D D F D F F F F K K K K F K K K K K P K K P K K P K K L K K K K J K K J P K K K K K K K K F K F F F F F D A D D S D S S Z h < - -       ",
"        > > 2 C D F D F F F F F F K K K K K K F K K F K K K K K K K K K K K K K K K F K K K F K F K F F F F F F F D D c 1 f g h h h d 1 - - <         ",
"          1 > 1 g C D D D F F F D F F F F K F K K F F K F K K K K K K K K K K K F K K F K K K F F F F F F F F D D D C > > > : : - - - - -             ",
"            1 : : 1 f b b C A D F D F F F F F F F K F K K F K F K F K K K F K K K K F K F F F F F F F D F D D D D S 7 >       : : :                   ",
"                1 < > > > > 1 b D D D D D F F F F F F F F F K F F F F F F K K A C Z F F F F F F F F D D D D D S D g : :                               ",
"                      1 2 1 > 2 Z D D D F D D D F D F F F F D F F F F F F F A 8 > , c F F F F D D D D D D D S S h > :                                 ",
"                            1 : f S S D D D D D D D D F F D F D F D F F D D f > , , > f Z D D D D D D S S S Z g < <                                   ",
"                      . .     : : f S S S S D D D D D D D D D D D D D D D g > ,     1 > 2 h Z S S S S S Z h 1 : <                       .             ",
"                    . X .       < < f Z S S S S S S S S S S S S D S D Z 8 > 1         2 < > 1 8 g g f d 1 < - <                       . . .           ",
"                  . O # .         < - < g Z S S S S S S S S S S S Z c 1 > 1               1 < : - - - - < <                       . X $ @ .           ",
"              . X # & & X           1 < - 1 d h Z Z S S S S Z h f < < > 1                                                       . o & & # .           ",
"            . X $ & & & X               1 - - - < 1 5 d 1 1 1 - < < 1                                                         X O & & & $ .           ",
"          . X % & & & & o                   7 1 < < < - < 1 1 1 d                                                           . @ & & & & $ .           ",
"          X & & & & & & o                                                                                                 . O & & & & & % .           ",
"        . # & & & & & & o                                                     .                                           X & & & & & & % .           ",
"        X % & & & & & & o                                                 . . .                                         . o & & & & & & $ X           ",
"        . % & & & & & & o                                               . X $ o                                         . o & & & & & & $ X           ",
"        . # & & & & & $ X                                             X o % & O .                                         X & & & & & & # .           ",
"          X $ & & & & o .                                           . O & & & @ .                                         . o % & & & $ X             ",
"          . . O # @ X .                                           X @ & & & & # .                                           . X @ # o .               ",
"              . . .                                             . # & & & & & $ .                                               . . .                 ",
"                                        * *                   . o & & & & & & $ .                                 +                                   ",
"                                      * = *                   . @ & & & & & & $ .                             + = *                                   ",
"                                    * 4 5 *                   . # & & & & & & # .                           + ; 6 =                                   ",
"                                * = 5 k s =                   . o & & & & & & o .                         * 4 j k ;                                   ",
"                              + ; s z l j =                     . @ & & & & $ .                         = 5 z z z ;                                   ",
"                            * ; j z z z j ;                       . O @ # O .                         = 6 z z z z ;                                   ",
"                          * ; j k z z z j ;                         . . . .                         = 6 z z z z z ; +                                 ",
"                          * s z l z z z k ;                                                       * 4 z z z z z z 4 +                                 ",
"                          ; j z z z z z k ;                                                       = s z z z z z z 4 +                                 ",
"                          ; k z z z z z j ;                                                       = s z z z z z z ; +                                 ",
"                          * s z z z z z s =                                                       + 5 z l z z z j ;                                   ",
"                          * ; j z z z j ; *                                                         ; s z z z l 4 *                                   ",
"                            = ; 5 s 6 ; =                                                           + = 4 s 6 ; =                                     ",
"                              * * * * *                                                                 + = + +                                       "
};
