/* XPM */
static char *b0ccf22a9185432fefbeef4777c66c0378CBTfADBRhkhm5P[] = {
/* columns rows colors chars-per-pixel */
"50 50 214 2 ",
"   c None",
".  c #020304",
"X  c #0C0C0A",
"o  c #14120D",
"O  c #19180F",
"+  c #121313",
"@  c #1A1B1C",
"#  c #191916",
"$  c #0E0F11",
"%  c #221E14",
"&  c #27241A",
"*  c #39311C",
"=  c #1E2022",
"-  c #222325",
";  c #2A2B2D",
":  c #252629",
">  c #3A3729",
",  c #2E2E31",
"<  c #2F3133",
"1  c #313234",
"2  c #3A3A33",
"3  c #3B3B3C",
"4  c #363738",
"5  c #42391E",
"6  c #433C24",
"7  c #473F2A",
"8  c #413F32",
"9  c #4C4326",
"0  c #4B452C",
"q  c #554C2C",
"w  c #594E2B",
"e  c #524727",
"r  c #5E512C",
"t  c #4A4638",
"y  c #534C37",
"u  c #5C5233",
"i  c #5F5939",
"p  c #61542D",
"a  c #68592F",
"s  c #6C5D32",
"d  c #635732",
"f  c #6A613B",
"g  c #736335",
"h  c #7C6B3A",
"j  c #776738",
"k  c #3F4142",
"l  c #424345",
"z  c #4B4C4E",
"x  c #474848",
"c  c #59554A",
"v  c #4C4D50",
"b  c #4F5052",
"n  c #535353",
"m  c #5B5A55",
"M  c #5D5D5C",
"N  c #585755",
"B  c #645C43",
"V  c #605F5A",
"C  c #615E52",
"Z  c #6E644B",
"A  c #6F6948",
"S  c #6C6347",
"D  c #756A43",
"F  c #726C4A",
"G  c #746846",
"H  c #7B7247",
"J  c #7C744D",
"K  c #77714C",
"L  c #61605C",
"P  c #6A6659",
"I  c #726951",
"U  c #716A59",
"Y  c #5F5F60",
"T  c #5F6060",
"R  c #686865",
"E  c #716F69",
"W  c #74736D",
"Q  c #7C796D",
"!  c #797567",
"~  c #737373",
"^  c #7D7B74",
"/  c #816F3B",
"(  c #86733D",
")  c #8E793F",
"_  c #8A763E",
"`  c #917C3F",
"'  c #837A4C",
"]  c #887542",
"[  c #937D42",
"{  c #907E4D",
"}  c #857D51",
"|  c #887F50",
" . c #847E61",
".. c #9C8546",
"X. c #988245",
"o. c #8C8353",
"O. c #948A56",
"+. c #968C58",
"@. c #9C925C",
"#. c #A48B49",
"$. c #A48B48",
"%. c #AC924C",
"&. c #B3984F",
"*. c #A1965E",
"=. c #A69A5F",
"-. c #B59A51",
";. c #BA9E52",
":. c #BDA154",
">. c #988E6C",
",. c #888477",
"<. c #928E7B",
"1. c #9C957D",
"2. c #9A9176",
"3. c #958C69",
"4. c #A69B63",
"5. c #A19673",
"6. c #A4997A",
"7. c #A29877",
"8. c #ADA266",
"9. c #B5A96A",
"0. c #BAAD6C",
"q. c #B1A467",
"w. c #BDB172",
"e. c #C2A555",
"r. c #C6A959",
"t. c #CBAC5A",
"y. c #C5A758",
"u. c #CFB05C",
"i. c #D3B45E",
"p. c #C2B36E",
"a. c #DCBB62",
"s. c #D6B761",
"d. c #C2B572",
"f. c #C6B975",
"g. c #CBBB76",
"h. c #CDBF79",
"j. c #D8BD73",
"k. c #E0BF63",
"l. c #CEC17A",
"z. c #D3C57C",
"x. c #DAC577",
"c. c #E4C265",
"v. c #E6C66E",
"b. c #E9C76A",
"n. c #EECB6B",
"m. c #E8C567",
"M. c #F1CE6D",
"N. c #E4C570",
"B. c #E2CC79",
"V. c #F4D372",
"C. c #F5D97C",
"Z. c #EED276",
"A. c #9A9684",
"S. c #9F9882",
"D. c #989589",
"F. c #93918C",
"G. c #A19C87",
"H. c #A9A594",
"J. c #B6B298",
"K. c #B1AD98",
"L. c #B9B6A6",
"P. c #B8B8B6",
"I. c #AFAEA8",
"U. c #C7BD89",
"Y. c #C1BEB0",
"T. c #DBCC81",
"R. c #DFD083",
"E. c #E3D485",
"W. c #EBDC8B",
"Q. c #E7D888",
"!. c #F1DC86",
"~. c #F4E38D",
"^. c #FFEE96",
"/. c #FFEF98",
"(. c #F6E691",
"). c #FFF197",
"_. c #FFF299",
"`. c #CAC5AB",
"'. c #C5C1A8",
"]. c #C8C6BC",
"[. c #D3CEB6",
"{. c #DBD5B4",
"}. c #D7D1B2",
"|. c #D0CBAF",
" X c #E7DEAD",
".X c #E3DDBC",
"XX c #E8DFB3",
"oX c #F6EAAB",
"OX c #F9ECAC",
"+X c #F2E6A6",
"@X c #FFF3A1",
"#X c #FFF5AB",
"$X c #FFF8AF",
"%X c #F9EFBB",
"&X c #F6ECB8",
"*X c #FFF6BA",
"=X c #FFF8BE",
"-X c #ECE4B8",
";X c #C6C6C5",
":X c #DAD7C6",
">X c #E3DEC8",
",X c #EAE4C3",
"<X c #EBE5CA",
"1X c #F2ECCB",
"2X c #F5EDC3",
"3X c #FEF5C3",
"4X c #FEF6CC",
"5X c #EDE9D6",
"6X c #F2EED6",
"7X c #FCF6D5",
"8X c #FFF9D4",
"9X c #FBF8D9",
"0X c white",
"qX c #F3F3EC",
/* pixels */
"$ - ; < 3 3 k l x b n b b n M Y Y Y R M V V V Y V R L L L L M m M m N m m m N N M n n n N m T T z + ",
"; P.:X:X:X>X>X5X<X5X1X1X1X1X3X2X2X2X%X&X&X&X&XOXOXoXOXOXOXoXOXOXoXoXoXoXoXoXoXoXoXoX+X+XoXoXoXOXU.& ",
"2 <X#X@X@X@X@X/._._././.^._.^.^.^.^.^.^.^.^.^.^.^.).).).).).).)._._._._._._._.).).).).).).^.^.).g.- ",
"4 ,X^.).T.} } J J J K K K K F F A A A A F F F I K K J J J J } o.o.O.+.@.@.*.4.8.q.0.w.w.E.^.^._.g.& ",
"4 ,X_._.8., R W W ! Q Q W Q Q Q Q Q  .^ Q  . .Q Q ! ! ! ! ! E U E U P P P P Z L C C c > O._.^._.f.@ ",
"4 ,X^._.4.k D.j.x.N.j.v.N.N.N.N.v.v.b.v.N.B.v.N.v.v.v.v.b.v.n.b.v.n.b.v.v.N.N.N.N.N.N.H o._.^.).f.& ",
"3 .X)._.*.k D.b.M.n.n.n.n.c.c.c.k.c.c.m.m.m.m.n.M.M.n.M.M.M.V.M.M.M.M.M.n.n.n.n.n.n.M._ o.).)._.f.# ",
"3 .X)._.@.l D.b.n.n.n.M.r.u I I S B Z Z Z G d %.M.n.M.a.h H ] [ o.X...#.&.r.n.n.n.n.M.) ' ).).).w.o ",
"1 .X_._.@.l A.v.n.n.n.n.&.m 5X-X-XXXXX X X Xo.) M.n.n.t.8 P.L.J.K.H.H.A. .9 a.n.n.n.M.` o.).)._.0.X ",
"< .X/._.@.x A.v.n.n.n.M.%.L *X).^.^.).^.).).o.) M.n.M.u.y 6X@X/.@X_.@X@XW.q a.n.n.n.M.X.o.).^.).9.o ",
"; .X_._.+.z A.b.n.n.n.M.$.L 3X^.^.^.^.^.^.).o._ M.n.n.u.x 5X/./.^.^.).).E.q a.M.n.n.M.[ o.).^._.8.O ",
": .X)._.+.v A.v.M.n.n.M.%.M 4X^.^.^.^.^.).).' ) M.M.M.i.c 5X@X/.^.^.^.).T.e a.n.n.n.M.X.o.).^._.=.X ",
": {._.).O.z A.v.n.n.n.M.%.L 3X_._._.)._._._.' X.M.n.n.a.y >X^.^.).).).).x.9 k.n.n.n.M.` +._.)._.@.X ",
": .X_.).O.v S.b.n.n.n.M.&.8 4.*.@.@.@.+.O.O.0 $.M.n.M.a.6 B H H H H H H f 9 c.n.n.n.M._ @._.)._.@.+ ",
"; {.)._.O.v A.b.n.n.n.M.i.$...$...#.$.%.%.%.&.a.M.n.n.n.i.:.;.;.:.e.y.y.u.u.n.n.n.n.M.h @._.^._.+.. ",
"< {._.).o.z S.b.n.n.n.n.M.M.M.M.M.M.M.M.M.M.M.n.n.n.n.n.n.M.M.M.M.M.M.M.M.M.n.n.n.n.M.h *._.^.).o.$ ",
", {._.).| z G.v.n.n.n.n.b.c.a.c.c.c.a.c.c.c.c.b.n.n.n.n.b.c.c.c.c.c.c.k.c.b.n.n.n.M.M.s 4._.)._.'   ",
", {.)._.o.z S.b.n.n.n.M.e.u I I I I I F I Z q -.M.n.n.n.h B I F I I F I B j b.n.n.n.M.s q._.^._.H   ",
"- {./.).O.z G.b.n.n.M.M.$.m 5X2X-X2X,X2X-X(.D ..M.n.n.n.u P.5X,X,X,X,X<XL.w b.n.n.n.n.a 9._.^.^.D   ",
"- }._._.+.z G.b.n.n.n.M.%.V 4X^.^.^.^.^.).).' $.M.n.n.n.u ].#X^.).)._._.h.w m.M.n.n.n.p 0./.^.^.f   ",
"- }._._.@.x A.b.n.n.n.M.$.L 3X^.^.^.^.^.^._.' ..M.n.n.n.d ;X#X^.^.^.^.).f.w c.n.n.n.n.p d.).^.^.i   ",
"- }._._.@.x G.v.M.n.n.M.%.L 3X^.^.^.^.^.^._.' X.M.n.n.n.d P.#X^.^.^.^._.d.r n.n.n.n.n.p g.).^.^.u   ",
"- |./._.@.x G.b.n.n.n.M.%.R *X^.^.^.^.^.^.^.' [ M.n.n.n.s P.#X^.^.^.)._.f.r n.n.n.n.c.e z.).^.(.y   ",
"- |._._.@.x 6.b.n.n.M.M.$.~ *X^.^.^./.^.^._.J [ M.n.n.n.s I.#X^.^.^.^._.d.r m.n.n.n.c.e z._.).~.0   ",
"- |._._.*.l S.b.n.n.n.M.$.~ *X)._._.).).)._.H X.M.n.n.M.s I.#X^.).^.^._.d.r n.n.n.n.a.0 R.).^.~.6   ",
"- `._._.4.k G.b.n.n.n.M.$.c U.l.z.z.T.E.Q.W.H [ M.M.n.n.s I.#X^._.).)._.f.p n.n.n.n.a.q Q./.^.W.>   ",
": `._._.4.k S.b.M.M.M.M.s.( / h h j g f g j p ;.M.n.n.M.( c } ' o.+.@.*.H w n.n.n.M.u.0 W.^.^.Q.>   ",
"- `._._.q.k S.n.c.#.D ] %.n.M.n.n.n.b.b.c.b.m.n.n.n.n.M.a.e.:.;.-.%.$.$.[ %.n.n.n.M.r.q ~.^.).E.&   ",
"@ `._._.9.3 G.c.g  .;XP.R j n.n.n.n.n.n.n.n.n.n.n.n.n.M.n.M.M.M.M.M.M.M.M.M.n.n.n.M.e.q (.^.^.T.&   ",
"+ '._._.0.3 G.t.x qX0X0XP.> i.M.n.n.n.n.n.n.n.n.n.n.n.n.n.n.n.n.n.n.n.M.n.n.n.n.n.M.:.u (.^.).z.&   ",
"+ '._._.p.3 1.s.0 ;XqX;X~ > i.M.n.n.n.n.n.n.M.n.n.n.n.n.n.n.n.n.n.n.n.n.n.M.n.n.n.M.&.i ^.^._.l.O   ",
"+ L._.).f.3 S.b...t n x > &.n.n.n.n.n.n.n.n.n.n.n.n.n.n.n.n.M.M.M.M.M.M.M.M.n.n.n.n.%.f ^.).).f.&   ",
"+ L._./.g.3 1.n.n.i.&.%.u.M.M.M.n.n.n.n.m.c.c.b.n.n.n.M.a.y.e.-.-.#.#.#...-.n.n.n.M.#.D ^.^._.d.O   ",
"+ J._._.l.3 1.b.n.n.M.M.u.] ] ] j G G S Z G w X.M.n.n.M.[ 8  .F.F.F.F.H. .e b.n.M.M...H ).^._.0.o   ",
"@ K.@X_.z.8 <.b.n.n.n.M.X.N ;X].].:X:X:X>X,X3.j M.n.n.M.) ~ 9X*X*X*X3X$Xz.w b.n.n.M.) ' ).^._.9.O   ",
"@ H.@X^.z.2 <.v.n.n.n.M...~ 9X/.@X@X_._./._.*.j M.n.n.M.#.~ 8X^.^.^././.z.w c.n.n.M.) O.).^.^.=.X   ",
"+ H._._.R.2 <.v.n.M.n.M.$.~ 8X).^.^.^.^.)._.8.g M.n.n.M.%.R 8X^.^.^.^.^.T.q c.n.M.M./ @.(.V.V...+   ",
". G.@X).E.2 ,.v.n.n.n.M.%.~ 8X).^.^.^.^.^.).q.s M.n.n.M.;.L 8X^.^.^.^._.z.q c.n.n.M.j =.V.M.M.[     ",
". S.@X).Q.2 ,.v.M.n.n.M.%.E 8X^.^.^.^.^.^.).9.s n.n.n.M.e.C 7X^.^.^.^.^.R.q k.n.n.M.g 8.V.n.M._     ",
"+ D.@X_.W.0 ,.c.n.n.M.M.-.R 8X^.^.^.^.^.^._.9.a n.n.n.M.t.c 6X^.^.^.^.^.E.w k.M.n.n.g 0.M.M.M.h     ",
"X <.@X^.W.8  .k.n.n.n.M.;.P 8X^.^.^.^.^.^._.0.p n.n.n.M.i.c 5X_.^.^.^.^.Q.q a.n.n.m.a p.M.M.M.g     ",
". ,.@X^.~.t ^ v.M.n.n.M.;.V 7X/.^.^.^.^.^._.d.r m.n.n.M.i.x <X_.^.^.^.^.Q.q a.n.n.n.a p.M.M.M.a     ",
". ,.@X^.W.0 ~ x.n.n.n.n.y.c 6X^.^.^.^.^.^._.f.r n.n.n.n.k.y >X@X^./.^._.Q.q s.M.n.c.r l.M.n.M.p     ",
"  ! ^.!.b.7 E N.M.n.n.M.t.c 5X/.^.^.^.^.^.).g.r m.n.n.n.c.q :X_.^.^.)._.W.q a.n.M.k.r x.M.M.m.w     ",
"  j V.n.n.e R j.n.n.n.M.u.x 1X_._._._._.)._.z.r m.n.n.n.c.q ;X@X_._._._.W.q a.n.M.a.u B.M.n.m.e     ",
"  s n.n.M.w R j.M.n.n.n.i.7 J.z.l.l.h.f.d.w.4.r b.n.n.n.m.e <.d.0.9.9.q.+.9 a.n.n.s.q B.n.n.m.5     ",
"  r n.n.n.a M j.M.n.n.n.c./ g j h h h ( ( _ ( $.n.n.n.n.n.../ _ _ _ [ [ X.#.n.n.M.u.q B.n.M.c.5     ",
"  q b.n.M.s M g.n.b.n.n.n.n.n.n.n.n.n.n.M.M.M.M.n.n.n.n.n.M.M.M.M.M.M.M.M.M.n.n.M.r.u V.M.M.a.*     ",
"  5 i.c.c.s b 2.1.7.6.6.6.1.6.6.6.6.6.6.6.6.6.6.2.7.7.7.5.5.2.5.2.5.5.>.>.>.>.>.>.o.9 y.e.y.&.&     ",
"  o 6 6 5 % @ 1 , < , < < < < < < 4 < 4 4 , ; ; ; , , ; : : - - : : ; = @ @ @ @ @ @ O & & & & o     "
};
