/* XPM */
static char *result[] = {
/* columns rows colors chars-per-pixel */
"75 75 196 2 ",
"   c #573C14",
".  c #593E16",
"X  c #593F19",
"o  c #5D4117",
"O  c #5D421A",
"+  c #614417",
"@  c #62451A",
"#  c #66491D",
"$  c #6C4C1C",
"%  c #714F1D",
"&  c #6F511F",
"*  c #74511E",
"=  c #664B21",
"-  c #6B4E22",
";  c #654B24",
":  c #6E5123",
">  c #6C532B",
",  c #755422",
"<  c #795622",
"1  c #775826",
"2  c #7D5A24",
"3  c #72562A",
"4  c #76592D",
"5  c #7C5C2A",
"6  c #6E5734",
"7  c #745931",
"8  c #7B5E32",
"9  c #725935",
"0  c #7F602E",
"q  c #7E6133",
"w  c #7E6338",
"e  c #7A6340",
"r  c #815E24",
"t  c #815F2A",
"y  c #846226",
"u  c #886627",
"i  c #85632C",
"p  c #89662B",
"a  c #8B6A2D",
"s  c #906E2F",
"d  c #836433",
"f  c #896731",
"g  c #876837",
"h  c #8D6C33",
"j  c #83663A",
"k  c #86693B",
"l  c #8B6C3B",
"z  c #916F34",
"x  c #906F3A",
"c  c #8F703A",
"v  c #937136",
"b  c #95743A",
"n  c #98773D",
"m  c #9A793E",
"M  c #A07C3C",
"N  c #846A43",
"B  c #8A6D41",
"V  c #846C48",
"C  c #8D7043",
"Z  c #8C724B",
"A  c #937443",
"S  c #997743",
"D  c #977843",
"F  c #9C7B42",
"G  c #93764A",
"H  c #96794B",
"J  c #9C7D4B",
"K  c #8A7557",
"L  c #947B51",
"P  c #9B7E51",
"I  c #927B59",
"U  c #A17E46",
"Y  c #A37F49",
"T  c #8A7B65",
"R  c #947F61",
"E  c #9F804B",
"W  c #9E8151",
"Q  c #9C835C",
"!  c #A28047",
"~  c #A4834B",
"^  c #A9864E",
"/  c #AB894E",
"(  c #A58553",
")  c #A98652",
"_  c #A78853",
"`  c #AB8B54",
"'  c #A3865A",
"]  c #A6895C",
"[  c #AD8E59",
"{  c #B28E54",
"}  c #B18F59",
"|  c #AF905C",
" . c #B49156",
".. c #B2925B",
"X. c #BA955C",
"o. c #BD995E",
"O. c #9B8563",
"+. c #9F8866",
"@. c #94846D",
"#. c #8F8576",
"$. c #978A74",
"%. c #A38A63",
"&. c #AA8E62",
"*. c #A28D6E",
"=. c #AD9263",
"-. c #AC936A",
";. c #B49562",
":. c #BA9762",
">. c #B79865",
",. c #BB9A64",
"<. c #B19569",
"1. c #B69A6B",
"2. c #BB9C6A",
"3. c #A69477",
"4. c #BB9E70",
"5. c #B59E79",
"6. c #BFA06E",
"7. c #BEA172",
"8. c #BEA57C",
"9. c #C19B5F",
"0. c #C29D64",
"q. c #C19F6C",
"w. c #C6A166",
"e. c #C9A267",
"r. c #C4A26C",
"t. c #CCA56A",
"y. c #CEA96E",
"u. c #D2AA6F",
"i. c #C3A574",
"p. c #CEAB75",
"a. c #C2A67A",
"s. c #C6A97B",
"d. c #CAAC7D",
"f. c #C9A773",
"g. c #D1AB71",
"h. c #D1AE79",
"j. c #DBB375",
"k. c #D4B27B",
"l. c #DDB57A",
"z. c #DFB97C",
"x. c #D7B073",
"c. c #E1B779",
"v. c #E2BA7D",
"b. c #928B81",
"n. c #979187",
"m. c #989185",
"M. c #9A9A99",
"N. c #AB9C85",
"B. c #A59A88",
"V. c #B09F86",
"C. c #A79F94",
"Z. c #BAA583",
"A. c #B4A388",
"S. c #ACA498",
"D. c #B6A996",
"F. c #BBB09F",
"G. c #ABACAC",
"H. c #A3A4A4",
"J. c #B0ABA4",
"K. c #B7B2A9",
"L. c #ACAFB2",
"P. c #B4B5B7",
"I. c #BAB8B4",
"U. c #B6B7B8",
"Y. c #C4AB83",
"T. c #C9AE80",
"R. c #CDB183",
"E. c #CEB48B",
"W. c #D4B583",
"Q. c #D5B98C",
"!. c #DABC8C",
"~. c #D7B786",
"^. c #C8B597",
"/. c #D9BD91",
"(. c #D4BA92",
"). c #E2BD84",
"_. c #C1B9AD",
"`. c #C0B7A9",
"'. c #DFC59A",
"]. c #E6C086",
"[. c #ECC384",
"{. c #E5C189",
"}. c #ECC68B",
"|. c #EDC88E",
" X c #F3CA8C",
".X c #ECC993",
"XX c #E5CA9E",
"oX c #E9C999",
"OX c #F2CD94",
"+X c #F1CF9B",
"@X c #F3D19C",
"#X c #EACEA4",
"$X c #E6CBA0",
"%X c #EFD4A9",
"&X c #F3D4A4",
"*X c None",
/* pixels */
"*X*X*X*X*X*X*X*X*X*X*X*X*X*X*X*X*X*X*X*X*X*X*X*X*X*X*X X X X*X[.[. X.X|.|.r.).|.|.}.}.[.*X XOX*X*X*X*X*X*X*X*X*X*X*X*X*X*X*X*X*X*X*X*X*X*X*X*X*X*X*X*X",
"*X*X*X*X*X*X*X*X*X*X*X*X*X*X*X*X*X*X*X*X*X XOXOXoX.X!.!.!.k.[.]./.d.>.2.2.W ' =.,.a.d.!.*X{.i.s.W.{..XOX*X*X*X*X*X*X*X*X*X*X*X*X*X*X*X*X*X*X*X*X*X*X*X",
"*X*X*X*X*X*X*X*X*X*X*X*X*X*X*X*X*X*XOXs.T.(.Y.4.J d 3 l n n c.).2.m 2 h h l , r a m n o.}.k.F y i h ~ ;.s.!..X X*X*X*X*X*X*X*X*X*X*X*X*X*X*X*X*X*X*X*X",
"*X*X*X*X*X*X*X*X*X*X*X*X*X*X X+XoX X/.Y.J b u n r % # z v s j.).>.z r v f g < y b F p U [.k.` b y 2 y y p z E ,.~.}.*X*X*X*X*X*X*X*X*X*X*X*X*X*X*X*X*X",
"*X*X*X*X*X*X*X*X*X*X*X*XOXXX(.4.:.}.r.2.J b i n r $ % z a U 0.~.} p r b p d 2 u m z 2 U c.i...~ h 2 y y u u u r 0 y.OX#XOX*X*X*X*X*X*X*X*X*X*X*X*X*X*X",
"*X*X*X*X*X*X*X*X*X*XOXXXZ.B g v { }.r...( n i b 2 $ 1 z v ( q.W.( r u b t 5 2 h b r y { *XD [ [ F y 2 y a u u y 1 w.}.d.E.$X@X*X*X*X*X*X*X*X*X*X*X*X*X",
"*X*X*X*X*X*X*X*XOXoXa.' i % h b  .}.2._ ) n p b 1 $ r z ~ i.v.k.S 2 p n r , 2 x h 2 b o.v.o.F [ _ h r y u u u y , w.{.2.| 6.E.$X@X*X*X*X*X*X*X*X*X*X*X",
"*X*X*X*X*X*X*XOXXX7.h z p * h b  .}.:.! ! n f v < $ f b ;.` x.p.h r f b 2 % r x u i ^ X.v.r.^ J [ F y r y u a u 1 w.{.7.R.;.| ` Y.#X*X*X*X*X*X*X*X*X*X",
"*X*X*X*X*X*X.XR.( ~ b h f * h b  .[...F E h h z * * v m ` ~ j.r.i r z b r % t z r n ) { v.:.~ / ~ ) f r r u a u < r.{.s.!.,.[ F z L ^.&X*X*X*X*X*X*X*X",
"*X*X*X*X*X.Xs.! ! ! n a i , h b  .[.X.m m u v f $ 1 v E ~ ,.v.0.i r n b r * t h t ) ~ X.v.X.m / Y { S r r u u u 2 w.).d./.7._ F z $ 5 a.%X*X*X*X*X*X*X",
"*X*X*X*X}.i.~ [ } ! m h i , h v  .[.X.F v y b i $ i v F [ d.v.0.i p M v r % t h v ! ^  .v.:.~ F Y ~ / u r r u u 1 w.).i.W.2.` m x , % f 8.#X*X*X*X*X*X",
"*X*X*X*X~. .[ { } ~ F a h * h v / }.X.m h u n 1 $ h v F ;.f.v.:.i z U v r % r h S Y ^ { x.0.[ ^ F J { b r r u u r 0.).i.R.2.` b b % * p n &.$X*X*X*X*X",
"*X*X*X*X).:.~ U ~ ~ F f f % h z / [.X.m y h v * * b v n ..:.l.o.p b U v y * t f n ! ~ ~ j.0.} } ~ F ` ! r r y u 2 0.).,.>.2._ b x % % a n i s.*X*X*X*X",
"*X*X*X*X).X.! ! ^ / ! z h 1 b b / ].o.m a n x , i m n m  .,.l.,.n U U F s r t v F ` ! U x.t.......~ [ { v t a s h t.].:...6.` n n 1 2 f n a s.*X*X*X*X",
"g.g.g.g.g.r.0.0.9.9.9.X.X. .:.0.0.g.w.0.o.0.9.X.o.o.9.o.:.0.e.0.o.:.9.X.X...X.X.o.0.o.o.0.0.0.0.0.:.9.0.X...X.X. .0.r.0.0.0.X. .} J j A { X.r.y.t.*X*X",
"` ~ U F b z h f h z v n m U ! U ! ! U Y P J ! ! n v s a h p p a i p g t r t t t t t t t i t p t t 2 2 1 5 5 2 5 t 5 5 d O.#.j 5 d d j x b n n F m ~ *X",
"S x h h f x @.@.l p a h v l v v v v v ' M.$.m n b b Z i 5 * * * , O.#.Z * * B #.Z * * * * 1 V V 5 t i B T Z h v v l a m S.G.] ! ! %.b.O.[ ` ^ ~ ( ~ *X",
"f i i i i J G.J.A 2 5 t F F i y y y y ] I.V.p r d 3.M.I & & & : 1 A.U.Q * * *.P.3.2 * 0 f A S.S.' F n 3.L.N.F F F b v v 1.8.[ ..^ V.U.5.;...| =.1._ *X",
"f v v z h z 4.4.F F F F U F n b v v b F | ) n n F Z._.=.s h h h z _ 6.E b s _ Y.| h h f i d Z.D.A d z Y Z.%.v c z h h h h z h v v ~ <.J v b n b n d *X",
"4 8 1 , , d d d g l g d i 5 1 1 1 q g g l l g d g l A g d d d d q d w g l l l l C l g d 0 0 d d 1 , , 1 5 1 : , , : : - & : : : - : , : , 3 , , : $ *X",
"*X*X*X*XJ G A A f 5 5 1 , - 5 1 g ~ j 5 1 @ 1 5 1 0 0 l A A J l g 0 0 0 0 % # 1 0 1 g C b H q i 8 i d c d g 5 & 1 A E H A H d g 5 1 $ 1 5 1 G j *X*X*X",
"*X*X*X*X}.i.,.,.^ m n h 2 i n h / [.` b h $ z h b n ! ,.2...c.:.~ F M E s y & s b v | X.u.i.m b b F E } ~ ` n y a t.}.i.6.>.~ [ b h , p h h R.*X*X*X*X",
"*X*X*X*X].i._ [ ! F h v 1 v h b / [.` n 1 , b a m b ` 2.2.:.z.;.E E F m b 0 & f v b ..| y.f.F u p b m / / ! E y a e.].6.s.1.^ ~ b h 1 f h h T.*X*X*X*X",
"*X*X*X*X].;.F ) F n h x 5 b h n { v.{ b , 5 v h m m ..7.-.Q ..g 3 0 D E b y $ f b l l q *XH Z W h a n ! ` E ! a a t.].2.d.;.` ~ b h < i h z d.*X*X*X*X",
"*X*X*X*X~.` F ^ F z b i i z v F  .v.X.h $ f z z n U <.O.9 *X*X*X*X*X> Z E i & k w ; *X*X*X*X*X9 W c s E ` ! ~ a p t.].>.6.( ;.~ v v 1 i h z T.*X*X*X*X",
"*X*X*X*Xk.[ } ^ n h n 5 i h F n o.v...i % x z z n [ ' *X*X*X*X*X*X*X*X*Xe L V 9 *X*X*X*X*X*X*X*X*XW s m ^ ! E s a t.}...| F ..E b z 2 i h h d.*X*X*X*X",
"*X*X*X*Xp.>.>.~ n h b * i h m v  .v...1 < S a n m =.N *X*X*X*X*X*X*X*X*X*X6 6 *X*X*X*X*X*X*X*X*X*XZ n v ~ ^ E s u t.[.[ E ~ >.b v v 1 t h z d.*X*X*X*X",
"*X*X*X*Xp.T.7.~ b z h $ p v F a ~ j.( % t n p n F Q *X*X*X*X*X*X*X*X*X*X*X*X*X*X*X*X*X*X*X*X*X*X*X*XW s E ^ E v u t.]._ F ....s n v 5 t z h s.*X*X*X*X",
"*X*X*X*Xf.R.i.^ b z h $ f h m s M x.J $ f b p n ~ L *X*X*X*X*X*X*X*X*X*X*X*X*X*X*X*X*X*X*X*X*X*X*X*XW z M ^ E v u t.v._ | ,.~ u n v 5 t z h s.*X*X*X*X",
"*X*X*X*Xr.i.6.) b v f $ h h m z M u.B % x z z F ~ P *X*X*X*X*X*X*X*X*X*X*X*X*X*X*X*X*X*X*X*X*X*X*X*XW h b ^ E v p e.].6.>...s s F v t t h z s.*X*X*X*X",
"*X*X*X*X2.i.2.) v z f $ f h F n M t.g < n p z S E ' *X*X*X*X*X*X*X*X*X*X*X*X*X*X*X*X*X*X*X*X*X*X*X*XW u s ~ E b p e.l.6.,.E u v U v t 5 z h s.*X*X*X*X",
"*X*X*X*X>.2.:._ b v i $ h h U F M 0.k t n u n n ! &.*X*X*X*X*X*X*X*X*X*X*X*X*X*X*X*X*X*X*X*X*X*X*X*XE u s E E b u w.p.6.` s u b U b i 2 z h s.*X*X*X*X",
"*X*X*X*X;.2...` b x i $ h h F ! ~ :.k f b u n b U <.Y *X*X*X*X*X*X*X*X*X*X*X*X*X*X*X*X*X*X*X*X*X*X*XD a a M ! b a o.r.F a u a ! E v i 2 v h s.*X*X*X*X",
"*X*X*X*X] 2...[ n z f % h h ! ~ ^ } l z h a m v U 2.[ *X*X*X*X*X*X*X*X*X*X*X*X*X*X*X*X*X*X*X*X*X*X;.! u u n E b u X.:.v u u v ~ Y v d 1 z h i.*X*X*X*X",
"*X*X*X*X] 2.:.| n v f % h a F ( { ) B n u h F v ! 2.;.*X*X*X*X*X*X*X*X*X*X*X*X*X*X*X*X*X*X*X*X*X*X2...a u v E n a ` ..h u s m / U z p 1 z a i.*X*X*X*X",
"*X*X*X*X( ;.;.[ n v i % h h F ^ } ^ A n r v F v m ,.,.X.*X*X*X*X*X*X*X*X*X*X*X*X*X*X*X*X*X*X*X*X:.2.:.b u s E b a / [ v a b ~ ^ Y z f < z h 7.*X*X*X*X",
"*X*X*X*XP ;.} [ m v p * h h F ^ } Y J z y b U s a [ [ { *X*X*X*X*X*X*X*X*X*X*X*X*X*X*X*X*X*X*X*Xr.,.,.~ u s E b p ~ ` b b E / ! Y p g , h h 4.*X*X*X*X",
"*X*X*X*XG ...._ m n d * z p U U Y S J f a m U v u s s b 0.*X*X*X*X*X*X*X*X*X*X*X*X*X*X*X*X*X*Xe.2.,.,...a a M b p E ( E E / ^ ^ n i z , z h 1.*X*X*X*X",
"*X*X*X*XC =...[ F b i * h h F ^ ~ A G y v F U s u u u a  .x.*X*X*X*X*X*X*X*X*X*X*X*X*X*X*X*Xu.0.[ _ ,.;.v u m m p J W E ^ ` ~ ^ p p h % h h >.*X*X*X*X",
"*X*X*X*Xl 2.s.[ U b i % h h b [ ` l b p n m U v a u a v ! t.j.*X*X*X*X*X*X*X*X*X*X*X*X*X*Xv.9.~ ^ ~ 1.,.E u b m u S E | [ ^ ` D r h h % h h <.*X*X*X*X",
"*X*X*X*Xj 7.R.| F b y & a b a ` ( g g z U U U n a a v E m M ~ *X*X*X*X*X*X*X*X*X*X*X*X*X*X0.U ! / E [ 6./ a v m p x H } Y ` ^ i r b p % h h <.*X*X*X*X",
"*X*X*X*Xj T.Q...F b 5 * p n i p f d d x U U ~ F m n E ^ m v d w.[.*X*X*X*X*X*X*X*X*X*Xv.D l m F / E E X.| a v m f x Z ( ) [ z 2 a n y % p h =.*X*X*X*X",
"*X*X*X*X8 a.Q.| m b 2 % i m h 2 r 8 d z ! ! ` Y F F ^ ` b a i J u.[.[.*X*X*X*X*X*X[.[.y.q j b F ` n m | >.v s D p g C [ { n r y n v r % f h [ *X*X*X*X",
"*X*X*X*X7 a.R.| n v * % r n F p r 3 8 h ^ U ` [ ^ ` ` ! b a 5 B f  .j.v.*X*X*X*Xc.j.0._ 8 d b m _ E b ^ ,.m s m p d B } F i y b n s r % f f ] *X*X*X*X",
"*X*X*X*X7 =.>.[ b v & % 2 v F m z > q a ^ E ~ } | [ ^ F z p 1 B r r b 0.u.t.t.u.:.! n D 4 d h m ~ _ E ~ 1.! s m i q N D i i b F n u 2 % i h ' *X*X*X*X",
"*X*X*X*X7 [ ..[ b h $ & 2 a m F b > d p ^ ~ m ~ ` ! ~ b z i , k t 2 % 1 ( q.i.( 1 h n S 3 q h n ~ | ..E ..^ s b a 5 8 i r v F m z y * * i h J *X*X*X*X",
"*X*X*X*X6 [ >.` b v @ & 2 y v F b ; g i E [ E m F ! / h v y - k i r , $ 2 Y ( f $ 1 b h 3 d f n E | [ n ..} a n i 5 7 i v F F b u y < % 5 v J *X*X*X*X",
"*X*X*X*X7 | 2._ b a + * * y a v h ; l y m } } / ` [ ! a v y - k i 2 % # r S F x * @ h z : d u n E | | E } ..v m i 3 > v F m F s y r < $ 1 n G *X*X*X*X",
"*X*X*X*X7 <.6.~ b p o $ * r u u r = B u b } ..[ ..` h z v r @ g a * % $ p F m n 2 @ i x 3 d y n ~ X.8.[ ..;.s m 0 , 7 F m m b u r r < $ % v G *X*X*X*X",
"*X*X*X*X6 7.| E M d + $ * r y u r = C f h ` } } ` z i b a 2 @ g t * $ % z F F F h % 5 h : d y b E ..d.../ ;.b m u & 7 D F n a u r < < $ $ v P *X*X*X*X",
"*X*X*X*X> &.` E E y # $ r * r r < O A z i ~ } ` n y v n p r + j r < # * n F m F v 1 1 l - d y b E ;.d.6.E >.M b 0 = 7 E M s u 0 r * < + @ h P *X*X*X*X",
"*X*X*X*X6 E m ^ E 0 % $ * * r r < O C v r z ~ F i a F v p 2 @ w 5 * @ 2 S b b n m t 5 g - d i z E >.s.6.E  .b b u & 7 c u u u 2 < r % $ $ i P *X*X*X*X",
"*X*X*X*X3 ' E ` n r % $ * * * y < X C S y r p y u F m a u 2 @ w 5 % @ t n m F m F p 1 f - d i b F 6.d.i.~ ` s b 0 # > a u u 2 2 < < $ * $ 5 J *X*X*X*X",
"*X*X*X*X> [ ....b r * @ * r * r * o k U z r r r b F v u y 2 @ 8 5 % $ z b F m F F h 1 f ; d y z E ..7.7._ ..! b 0 & > s u 2 2 2 < % % < % 1 G *X*X*X*X",
"*X*X*X*X> ] ,.} z r * @ % * r * % o f b S z s n F v u u y 2 @ q 5 % % x n U F F F h , f = d y v F ;.6.6.E [ ! v u & 3 0 u 2 2 2 r $ % < % % B *X*X*X*X",
"*X*X*X*X; E ..! z < * $ @ * r r < o i u b S S S z p u y r * + 8 5 $ , v m F m F m f 1 f = 8 u v F 6.6.6.E ` ! v 0 # 1 2 2 2 < 2 % % < * % # B *X*X*X*X",
"*X*X*X*X> x m z v < < % + % * < * X j t i f s a t t r r r * o 8 5 $ 1 b U U n U n f , f = 8 y v M >.1.i.| / ! b u & > 0 2 * 2 2 % % * * % + j *X*X*X*X",
"*X*X*X*X> z u u n 2 % * @ $ * * * X t t r y r r r r r < * < + 8 r @ < v S b n n n f , d = 8 y z E 1.X.i.| ^ ! b 0 # : 0 , 2 2 * % * r * * + d *X*X*X*X",
"*X*X*X*X> b u s n r % * * @ % % % X 9 * r r r r r r < < r < + 7 < $ * b n a s S n p - i = 8 u z m >.;.r.;.~ ~ v 0 # > 2 2 2 * & % * r * * + t *X*X*X*X",
"*X*X*X*X> A u z m i % < * % $ + o X t r r r r % * * < < r % o 7 5 # < S v u a n n f % t = 8 y v M ;...6.1.~ ~ b u # > 0 2 * % $ * * r r * + 4 *X*X*X*X",
"*X*X*X*X> S z n S f * * * * * $ + . t t r r r r r r r * * % o 7 < $ < n s u u n b h % 5 # 0 u v D ;...6.>.~ ~ b y ; > 5 * * $ $ * r r r , + 7 *X*X*X*X",
"*X*X*X*X> S S F U h * * * r * * % o t * % % r r r * * % $ +   3 - + r b a s a v b h - 1 O 4 u s E ....1.2.~ ~ v 5 @ - < * $ + * r r r r * + 3 *X*X*X*X",
"*X*X*X*X` X.) Y U Y Y Y Y Y Y Y Y Y Y Y Y Y Y Y Y Y Y U S A Y ( J S ^ { { 0. .{ { { Y ^ _ ( / { X.w.w.r.r.X.X.{ ^ Y _ ~ ! n M ! ^ / / { ) ~ _ :.l.*X*X",
"*X .` ` / ) Y S d j A C l x S M S S S S S S S M U S S Y U U Y U S U S U S U S M Y ~ U U U ~ ! ~ ~ ~ / {  ... . . ... . . ./ / / Y Y U U ~ ` } ..:.,.0.",
"*XU n n F F F G G A b l d V e t t y 0 5 g T Z , , , k K j * & * * 1 K K i , * < I #.Z < 2 * y u u p b F F F H n m m m n n m D b z z h l h p p h h z S ",
"*X` ,.;.} ;.:.N.M.%.~ } <.H.B.b z v m F -.L.S.D b m N.L.*.h i 2 < g S.G.G * , 2 N.U.%.% $ & * * i b b a y L n.@.p y i 0 v m.n.c 2 5 G n.$.i i d h l b ",
"*XA ~ ~ ~ ! ~ Z._.&.J Y [ ^.V.n v b m m ^ Z.<.n v b &.A.H i i 5 5 i 5.8.x 2 t 5 ( 1.A t 0 2 2 5 d ! v i h &.I.A.c l z s E K.K.E h h ] I.D.x h h a i y ",
"*X1 t d i i 0 f x t 2 r 8 f t 5 5 5 5 t 0 i i i 5 5 5 d 0 i h l b D F E A S n n b b v v c b n A F A F D H _ >.] b z a s s E / E F F ~ =._ g y y g b d ",
"*X*XO # ; : : : - # @ # # # # # # @ : # # $ $ @ # $ $ $ $ : = > : 3 4 4 q w w 1 > 3 - - = - : , 3 4 4 4 8 1 , > : # # O $ $ # & - - - $ - - # + @ ; @ ",
"*X*X*X*X; G m b x < # * * * * 2 , O 5 * 2 2 * $ , 2 , 1 c v = 4 i h n E 6.| >.E v z 1 5 O 4 y v F ` } | 2.E v a & O > 0 2 2 2 0 y y r 1 < , - *X*X*X*X",
"*X*X*X*X> H F m b 1 % r * * 2 r 2 O q 2 2 2 r * , 2 2 v F n # > l v b E >.| ,.^ b v 5 5 O 8 i b E ` ....6.~ v h 0 O : 0 2 u u s z a y i < < 3 *X*X*X*X",
"*X*X*X*X> F F m b r % * * r r r * O q y 2 y 2 & 2 * f D F n # > n v n m ..| ;.( n b 5 5 X 7 y b E [ ....7.^ b a * O > p u u b m m n p p 5 < 4 X *X*X*X",
"*X*X*X*X> D F F n f - , < 2 r r 2 O 0 y y r 2 $ * y m F F m # 7 D h m m [ i.,.` b b 5 5 O 7 y b E [ ..} 6.~ b h * o > p a n n a a m b a 0 * 3 O *X*X*X",
"*X*X*X*X*Xd h l h g # $ $ , * 2 & o & y * 1 1 $ , i l l h d O = d h v b E i.;.J v h , # . : y z m ^ ` ` 6.W s h * o o 0 h n p 0 2 p b a 4 $ @ *X*X*X*X",
"*X*X*X*X*X*X*XO O *X*X. . o o o *X*X*X*X*X*X*X*X. o o o O *X*X*XO # # ; = > > - # # o . *X*X@ : : : 3 3 7 : = $ O *X*XO $ # @ @ @ O # , *X. o *X*X*X*X"
};
