/* XPM */
static char *_2ca76e0494446b0fe431a69b240c3f5YgLSJtekVhB63fGF[] = {
/* columns rows colors chars-per-pixel */
"75 75 218 2 ",
"   c None",
".  c #593E16",
"X  c #583D17",
"o  c #5D4117",
"O  c #5C421A",
"+  c #614417",
"@  c #62451A",
"#  c #66491D",
"$  c #6C4C1C",
"%  c #714F1D",
"&  c #6F511F",
"*  c #73511E",
"=  c #664B21",
"-  c #6B4E22",
";  c #614620",
":  c #6E5123",
">  c #6D532B",
",  c #755422",
"<  c #795622",
"1  c #775826",
"2  c #7D5A24",
"3  c #72562B",
"4  c #75592D",
"5  c #7C5C2A",
"6  c #745A32",
"7  c #7B5E32",
"8  c #725730",
"9  c #784F2B",
"0  c #7F602E",
"q  c #7E6133",
"w  c #7D6239",
"e  c #815E24",
"r  c #815F2A",
"t  c #815635",
"y  c #846226",
"u  c #886627",
"i  c #85632C",
"p  c #89662B",
"a  c #8B6A2D",
"s  c #906E2F",
"d  c #836433",
"f  c #896731",
"g  c #8D6C33",
"h  c #836539",
"j  c #86693B",
"k  c #8B6C3B",
"l  c #866837",
"z  c #916F35",
"x  c #916F3A",
"c  c #92653C",
"v  c #937136",
"b  c #95743A",
"n  c #98773D",
"m  c #9A793E",
"M  c #8F703F",
"N  c #A07C3C",
"B  c #975855",
"V  c #8C5347",
"C  c #A45F5E",
"Z  c #8A6D42",
"A  c #846B47",
"S  c #99634A",
"D  c #8D7143",
"F  c #8C724A",
"G  c #937443",
"H  c #9A7642",
"J  c #977843",
"K  c #9C7B42",
"L  c #93764A",
"P  c #96794A",
"I  c #9C7C4B",
"U  c #9C7048",
"Y  c #8A7557",
"T  c #9B7E51",
"R  c #927B59",
"E  c #A17E46",
"W  c #A47F49",
"Q  c #A1734F",
"!  c #A46A5A",
"~  c #A87659",
"^  c #A65476",
"/  c #A95473",
"(  c #8D7C63",
")  c #AD6868",
"_  c #AD7165",
"`  c #B27B69",
"'  c #B7667C",
"]  c #B97378",
"[  c #9F804B",
"{  c #9C8051",
"}  c #A28047",
"|  c #A4834B",
" . c #A9864D",
".. c #AB894E",
"X. c #A58552",
"o. c #A98653",
"O. c #A78852",
"+. c #AB8B54",
"@. c #A6895B",
"#. c #AD8E59",
"$. c #A5855B",
"%. c #B18E54",
"&. c #B18F5A",
"*. c #AF905C",
"=. c #B49156",
"-. c #B2925B",
";. c #BA955C",
":. c #BD985E",
">. c #998668",
",. c #8F8576",
"<. c #978A74",
"1. c #AA8E62",
"2. c #A38B66",
"3. c #AE9366",
"4. c #B49562",
"5. c #BA9762",
"6. c #B79865",
"7. c #BB9A64",
"8. c #B69A6B",
"9. c #BB9C6A",
"0. c #B19569",
"q. c #A69477",
"w. c #B79E75",
"e. c #BF847A",
"r. c #BFA06E",
"t. c #BEA172",
"y. c #BEA57C",
"u. c #C29D64",
"i. c #C29E6E",
"p. c #C29478",
"a. c #C2857F",
"s. c #C6A166",
"d. c #C4A26C",
"f. c #CBA569",
"g. c #CBA569",
"h. c #C3A574",
"j. c #C2A77A",
"k. c #C6A97B",
"l. c #C9AC7C",
"z. c #CDAB74",
"x. c #D2AB72",
"c. c #D1AF79",
"v. c #DAB374",
"b. c #DCB57A",
"n. c #D7B47A",
"m. c #E2BA7D",
"M. c #B75981",
"N. c #BE6789",
"B. c #BA6791",
"V. c #C4589C",
"C. c #C77391",
"Z. c #C44BA3",
"A. c #CC58A5",
"S. c #D259AD",
"D. c #D457B5",
"F. c #D34EB9",
"G. c #CE62A2",
"H. c #D873AF",
"J. c #FF3FFF",
"K. c #DA48C7",
"L. c #DD55C3",
"P. c #E14CCA",
"I. c #E54BD5",
"U. c #E848DB",
"Y. c #E952D5",
"T. c #E85DD2",
"R. c #E259C8",
"E. c #E363C8",
"W. c #EE46E4",
"Q. c #EE49E0",
"!. c #F14CE5",
"~. c #F445ED",
"^. c #F44AEB",
"/. c #F944F5",
"(. c #FF40FF",
"). c #F845F2",
"_. c #928B81",
"`. c #989186",
"'. c #9A9A99",
"]. c #A99B86",
"[. c #AC9F8D",
"{. c #BAA583",
"}. c #B4A388",
"|. c #ACA498",
" X c #B6A996",
".X c #BBB09F",
"XX c #A8A8A9",
"oX c #ACAFB2",
"OX c #B8B7B6",
"+X c #B5B0A7",
"@X c #CE8890",
"#X c #CAAE80",
"$X c #C4AB83",
"%X c #CDB183",
"&X c #CEB48B",
"*X c #D4B583",
"=X c #DABC8C",
"-X c #D7B888",
";X c #C8B597",
":X c #D6BB91",
">X c #E3BD83",
",X c #DE84A2",
"<X c #E896A2",
"1X c #C1B8AB",
"2X c #DFC59A",
"3X c #EBC384",
"4X c #E6C28A",
"5X c #ECC68A",
"6X c #E7C288",
"7X c #F3CA8C",
"8X c #ECC993",
"9X c #E5CA9E",
"0X c #EACA99",
"qX c #F2CE94",
"wX c #F2CF9C",
"eX c #F3D19C",
"rX c #E9CEA3",
"tX c #F1D4A7",
/* pixels */
"                                                      7X7X7X  3X3X5X5X5X5Xd.=X5X5X5X5X3X  7XqX                                                        ",
"                                          7XqXwX0X8X=X=X-Xn.3X6X:Xl.8.r.r.{ @.4.9.h.%X=X  6Xt.l.-X4X8XqX                                              ",
"                                    qXk.#X:X$Xt.I l > x m n v.3Xr.m 2 a g k * 2 a m m 5.3X*Xn y i g } 4.k.=X8X7X                                      ",
"                            7XwXwX7X:X$XI v y n 2 % # g v s v.=X5.z 0 v a k < y b m p } 3Xn.+.b y 2 y u u z [ 9.*X5X                                  ",
"                        qX9X:Xw.5.5Xr.9.T v i n e $ % z s K s.b.-.p e b i d < p m z 2 E b.h.#. .f 2 e u u u u e 0 z.qXrXqX                            ",
"                    qX9X{.Z f v =.5Xr.-.X.n y n 2 $ < z v X.i.*X .e y n r 5 < z b y y %.  K #.-.K y e y u u u y , s.4Xk.&X9XeX                        ",
"                qX0Xj.@.p * f b =.3X9.+.O.n p v < # r v  .h.m.n.J 2 p b < , 2 v a 2 b :.m.:.K #.O.g y y u u u u < s.4Xr.*.9.&XrXeX                    ",
"              qX2Xt.g g p * g b -.3X5.W | n f v < $ f b 1.#.v.x.g e g b 2 , 2 b y i O.;.m.d.| } *.K y 2 u u u i 1 s.6Xt.%X5.*.O.$XrX                  ",
"            8X%XO. .b g p * g b =.3X;.K K z g v * * v K O.} v.d.y e b v e * r z e H o.%.m.:.| O.| +.g e e p u u < s.6Xj.-X9.*.m z L ;XtX              ",
"          8Xk.} } } m a f , g v +.3X;.m m i v f $ 1 v K | 9.m.u.i r n v e % r z p W } ;.m.5.m  .W +.m e e u u u 5 s.6Xl.:Xr.#.m x % r $XtX            ",
"        5Xh.| #.#.| m g p , g b =.3X;.K v y b p $ i b K =.l.m.u.y u K v e % e g v |  .-.b.5.} K E |  .p e e u p 5 u.6Xh.%Xr.+.m b & % p y.rX          ",
"        -X=.%.#.#.| m a f * g v +.3X5.m g i b 2 $ g v K 5.h.m.7.i z E b u % 9 g m }  .+.b.u.#. .K I %.b e e u u 2 s.>Xr.%X9.+.b x & * p n 1.9X        ",
"        >X;.| E | | K a f % g z ..3X;.m y g z * , v v n -.5.b.5.p n m b u * e g m } |  .v.u.#.&.| K +.| e e u u e u.6X5.5.9.O.v z & % g n y k.        ",
"        >X5.| }  ...W x g 1 x b ..3X:.m a n x < i m n K =.7.v.u.b E E E s e r x K O.} W v.s.-.;.&.| #.%.x p p s a u.6X9.-.r.+.m n 5 < f n g k.        ",
"x.x.x.x.x.s.u.u.:.:.:.;.;.=.u.5.s.z.g.7.;.u.:.;.:.:.:.:.u.u.s.s.;.5.:.5.;.=.=.;.:.5.5.u.u.u.u.u.u.5.:.u.;.=.;.;.;.u.g.u.7.s.;.;.&.I j G %.;.s.z.s.    ",
"+.| K K b z g a z z v n m E } } } } } W T W } } m v s a f p p i p f f r r r r i y r y r i y i r r 2 2 1 1 5 2 5 5 5 1 i >.,.h 1 7 d l x b n m m K |   ",
"K x g g f x <.( g a f g v k v v v v v $.'.<.m m n D D p 1 < , * < ( _.F * * D ,.F * * * , , A F r r i Z ( F k v x g a m |.oX@.| | 2.,.>.%.O. .|  .|   ",
"d i d p i P +X+XG 2 2 i K K i y i y i @.+X}.a 2 d q.'.R $ & & * 2 }.OX2.* * q.oXq.5 < 0 p G |.|.$.K n q.oX].K K K b v v 8.y.#.#.| }.OX}.-.;.#.4.8.O.  ",
"f v b g g x 8.w.K K K K K K m b v v v m #. .n n K y.1X1.z g g g z O.8.K v v +.$X*.k a p i l }. XG d a X.{.@.v g z g g g g v v v v | 0.K v b b b n f   ",
"4 5 1 , , 5 l l l j l f d 5 1 1 1 0 l k k k j l l k G j d d d d d f d l l k j M k j j d q 5 i d 1 , , , 5 1 3 , : : : : $ : $ & : : , : , 3 , 3 : =   ",
"        I J G G d 5 0 1 - - 5 1 g | l 5 1 @ 1 5 5 r 0 M D M K M d q d 0 5 % # 1 0 5 l D G P i 0 q i l k f j 5 & < J { P G P l j 5 1 $ 3 5 1 L h       ",
"        6Xh.6.9. .K b g e p n g ..3X+.b f & z g b b } 6.r.:.b.7.} K K K v y & g b v *.;.x.z.K b v K } %.| O.n y a f.6Xr.t.6.| +.b g , p g g %X        ",
"        6Xh.+.#.} K g x 2 x g b  .3X+.b 2 * b a n b @.w.p.@X<XC.] _ Q K v u $ p G Q a.@X,X@X_ S f v K o. .} } u u f.6Xr.k.9.O.| b z 1 f g g #X        ",
"        >X6.K  .K n g v 2 b g n ..3X*.b , 5 b f K H a.,XE.U.).~.U.F.G.] U y $ B ' A.K.U.).^.I.D.' S H } +.[ | i a f.4Xr.l.-...| v g 1 p g g l.        ",
"        -X+.K  .K v v p i g v K =.3X*.g $ f z z H ] T./.(.(.(.J.J.J.(.I.B.c V Z.~.J.(.(.J.J.(.(.).S.! K +.} | a a g.4X5.r.X.4.| v v 1 p g z #X        ",
"        x.#.-.| m g n 5 i g K n :.m.-.i % x z v _ Y.(.J.(.(.(.(.(.(.(.(.W.B.S.).(.(.(.(.(.(.(.J.J.J.A.~ o.} W g u f.4X6.*.K -.[ b z 1 y g g l.        ",
"        c.6.6. .b g v , p g E z =.m.*.1 < H p H S.).J.J.(.(.(.(.(.(.(.(.J.W./.J.(.(.(.(.(.(.(.(.J.J.~.' |  .} z a f.5X+.[ | 5.b b z 1 i z g #X        ",
"        c.l.w.} b z k $ p z m a } v.O.$ r n p ! Y.(.(.(.(.(.(.(.(.(.(.(.J.(.(.J.(.(.(.(.(.(.(.(.(.J.(.A.~  .} z u f.6XO.[ *.*.s n v 2 r g z k.        ",
"        z.l.h. .b z g $ f z m s N v.P % f b a C.!.(.(.(.(.(.(.(.(.(.(.(.J.(.(.(.(.(.(.(.(.(.(.(.(.(.(.K._ o.E v u g.b.O.%.7.[ u b v r r g z k.        ",
"        d.j.t.O.v v f $ a g m v N x.x % x z s A.~.(.(.(.(.(.(.(.(.(.(.(.(.(.(.(.(.(.(.(.(.(.(.(.(.(.(.U.)  .} b u g.4Xr.7.-.s s K b r 5 z z k.        ",
"        9.i.9.o.b x p $ f g E b N f.j < n a x S./.(.(.(.(.(.(.(.(.(.(.(.(.(.(.(.(.(.(.(.(.(.(.(.(.(.(.!.) | [ b a g.n.r.7.[ u s E v r 2 g z k.        ",
"        5.9.6.+.b z i $ z g K K N u.l r n i b S./.(.(.(.(.(.(.(.(.(.J.(.(.(.(.(.(.(.(.(.(.(.(.(.(.(.(.W.! [ [ b u s.c.r.+.s u m E v d 2 z g k.        ",
"        4.6.;.+.b z i % g g K }  .5.l a v i b A.~.(.(.(.(.(.(.(.(.(.(.(.(.(.(.(.(.(.(.(.(.(.(.(.(.(.(.I.! E E b p :.i.K a u a E } v f 5 g g h.        ",
"        #.8.4.+.b x d % g g [ }  .&.k x z a m N.!.(.(.(.(.(.(.(.(.(.(.(.(.(.J.(.(.J.(.(.(.(.(.(.(.(.J.F.S m E n p ;.5.z p p v | } v p 1 z g j.        ",
"        $.9.6.#.m v d % g a K O.+...Z b i s K ! Y.J.(.(.(.(.(.(.J.(.(.(.(.(.(.(.(.(.(.(.(.(.(.J.(.(.J.V.c v } b p %.&.z i a N  .} z f 1 z g h.        ",
"        { 4.6.#.m v p % g g K  .&.W G n y z N x D./.(.(.(.(.(.(.(.(.(.(.(.(.(.(.(.(.(.(.(.(.(.(.(.(.^.' p s E m p ..&.z a n |  .} g f < g g t.        ",
"        T 4.&.#.m b p * g g K  .&.W I x y b E v ' Q.J.J.(.(.(.(.(.(.(.(.(.(.(.(.(.(.(.(.(.(.(.(.(.(.E.` p s E b p | #.b v } ..| } f g , g g w.        ",
"        P -.-.+.m b p % z a E }  .J I p p m K v f S./.J.(.(.(.(.(.(.(.(.(.(.(.(.(.(.(.(.(.(.(.(.(.^.@X&.a p m n p W X.K } +.| O.H y g , g g 9.        ",
"        D 1.-.#.K b i , g a K  .W G J i z E E z u C P.J.(.(.(.(.(.J.(.(.(.(.(.(.(.(.(.(.(.(.J.(.).H.p.6.b u n n p U | {  .#.| ..p y z % g g 8.        ",
"        k 9.k.#.E b i % g g b #.+.x D i m m E v p p M.U.(.(.(.(.(.(.(.(.(.(.(.J.J.(.(.(.(.(.J.J.R.` 6.5.E u b m a H { #.#.| +.m e g g % g g 4.        ",
"        j t.%X-.K b i * a v g o.o.l g g K K E m a u b G.~.(.(.(.(.(.(.(.(.(.(.(.(.(.(.(.(.(.(.Y.] | #.r.+.u b n p b T @.| O. .p e b p % g g 0.        ",
"        h $X-X-.K b 5 * p m y p f d l z W [ | K m n } o.S.^.(.(.(.(.(.(.(.(.(.(.(.(.(.(.J.(.I.] *.[ | -.-.a v m p k G X.o.+.v 2 a n y % f g 3.        ",
"        q j.&X4.m v 1 % i m g e r 4 d z } } +.} m [ | O.Q A.~.(.(.(.(.(.(.(.(.(.(.(.J.(.J.I.' I +.n m #.5.v s J p l Z #.#.n e y n v e % p f #.        ",
"        6 j.%X*.m v , * e n K i e 3 t z | [ +.#.O.+.%.| v c Z.~.(.(.(.(.J.(.(.(.(.(.J.).U./ n m +.J b O.7.m s m p d Z -.K i y b N a e % f g @.        ",
"        3 3.5.*.b v & $ 2 v K m g 3 q g  .} | -.-.#. .K z p 7 V.I.J.J.J.J.J.J.(.(.(.).L.^ d z m O.+.| [ 6.} s m a q j P y e b K b p 2 % p g X.        ",
"        6 @.-.#.b v $ & 2 a m K b > q u | | m |  .| | b z y 9 Z / F.J.J.J.J.J.J.(.W.S.! 4 q a m | #.*.[ ;. .a m p 5 6 i e b K K s u * % i g T         ",
"        8 *.5.#.b s # $ < u v K b - j y [ %.} K K } O.g v y : j 2 V Z.U.J.J.J.J.K.^ U z > d a m | *.#.b -.#.s b p 4 8 i v K K b p y * % 5 v P         ",
"        8 *.6.O.b a o % < y u v k = k u m *.#...O.#.} a v y $ j y 5 9 ^ F.~.Q.S.B ; f c : d i b | *.*.[ #.-.v m i 3 3 v K K m s u e < $ 4 b L         ",
"        6 3.r.[ m a o $ * e u u e @ M p b *.*.*.=.+.s z v y # h a * $ $ ! A.C.Q 2 # i z > d p b } 4.h.#.-.4.v n u : 4 [ m K v u u < < % % b L         ",
"        6 t.3.[ m i o $ * e y u 0 # G a g +.-.=.+.s y n a 2 @ h y * $ % g m b K p % 5 k - d u b [ -.l.4...4.b n p & > [ m b a u e < < # $ b T         ",
"        > 1.#.} [ 0 $ $ * * e y * O D v y } #.#.b 0 x m u y @ w 5 < # * b m m K b 1 1 g - l y b [ 4.l.8.[ ;.n n 0 = 6 [ N s u 0 e < < + + z T         ",
"        > [ m | N 0 % $ e e * e 1 O G b 0 v } m y g K b u 2 @ w 5 * # 2 m n b n K r 4 g - d y v [ 6.l.r.[ =.b b p & > b u u u 2 < < % $ @ p I         ",
"        3 O.} +.m e * @ * * * u * O D m r e p y u m m s u 2 @ q 5 % + p m m K m m a 1 f = d i b K r.l.h.| +.v b 0 = > a u u 2 2 < < % * $ 5 P         ",
"        > #.-.*.b e * $ * e * * * O k m z e e y b K s u y 2 @ q 5 % $ g b K m K K f 1 f = q u v [ -.k.h.| -.N b u = > a u 2 2 2 < % % < % 1 L         ",
"        > @.7.%.z e * @ % * y * $ O f b m z g b K v a u y * @ q 5 % % c m K K m K g , f = d y v N 6.r.t.| #.[ b p & > p u 2 2 2 < % % < % % D         ",
"        > { *.[ z < * @ $ * e y , o d p v K m m v u u y 0 * + q 2 $ , v m m K K H g , f = q y v [ 6.r.6.[ +.K b 0 = & u 2 2 < 2 % % < , $ $ j         ",
"        > v m s v < * % + % * e % O d e p s s p u e e e < , O 7 5 # < b K m K K H f , f = q i v [ 4.7.h.*...} b 0 & > 0 2 * 2 * $ % e % $ + h         ",
"        > z u a b 2 * * # @ * * - O 7 e e y u u e e e e < < + 6 < $ 1 b K b m m n p * d = 0 y z m 8.5.h.-. .} b 0 # & 0 * 2 2 * $ % % e % + d         ",
"        > b u a n r % * % $ $ * % O 5 < e e e e e < < * < < + 6 5 $ < b m a s m n f $ i = q y v m 7.5.t.6.| | v u # : 0 2 2 2 % % e e * % + t         ",
"        > G u v m i % < * % $ + + . 7 < * e < < < * < < e * + 6 5 + < H v p p m n p : r # 6 u g [ 4.-.r.6.| | v 0 # > 0 2 * % $ * * e e e o 9         ",
"        > J z n m f % < * e % $ # . 7 e * e e * e e e * * * o 4 < $ < n s u a b b g $ 5 # 7 u s m 6.-.r.9.| | b i = > 5 * * $ % % e e e , + 4         ",
"        > J H K m z % * * * * % $ . 4 < e * e e * < * * $ + . > : @ 2 b u s u v b g $ 5 O 5 u v m -.*.6.7.| } b 2 @ - 1 * $ + * e e e e , + 3         ",
"        +.;.+.K E o.E W W W W W W W W E W W E W W W W W U J I o.K J  .%.%.s.;.%.;.+.W | o.X...%.;.s.s.d.d.5.;.%. .W O.| E m N }  ...%...o.| o.5.b.    ",
"  =.+.+.+.o.W H d h G D x c U N H H U U N U E U N E E E E E E E U E H K K U K N W | W E W } } | | | ..=.%.-.=.-.%.-.=.=.=.%...} W E E E | +.#.;.5.6.u.",
"  W n H m K K J L G b k l A w 7 5 i i 5 j ( F , , , j Y h * * * * 2 Y Y 0 * * < R ,.F < * 0 e y u u b K m K J G m m m n m J L v v v g k g p p f g z n ",
"  o.6.6.-.6.6.].'.2.| -.3.XX[.v z v m K 3.oX|.J b m ].oXq.p y 1 * l |.oXL * * 2 ].OX2.* $ % % * u b M p i { `.>.a i 0 u M <.`.k 2 2 G `.<.p i l g k G ",
"  G | | | } } {.1X1.K K @.;Xw.n v b n m O.{.4.m b b 1.}.P i i 5 0 i t.{.v 2 5 5 X.8.J 5 0 5 5 5 f } v p f 1.OX}.x g s g [ .X+X[ s g @.OX Xv f g f i r ",
"  1 r i i i r l k i r 5 5 f 7 5 5 5 5 5 0 y 0 0 5 1 5 f 5 i k v M b [ [ K J n n b b v v x v b J J J K J K O.8.@.b v f g v [ +.[ K [ { 4.O.f y i g v d ",
"    @ @ ; : : = - # # # # # # # # @ = $ $ # $ # $ $ = $ = : = > > 3 1 1 q w q 1 > 3 = - = : : , 4 4 5 4 q 1 3 : & # # # @ $ # & = : = $ = - = @ @ = # ",
"        > G n n x < $ * * * * 2 1 O 5 * < 2 * $ * 2 < 1 v v # 6 i k b [ r.*.6.[ v z 1 5 o 6 i v J O.*.*.8.[ v a 1 O > 1 2 2 0 0 u y e 1 < , :         ",
"        > K K K b < % e * * 2 e * O 0 2 0 e * * , 2 1 v K G # > x z b [ 7.*.r.| n b 2 5 o 7 y b [ #.-.-.r.| v s 1 O : 0 e u u s z u y i < < 3         ",
"        > P m K x r % * * e e e 2 O q y e e y * * < a m K n # > n s m m -.*.-.O.b b 5 5 O 6 y b [ %.*.-.r.O.v g 1 O : u u u v m m m a a 5 < 3 .       ",
"        > K K m n l = < * e e y 2 o 0 u y e 2 $ 2 e m K K n # 8 J g m m #.h.9...b b 5 5 o 5 y b K #.*.=.r.| b g 1 o - p a b m s a m b a q * 3 o       ",
"          d k k f g # $ * , * < & X & y * 1 1 $ , i k g g d O = f f x b [ t.3.[ v g , # O : 0 z m +.#.+.r.[ v a * o o 0 g n p 0 2 p v g 1 # $         ",
"              O O     . . o . O                 . O O O O       O = # = : > > = # # O .     # $ > 3 3 : 4 : # # @     O # # # O o + # 3   o o         "
};
