/* XPM */
static char *_8f7343b68d346109a9546bb2995891eXgbSKr6fnd3kpiZc[] = {
/* columns rows colors chars-per-pixel */
"50 50 188 2 ",
"   c None",
".  c #3A3F43",
"X  c #3A4044",
"o  c #3C4145",
"O  c #3D4246",
"+  c #3D4247",
"@  c #3E4347",
"#  c #414649",
"$  c #42464A",
"%  c #42474B",
"&  c #43484C",
"*  c #44494D",
"=  c #464A4E",
"-  c #474C50",
";  c #484C50",
":  c #494E52",
">  c #4E5256",
",  c #4F5457",
"<  c #53575A",
"1  c #5C6063",
"2  c #5E6265",
"3  c #616569",
"4  c #616669",
"5  c #686C6F",
"6  c #696D70",
"7  c #6A6D71",
"8  c #76797C",
"9  c #7B7E80",
"0  c #7C7F82",
"q  c #7D8183",
"w  c #8E9193",
"e  c #949698",
"r  c #95989A",
"t  c #979A9C",
"y  c #A0A2A4",
"u  c #A4A6A8",
"i  c #A5A7A9",
"p  c #ABACAE",
"a  c #B3B5B4",
"s  c #B3B5B6",
"d  c #B4B5B5",
"f  c gray71",
"g  c #B6B5B5",
"h  c #B4B5B7",
"j  c #B7B5B6",
"k  c #B9B6B7",
"l  c #B5B7B8",
"z  c #BBB6B8",
"x  c #BEB7B8",
"c  c #BEB7B9",
"v  c #BFB7B9",
"b  c #B7B8B9",
"n  c gray72",
"m  c #BDBABB",
"M  c #BDBFBF",
"N  c #BEBFBF",
"B  c #C0B7B9",
"V  c #C0B7BA",
"C  c #C2B8BA",
"Z  c #C4B8BB",
"A  c #C5B8BB",
"S  c #C8B9BD",
"D  c #CABABD",
"F  c #CCBABE",
"G  c #CDBABF",
"H  c #CEBBBF",
"J  c #CFBBBF",
"K  c #BEBFC0",
"L  c #D3BCC1",
"P  c #D6BCC3",
"I  c #D9BDC3",
"U  c #DABDC4",
"Y  c #DCBEC5",
"T  c #DDBEC5",
"R  c #DEBEC6",
"E  c #DFBEC6",
"W  c #E0BEC7",
"Q  c #E1BFC7",
"!  c #E2BFC7",
"~  c #E5BFC8",
"^  c #C0C1C2",
"/  c #C2C3C4",
"(  c #C3C4C5",
")  c #C3C5C6",
"_  c #C5C4C5",
"`  c #C4C5C6",
"'  c #C4C5C7",
"]  c #C7C4C6",
"[  c #C7C5C7",
"{  c #C5C6C7",
"}  c #C9C5C7",
"|  c #CAC5C7",
" . c #CBC5C7",
".. c #C6C7C8",
"X. c #CEC5C8",
"o. c #CFC5C8",
"O. c #C7C8C9",
"+. c #C8C9CA",
"@. c #C9CACB",
"#. c #CACBCC",
"$. c #CBCBCC",
"%. c #CBCDCE",
"&. c #CFCCCD",
"*. c #CCCDCE",
"=. c #CDCECF",
"-. c #DAC0C7",
";. c #D3C5C9",
":. c #D8C5CA",
">. c #D9C5CB",
",. c #DAC5CB",
"<. c #DBC5CB",
"1. c #DCC5CB",
"2. c #DEC5CC",
"3. c #CDCFD0",
"4. c #D0D0D1",
"5. c #D2D2D3",
"6. c #D2D3D4",
"7. c #D3D4D5",
"8. c #D5D6D6",
"9. c #D5D6D7",
"0. c #D6D7D7",
"q. c #D8D8D9",
"w. c #DADBDB",
"e. c #DDDEDE",
"r. c #DFDFDF",
"t. c #E0C5CC",
"y. c #E1C5CC",
"u. c #E4C5CD",
"i. c #E5C5CD",
"p. c #E9C0CA",
"a. c #EFC2CD",
"s. c #E8C5CE",
"d. c #EAC4CE",
"f. c #EBC5CF",
"g. c #EFC5CF",
"h. c #F0C2CD",
"j. c #F2C2CE",
"k. c #F3C2CE",
"l. c #F4C3CE",
"z. c #F4C3CF",
"x. c #F6C3CF",
"c. c #F6C3D0",
"v. c #F7C3D0",
"b. c #F2C5D0",
"n. c #F3C5D0",
"m. c #F4C5D0",
"M. c #F7C5D1",
"N. c #F8C4D0",
"B. c #F9C4D1",
"V. c #F8C5D1",
"C. c #FBC4D1",
"Z. c #F9C5D2",
"A. c #FBC5D2",
"S. c #FCC4D2",
"D. c #FCC5D2",
"F. c #FDC5D2",
"G. c #FDC5D3",
"H. c #FEC5D3",
"J. c #FFC5D3",
"K. c #FFC5D4",
"L. c #DFE0E0",
"P. c #E0E0E1",
"I. c #E0E1E1",
"U. c #E1E2E3",
"Y. c #E2E2E3",
"T. c #E2E3E3",
"R. c #E3E3E4",
"E. c #E3E4E4",
"W. c #E9E9E9",
"Q. c #E9E9EA",
"!. c #EAEAEA",
"~. c #EBECEC",
"^. c #ECECED",
"/. c #ECEDED",
"(. c #EEEEEE",
"). c #EFEFEF",
"_. c #EFEFF0",
"`. c #EFF0F0",
"'. c #F0F0F1",
"]. c #F1F1F1",
"[. c gray95",
"{. c #F4F4F4",
"}. c #F4F4F5",
"|. c gray96",
" X c #F6F6F6",
".X c gray97",
"XX c #F7F8F8",
"oX c #F8F8F8",
/* pixels */
"                                                                                                    ",
"                                                                                                    ",
"                                                                                                    ",
"                                                                                                    ",
"                                                                                                    ",
"                f f f f f f f f                                     f f f f f f f f                 ",
"            f f f f f f f f f f f f                             f f f f f f f f f f f f             ",
"          f f f f f f s f f f f f f f                         f f f f f s f s f f f f f f           ",
"        f f f f f k V S S A z f f f f f                     f f f f f z A S S V f f f f f f         ",
"      f f f f f H ~ v.S.J.v.l.Y x s f f f                 f f f s x Y b.S.S.S.v.~ H f s f f f       ",
"      f f s z Q J.J.J.J.J.J.J.J.z.H f f f f             f f f f H l.J.J.J.J.J.J.K.J.Q z f f f       ",
"    f f f k ~ J.J.J.J.J.J.J.J.J.K.v.H f f f             f f s H C.J.J.J.J.J.J.J.J.J.J.~ k f f f     ",
"    f f f P J.J.J.J.J.J.J.J.J.J.J.J.l.x s a             f a V l.J.J.J.J.J.J.J.J.J.J.J.J.P f f f     ",
"    f f x l.J.J.J.J.J.J.J.J.J.J.J.J.K.U s f n         b f s I J.J.J.J.J.J.J.J.J.J.J.J.J.z.x f f     ",
"    f s H J.J.J.J.J.J.J.J.J.J.J.J.J.J.a.N N ( { _ ( ( ( N m a.J.J.J.J.J.J.J.J.J.J.J.J.J.J.H f f     ",
"    f f Y J.J.J.J.J.J.J.J.J.J.J.J.J.J.y._ ( ( ( { _ _ ( _ _ 2.J.J.J.J.J.J.J.J.J.J.J.J.J.J.Y s f     ",
"    f f Q K.J.J.J.J.J.J.J.J.J.J.J.C.,._ ( { ( { ( { ( { ( { ( ,.A.K.K.J.J.J.J.J.J.J.J.J.K.! f f     ",
"    f f Y K.J.J.J.J.J.J.J.J.J.J.C.>...( { ( { ( { ( { ( { ( ( { ,.C.K.J.J.J.J.J.J.J.J.J.K.Y f f     ",
"    f f L J.J.J.J.J.J.J.J.J.J.J.2...( ( ( { ( { ( { ( { { ( { ( ( y.J.K.J.J.J.J.J.J.J.J.J.L f f     ",
"    f f V v.J.J.J.J.J.J.J.J.K.f...( ( ..{ ( { ( { ( { ( ( { ( { _ ..s.K.J.J.J.J.J.J.J.J.M.C f f     ",
"      f f Q J.J.J.J.J.J.J.J.M.X._ ( ( { ( { ( { { ( { ( { ( { ( O.( X.M.J.J.J.J.J.J.J.J.Y f f       ",
"        f x l.J.J.J.J.J.J.J.2.( { _ { ( { ( { ( ( { ( { ( { ( { ( ( ( 2.J.J.J.J.J.J.J.l.x f         ",
"        f f V l.J.J.J.J.K.b.O.( ( { ( { ( { ( { { ( { ( { ( { ( O.( _ O.j.K.J.J.J.J.l.C f f         ",
"          f f m Y z.J.J.K.,.( { { ( { ( { ( { ( ( { ( { ( { ( { ( _ ( ( >.J.J.J.M.-.z f f           ",
"              f f m J I -._ ( ( ( ( ( ( ( { { _ { ( { ( { { ( ( ( ( _ ( ..<.I H m f f               ",
"                  f s f M _ ( O.q.E.E.q.@.( ( ( ( { _ ( ( O.q.E.R.0.O.( ( N f s f                   ",
"                        _ ( 4.`. XL.L..X[.4.( _ { ( { ( 4.[. XL.T. X(.%._ ..                        ",
"                        _ @.`.E.q , > 8 w.}.%.( ( { ( %.}.w.8 > , q T.[..._                         ",
"                      ( ( w. X8 X + + X 7 `.L.( ( ..( L.`.7 . + + X 8  Xw.( ..                      ",
"                      _ ( Q.9.= + @ @ @ & O.(.( ( ( ( (.O.& @ + @ + = 9.Q.( (                       ",
"                      _ _ !.5.* + @ @ @ @ ..(.....( ..(._ # @ @ @ + * 7.!._ (                       ",
"                    O.( ( e.[.5 X @ @ X 2 Q.E.( ..( ( E.Q.2 X @ @ X 7 `.L.( _ _                     ",
"                    ( { ( %.}.7.7 & & 3 @.XX3.( ( ( ( 3.XX+.3 % * 5 6. X%.( ( (                     ",
"                    { ( { ( 5. X_.3.%./. X9.{ ( ( { ..( 9.XX(.%.3._. X5.( _ ..(                     ",
"                    _ { ( _ _ &.r.~./.L.&.( { ( ( ( ( ( ( 3.L.(.~.e.&._ ..( _ (                     ",
"                    ( _ X.i.M.b.s.;.{ ( ( { { O.O...O...( ..( _ ;.d.M.b.i.X.{ _                     ",
"                       .b.J.J.J.J.C.X.( ( _ b y e e y b _ ( ( X.C.J.J.J.J.b.|                       ",
"                      >.J.K.J.J.J.J.:.( ..s 2 % @ @ # 1 l ..( >.J.J.J.J.J.J.2.                      ",
"                        M.K.J.J.S.b.O.....l < X @ @ + < l ..( O.g.K.J.J.J.C.                        ",
"                          y.y.i.<.} _ ( ( { r : X + : r ( _ { ( _ 2.i.i.2.                          ",
"                            _ _ ( { ( { ( { ( u 9 q i { ( { ( { ( ( ( {                             ",
"                                { _ { ( { ( ( ..M i p ( { ( { _ { ..                                ",
"                                        ( ( ( ( t w s ( ( {                                         ",
"                                          ....( M O.{ { _                                           ",
"                                            ( ..( ..( (                                             ",
"                                                                                                    ",
"                                                                                                    ",
"                                                                                                    ",
"                                                                                                    ",
"                                                                                                    "
};
