/* XPM */
static char *result[] = {
/* columns rows colors chars-per-pixel */
"75 75 115 2 ",
"   c #030606",
".  c #050708",
"X  c #0B0B0D",
"o  c #161316",
"O  c #171418",
"+  c #191519",
"@  c #241C22",
"#  c #281E25",
"$  c #2E232B",
"%  c #2C2C2C",
"&  c #31262D",
"*  c #3C2C36",
"=  c #3F2D39",
"-  c #353534",
";  c #412F3B",
":  c #493442",
">  c #513948",
",  c #5F4254",
"<  c #6B4C5D",
"1  c #704D62",
"2  c #7B546B",
"3  c #785868",
"4  c #626362",
"5  c #6C6B6A",
"6  c #767675",
"7  c #E53D24",
"8  c #E53F28",
"9  c #E6422C",
"0  c #E64632",
"q  c #E64936",
"w  c #E74C3B",
"e  c #835A72",
"r  c #8F627C",
"t  c #92647E",
"y  c #E75141",
"u  c #E85345",
"i  c #E85649",
"p  c #E7584D",
"a  c #E8594D",
"s  c #E95D54",
"d  c #E96057",
"f  c #EA645D",
"g  c #EA6660",
"h  c #EA6965",
"j  c #EA6D6B",
"k  c #EA7375",
"l  c #EB7679",
"z  c #EA787D",
"x  c #976783",
"c  c #9D6B88",
"v  c #A16E8B",
"b  c #A4778C",
"n  c #AF7897",
"m  c #B47C9C",
"M  c #B97FA0",
"N  c #EB7D85",
"B  c #EB7F8A",
"V  c #8C8C8B",
"C  c #BD82A3",
"Z  c #AF94A0",
"A  c #BF97A8",
"S  c #B7AAAF",
"D  c #B9B2B4",
"F  c #BEBDBC",
"G  c #EB828D",
"H  c #EC8591",
"J  c #EC8896",
"K  c #EC8B9B",
"L  c #C585A9",
"P  c #C78AAC",
"I  c #C98CAD",
"U  c #CE8BB1",
"Y  c #D293B5",
"T  c #D796B9",
"R  c #DB95BD",
"E  c #DB9ABD",
"W  c #ED95AB",
"Q  c #E98FB7",
"!  c #ED9BB3",
"~  c #EA93B9",
"^  c #EC9BBC",
"/  c #D6A7BC",
"(  c #EDA1BC",
")  c #DF9AC0",
"_  c #E19EC2",
"`  c #DBB3C4",
"'  c #E4A3C5",
"]  c #EEA6C6",
"[  c #EEA8C7",
"{  c #EBA7C8",
"}  c #E7A8C8",
"|  c #EEABCA",
" . c #F0AECB",
".. c #EEB1CE",
"X. c #F1B3CE",
"o. c #F1B6D0",
"O. c #F2BAD2",
"+. c #ECCAD9",
"@. c #F3C0D6",
"#. c #F4C5D9",
"$. c #F4CBDD",
"%. c #EBD4DD",
"&. c #F5D0E0",
"*. c #F8DEE8",
"=. c #E3E1E0",
"-. c #EAEAE8",
";. c #F9E2EB",
":. c #F3EBED",
">. c #FAE9EF",
",. c #FAECF1",
"<. c #F4F2F1",
"1. c #FCF5F6",
"2. c #FCF7F8",
"3. c #FEFCFB",
"4. c None",
/* pixels */
"4.4.4.4.4.4.4.4.4.4.4.4.4.4.4.4.4.4.4.4.4.4.4.4.4.4.] ] ] ] 4.4.4.4.4.4.4.4.4.4.4.4.4.4.4.4.4.4.4.4.4.4.4.4.4.4.4.4.4.4.4.4.4.4.4.4.4.4.4.4.4.4.4.4.4.",
"4.4.4.4.4.4.4.4.4.4.4.4.4.4.4.4.4.4.4.4.4.4.4.4.] ]  .X.X. .] ] 4.4.4.4.4.4.4.4.4.4.4.4.4.4.4.4.4.4.4.4.4.4.4.4.4.4.4.4.4.4.4.4.4.4.4.4.4.4.4.4.4.4.4.",
"4.4.4.4.4.4.4.4.4.4.4.4.4.4.4.4.4.4.4.4.4.4.4.4.] X.O.O.O.o. .] 4.4.4.4.4.4.4.4.4.4.4.4.4.4.4.4.4.4.4.4.4.4.4.4.4.4.4.4.4.4.4.4.4.4.4.4.4.4.4.4.4.4.4.",
"4.4.4.4.4.4.4.4.4.4.4.4.4.4.4.4.4.4.4.4.4.4.4.] ] o.O.O.O.O.X. .] 4.4.4.4.4.4.4.4.4.4.4.4.4.4.4.4.4.4.4.4.4.4.4.4.4.4.4.4.4.4.4.4.4.4.4.4.4.4.4.4.4.4.",
"4.4.4.4.4.4.4.4.4.4.4.4.4.4.4.4.4.4.4.4.4.4.4.] ] o.O.O.O.O.O.X.] 4.4.4.4.4.4.4.4.4.4.4.4.4.4.4.4.4.4.4.4.4.4.4.] ] ] [ [ ] ] ] ] 4.4.4.4.4.4.4.4.4.4.",
"4.4.4.4.4.4.4.4.4.4.4.4.4.4.4.4.4.4.4.4.4.4.4.4.] X.O.O.O.O.O.X.[ ] 4.4.4.4.4.4.4.4.4.4.4.4.[ [ ] ] ] ] ]  . .] ]  .X.o.O.o.X.X. .] ] 4.4.4.4.4.4.4.4.",
"4.4.4.4.4.4.4.4.4.4.4.4.4.4.4.4.4.] ] ] ] ] 4.4.]  .o.O.O.O.O.o.[ ] 4.4.4.4.4.4.4.] ] ] [  . .[ X.X.X.X.X.o.o. .] X.O.O.O.O.O.O.o.X.[ ] 4.4.4.4.4.4.4.",
"4.4.4.4.4.4.4.4.4.4.4.4.4.4.4.] ]  .X.X. . .] ] ] ] X.O.O.O.O.o. .] 4.4.4.] ] ] ]  .X.X.o.X.O.@.O.O.O.O.O.O.X.]  .O.O.O.O.O.O.O.O.O.o. .[ 4.4.4.4.4.4.",
"4.4.4.4.4.4.4.4.4.4.4.4.4.4.4.] X.O.O.O.O.o. .] [ ] [ X.O.O.O.O.] ] ] ] ] |  .X.o.O.O.o. . . .o.X.O.O.O.O.O.X.] X.O.O.O.O.O.O.O.o.o.O.o.[ [ 4.4.4.4.4.",
"4.4.4.4.4.4.4.4.4.4.4.4.4.4.[ ] o.O.O.O.O.O.O.X.] ] ] [ o.O.X. .] ]  .X.o.O.O.O.O.O.X. .&.;.%./ | X.O.O.O.O.X.] X.O.O.o...X.O..._ _ o.O.o.[ [ 4.4.4.4.",
"4.4.4.4.4.4.4.4.4.4.4.4.4.4.] ] X.O.O.O.O.O.O.O.X.] ] ] [  .] [  .X.o.O.O.O.O.O.O.X.[ ;.3.<.4 % Z  .X.O.O.O.X.] X.O.O.} R ' o.} R _ o.O.O.| [ 4.4.4.4.",
"4.4.4.4.4.4.4.4.4.4.4.4.4.4.4.]  .O.O.O.O.O.O.O.X. .] ] ]  .X.O.O.X.X.X...o.O.O.O. .o.1.3.<.5 - D O. .O.O.O.X.]  .O.O.{ E ' O.O.o.o.O.O.O. .[ 4.4.4.4.",
"4.4.4.4.4.4.4.4.4.4.4.4.4.4.4.] ] X.O.O.O.O.O.O.X.] ] ] X.o.O.O.X.] X.X.X. ...O.O.X.X.,.3.3.<.-.>.X.X.O.O.O.O. .[ o.O.O.o.O.O.O.O.O.O.O.o. .[ 4.4.4.4.",
"4.4.4.4.4.4.4.4.4.4.4.4.4.4.4.4.] [  .O.O.O.o.X.[  .]  .O.O.O.X.[ #.,.:.S I [ X.O.o.[ @.,.1.1.>.O.| O.O.O.O.O.X.[ [ X.O.O.O.O.O.O.O.O.O.o. .[ 4.4.4.4.",
"4.4.4.4.4.4.4.4.4.4.4.4.4.4.4.4.4.] [ [ X.X. .]  .o.X.X.O.O.O. .@.2.3.F o % /  .O.O.o. .X.O.O.X. .o.O.O.O.O.O.O.X.[ ] X.O.O.O.O.O.O.O.O.o.] [ 4.4.4.4.",
"4.4.4.4.4.4.4.4.4.4.4.4.4.4.4.4.4.4.4.] ] ] ] [ O.O.O.O.O.O.o.[ &.3.3.=.6 V +.| o.O.O.O.o.o.o.o.O.O.O.O.O.O.O.O.O.O. .] [ ..o.O.o.o.o. .[ ] 4.4.4.4.4.",
"4.4.4.4.4.4.4.4.4.4.4.4.4.4.4.4.4.4.4.4.] ] | X.O.O.O.O.O.O.O. .O.2.3.3.3.3.#.| O.O.O.O.O.O.O.O.O.O.O.O.O.O.O.O.O.O.O.X.X.[ [  .| [ [ ] ] 4.4.4.4.4.4.",
"4.4.4.4.4.4.4.4.4.4.4.4.4.4.4.4.4.4.4.] ] X.O.O.O.O.O.O.O.O.O.X.[ #.>.1.,.$.| X.O.O.O.O.O.O.O.O.O.O.O.O.O.O.O.O.O.O.O.O.O.o.X. . .[ ] ] 4.4.4.4.4.4.4.",
"4.4.4.4.4.4.4.4.4.4.4.4.4.4.4.4.4.4.4.]  .O.O.O.O.O.O.O.O.O.O.O.o.[ [ X.| [ X.O.O.O.O.O.O.O.O.O.O.O.O.O.O.O.O.O.O.O.O.O.O.O.O.X.| ] 4.4.4.4.4.4.4.4.4.",
"4.4.4.4.4.4.4.4.4.4.4.4.4.4.4.4.4.4.]  .o.O.O.O.O.O.O.O.O.O.O.O.O.O.o...o.X.O.O.O.O.O.O.O.O.O.O.O.O.O.O.O.O.O.O.O.O.O.O.O.X. .[ | 4.4.4.4.4.4.4.4.4.4.",
"4.4.4.4.4.4.4.4.4.4.4.4.4.4.4.4.4.] ] X.O.O.O.O.O.O.O.O.O.O.O.O.O.O.O.O.O.O.O.O.O.O.O.O.O.O.O.O.O.O.O.O.O.O.O.X.O.O.O.X.X. .] ] 4.4.4.4.4.4.4.4.4.4.4.",
"4.4.4.4.4.4.4.4.4.4.4.4.4.4.4.4.4.]  .O.O.O.O.O.O.O.O.O.O.O.O.O.O.O.O.O.O.O.O.O.O.O.O.O.O.O.O.O.O.O.O.O.O.O.X.]  .X. . .] ] 4.4.4.4.4.4.4.4.4.4.4.4.4.",
"4.4.4.4.4.4.4.4.4.4.4.4.4.4.4.4.] ] o.O.O.O.O.o.X. .X.o.O.O.O.O.O.O.O.O.O.O.O.O.O.O.O.O.O.O.O.O.O.O.O.O.O.O.X.[ ] ] ] ] 4.4.4.4.4.4.4.4.4.4.4.4.4.4.4.",
"4.4.4.4.4.4.4.4.4.4.4.4.4.4.4.4.[ [ o.O.O.X.] ^ ~ Q ~ ~ ] ..O.O.O.O.O.O.O.O.O.O.O.@.O.O.O.O.O.O.O.O.O.O.O.o. .[ [ ] 4.4.4.4.4.4.4.4.4.4.4.4.4.4.4.4.4.",
"4.4.4.4.4.4.4.4.4.4.4.4.4.4.4.4.] X.O.O.X.~ ~ Q Q Q Q Q Q ~ ] O.O.O.O.O.O.O.O.O.O.O.O.O.O.O.O.O.O.O.O.O.O.O.X.O.X.] ] 4.4.4.4.4.4.4.4.4.4.4.4.4.4.4.4.",
"4.4.4.4.4.4.4.4.4.4.4.4.4.4.4.] [ o.O.o.^ Q Q Q Q Q Q Q Q Q ~ [ O.O.O.O.O.O.O.O.O.O.O.O.O.O.O.O.O.O.O.O.O.O.O.O.O.| ] 4.4.4.4.4.4.4.4.4.4.4.4.4.4.4.4.",
"4.4.4.4.4.4.4.4.4.4.4.4.4.4.4.] [ O.O.X.~ Q Q Q Q Q Q Q Q Q ~ ~ o.O.O.O.O.O.O.O.O.O.O.O.O.O.O.O.O.O.O.o.} X.O.O.O.X.[ ] 4.4.4.4.4.4.4.4.4.4.4.4.4.4.4.",
"4.4.4.4.4.4.4.4.4.4.4.4.4.4.4.[  .O.O. .Q Q Q Q Q Q Q Q Q Q Q Q X.O.O.O.O.O.O.O.O.O.O.O.O.O.O.O.O.O.o.' U ' O.O.O.O. .] 4.4.4.4.4.4.4.4.4.4.4.4.4.4.4.",
"4.4.4.4.4.4.4.4.4.4.4.4.4.4.4.]  .o.O.X.~ Q Q Q Q Q Q Q Q Q ~ ~ ..O.O.O.O.O.O.O.O.O.O.O.O.O.O.O.O.O.} c < R X.O.O.O.X.] 4.4.4.4.4.4.4.4.4.4.4.4.4.4.4.",
"4.4.4.4.4.4.4.4.4.4.4.4.4.4.4.]  .O.O.O.] Q Q Q Q Q Q Q Q Q Q ~ o.O.O.O.O.O.O.O.O.O.O.O.O.O.O.O.X._ c $ : T X.O.O.O.X.] 4.4.4.4.4.4.4.4.4.4.| | 4.4.4.",
"4.4.4.4.4.4.4.4.4.4.4.4.4.4.4.] [ O.O.O.X.^ Q Q Q Q Q Q Q ~ ~ [ O.O.O.O.o.} { X.O.O.O.O.O.o..._ C 1 @ o , ) O.O.O.O.o.] ] 4.4.4.4.| | | 4.| | | 4.4.4.",
"4.4.4.4.4.4.4.4.4.| | 4.4.4.4.] [ O.O.O.O.X.] ~ Q Q Q Q Q ~ ] O.O.O.O.O.O.' P n I Y T Y P m r , $ + + + t { O.O.O.O.X.] ] 4.4.4.4.4.| | | | | | 4.4.4.",
"4.4.4.| | | | 4.| | | 4.4.4.4.[ ] o.O.O.O.O.O.X.[ ] ^ ]  .o.O.O.O.O.O.O.O...L = $ * = * $ @ O O O O o : U ..O.O.O.O. .[ 4.4.4.4.4.4.| | | | | 4.4.4.4.",
"4.4.4.4.| | | | | | | 4.4.4.4.4.] X.O.O.O.O.O.O.O.O.O.O.O.O.O.O.O.O.O.O.O.O.' x @ o o o O O O o O O ; m | O.O.O.O.O.| ] 4.4.4.4.4.4.| | | | | | | | | ",
"4.4.4.4.4.| | | | | | 4.4.4.4.4.]  .O.O.O.O.O.O.O.O.O.O.O.O.O.O.O.O.O.O.O.O.X._ v > $ + O O O @ = 2 P { O.O.O.O.O.o.[ [ 4.4.4.4.4.4.| | | | | | | | | ",
"| | | | 4.| | | | | | 4.4.4.4.4.] ] X.O.O.O.O.O.O.O.O.O.O.O.O.O.O.O.O.O.O.O.O.o.| E M x e e x n Y } X.O.O.O.O.O.O.[ [ 4.4.4.4.4.4.| | | | 4.4.4.4.4.4.",
"| | | | | | | | | | | 4.4.4.4.4.4.] [ X.O.O.O.O.O.O.O.O.O.O.O.O.O.O.O.O.O.O.O.O.O.O.O.X.| | X.o.O.O.O.O.O.O.O.O.| [ 4.4.4.4.4.| | | | 4.4.4.4.4.4.4.4.",
"4.4.| | | | | | | | | | | 4.4.4.4.4.]  .X.O.O.O.O.O.O.O.O.O.O.O.O.O.O.O.O.O.O.O.O.O.O.O.O.O.O.O.O.O.O.O.O.O.o.[ [ 4.4.4.4.4.| | | | 4.4.4.4.4.4.4.4.4.",
"4.4.4.4.4.4.4.4.4.4.| | | | 4.4.4.4.4.]  .X.O.O.O.O.O.O.O.O.O.O.O.O.O.O.O.O.O.O.O.O.O.O.O.O.O.O.O.O.O.O.O...[ [ 4.4.4.4.4.| | | 4.4.4.4.4.4.4.4.4.4.4.",
"4.4.4.4.4.4.4.4.4.4.4.| | | | | 4.4.4.4.] [ X.O.O.O.O.O.O.O.O.O.O.O.O.O.O.O.O.O.O.O.O.O.O.O.O.O.O.O.O.o.| ] G f 4.4.4.| | | | 4.4.4.4.4.4.4.4.4.4.4.4.",
"4.4.4.4.4.4.4.4.4.4.4.4.4.[ | | [ 4.4.4.4.B ( | X.o.O.O.O.O.O.O.O.O.O.O.O.O.O.O.O.O.O.O.O.O.O.O.o.X. .] W k 9 7 4.4.| | | | 4.4.4.4.4.4.4.4.4.4.4.4.4.",
"4.4.4.4.4.4.4.4.4.4.4.4.4.4.| | | | | 4.7 8 j W ]  .X.O.O.O.O.O.O.O.O.O.O.O.O.O.O.O.O.O.O.X.X.X. .( W N h f u 7 w ! | [ 4.4.4.4.4.4.4.4.4.4.4.4.4.4.4.",
"4.4.4.4.4.4.4.4.4.4.4.4.4.4.4.4.| | ( p 7 w d j N W (  . .X.X.X.O.O.O.O.O.O.O.O.O.O.o.X.X. .] ! J l h f g g f w 7 g ] 4.4.4.4.4.4.4.4.4.4.4.4.4.4.4.4.",
"4.4.4.4.4.4.4.4.4.4.4.4.4.4.4.4.4.4.h 7 0 s g g f h l H W ^ ] [ [ | .... .|  .| [ [ ] ( W J z j g g g g g g g d 9 7 4.4.4.4.4.4.4.4.4.4.4.4.4.4.4.4.4.",
"4.4.4.4.4.4.4.4.4.4.4.4.4.4.4.4.4.4.7 8 i g g g g g g g h j l N H J K K K K K J H N z j h g f g g g g g g g g g i 7 7 4.4.4.4.4.4.4.4.4.4.4.4.4.4.4.4.",
"4.4.4.4.4.4.4.4.4.4.4.4.4.4.4.4.4.7 7 w f g g g g g g g g f g f g f f g g h f g g f f f g g g g g g g g g g g g f w 7 7 4.4.4.4.4.4.4.4.4.4.4.4.4.4.4.",
"4.4.4.4.4.4.4.4.4.4.4.4.4.4.4.4.4.7 9 s g g g g g g g g g g g g g g g g g g g g g g g g g g g g g g g g f g g g h s 9 7 4.4.4.4.4.4.4.4.4.4.4.4.4.4.4.",
"4.4.4.4.4.4.4.4.4.4.4.4.4.4.4.4.7 7 w g g g g g g g g g g g g g g g g g g g g g g g g g g g g g g g g g g g g g g f w 7 8 4.4.4.4.4.4.4.4.4.4.4.4.4.4.",
"4.4.4.4.4.4.4.4.4.4.4.4.4.4.4.4.7 9 s g g g g g g g g g g g g g g g g g g g g g g g g g g g g g g g g g g g g g g g s 9 7 4.4.4.4.4.4.4.4.4.4.4.4.4.4.",
"4.4.4.4.4.4.4.4.4.4.4.4.4.4.4.8 7 u f g g g g g g g g g g g g g g g g g g g g g g f g g g g g g g g g g g g g g g g f w 7 7 4.4.4.4.4.4.4.4.4.4.4.4.4.",
"4.4.4.4.4.4.4.4.4.4.4.4.4.4.4.8 9 s g g g g g g g g g g g g g g g g g g g g g g g g g g g g g g g g g g f g g g g g g s 8 7 4.4.4.4.4.4.4.4.4.4.4.4.4.",
"4.4.4.4.4.4.4.4.4.4.4.4.4.4.8 8 u g g g g g g g g g g g g g g g g f g g g g g g g g g g g g g g g g g g g g g g g g g f q 7 4.4.4.4.4.4.4.4.4.4.4.4.4.",
"4.4.4.4.4.4.4.4.4.4.4.4.4.4.8 9 s g g g g g g g g g g g g g g g g g g g g g g g g g g g g g g g g g g g g g g g g g g g u 7 7 4.4.4.4.4.4.4.4.4.4.4.4.",
"4.4.4.4.4.4.4.4.4.4.4.4.4.7 7 w g g g g g g g g g g g g g g g g g g g g g g g g g g g g g g g g g g g g g g g g g g g g s 9 8 4.4.4.4.4.4.4.4.4.4.4.4.",
"4.4.4.4.4.4.4.4.4.4.4.4.4.7 7 i g g g g g g g g g g g g g g g g g g g g g g g g g g g g g g g g g g g g g g g g g g g g f w 7 4.4.4.4.4.4.4.4.4.4.4.4.",
"4.4.4.4.4.4.| | | [ 4.4.4.7 9 s g g g g g g g g g g g g g f g g g g g g g g g g g g g g g g g g g g g g g g g g g g g g g u 7 7 4.4.4.4.4.4.4.4.4.4.4.",
"4.4.4.4.4.| | 4.4.| | 4.7 7 0 f g g g g g g g g g g g g g g g g g g g g g g g g g g g g g g g g g g g g g g g g g g g g g s 7 7 4.4.4.4.4.4.4.4.4.4.4.",
"4.4.| 4.4.| | 4.4.| | 4.7 7 y g g g g g g g g g g g g g g g g g g g g g g g g g g g g g g g g g g g g g g g g g g g g g g d 9 7 4.4.4.4.4.4.4.4.4.4.4.",
"4.4.| | 4.4.| | | | ..4.8 7 i g g g g g g g g g g g g g g g g g g g g g g g g g g g f g g g g g g g g g g g g g g g g g g f w 7 4.4.4.4.4.4.4.4.4.4.4.",
"4.4.4.| | | | | | | ..z 7 8 s g g g g g g g g g g g g g g g g g g g g g g g g g g g g g g g g g g g g g g g g g g g g g g g y 7 7 4.4.4.4.4.4.4.4.4.4.",
"4.4.4.4.4.4.4.4.4.4.| s 7 0 d g g g g g g g g g g g g g g g g g g g g g g g g g g g g g g g g g g g g g g g g g g g g g g g a 7 7 4.4.4.4.4.4.4.4.4.4.",
"4.4.4.4.4.4.4.4.4.4.4.7 7 0 f g g g g g g g g g g g g g g g g g g g g f g g g g g g g g g g g g g g g g g g g g g g g g g g s 9 7 4.4.4.4.4.4.4.4.4.4.",
"4.4.4.4.4.4.4.4.4.4.4.7 7 w g g g g g g g g g g g g g g g g g g g g g g g g g g g g g g g g g g g g g g g g g g g g g g g g d 0 7 4.4.4.4.4.4.4.4.4.4.",
"4.4.4.4.4.4.4.4.4.4.4.7 7 y h g g g g g g g g g g g g f g g g g g g g g g g g g g g g g g g g g g g g g g h g g g g g g g g g 0 7 4.4.4.4.4.4.4.4.4.4.",
"4.4.4.4.4.4.4.4.4.4.4.8 7 w s s s s d d f f d f f f f f g f g f f f f f f f f f f f f f f f f f f f f s f s f f s s s s i i i 0 7 7 4.4.4.4.4.4.4.4.4.",
"4.4.4.4.4.4.4.4.4.4.4.8 7 8 8 8 8 9 9 9 9 0 0 9 0 0 0 0 0 0 0 0 0 0 0 q q 0 0 0 0 0 0 0 0 0 9 9 9 9 9 9 8 9 9 9 9 9 8 8 7 7 7 7 7 7 4.4.4.4.4.4.4.4.4.",
"4.4.4.4.4.4.4.4.4.4.4.4.4.4.4.4.4.4.4.4.4.4.d l s 7 7 7 7 7 7 7 7 7 7 7 7 7 7 7 7 7 7 7 7 7 7 4.4.4.s B N 4.4.4.4.4.4.4.4.4.4.4.4.4.4.4.4.4.4.4.4.4.4.",
"4.4.4.4.4.4.4.4.4.4.4.4.4.4.4.4.4.4.4.4.4.4.| | 4.4.4.4.4.4.4.4.4.4.4.4.4.4.4.4.4.4.4.4.4.4.4.4.4.4.4. .| 4.4.4.4.4.4.4.4.4.4.4.4.4.4.4.4.4.4.4.4.4.4.",
"4.4.4.4.4.4.4.4.4.4.4.4.4.4.4.4.4.4.4.4.4.|  .4.4.4.4.4.4.4.4.4.4.4.4.4.4.4.4.4.4.4.4.4.4.4.4.4.4.4.4.4.| | 4.4.4.4.4.4.4.4.4.4.. . 4.4.4.4.4.4.4.4.4.",
"4.4.4.4.4.4.4.4.4.4.4.4.4.4.4.4.4.4.4.4.$ < 3 4.4.4.4.4.4.4.4.4.4.4.4.4.4.4.4.4.4.4.4.4.4.4.4.4.4.4.4.4.4.| | 4.4.4.4.4.4.4.. . . . . 4.4.4.4.4.4.4.4.",
"4.4.4.4.4.4.4.4.4.4.4.4.4.4.4.4.4.4.4.4.      . . 4.4.4.4.4.4.4.4.4.4.4.4.4.4.4.4.4.4.4.4.4.4.4.4.4.4.4.4.| [ | 4.4.4.4.. . . . . . 4.4.4.4.4.4.4.4.4.",
"4.4.4.4.4.4.4.4.4.4.4.4.4.4.4.4.4.4.4.4.4.    . . . . . 4.4.4.4.4.4.4.4.4.4.4.4.4.4.4.4.4.4.4.4.4.4.4.4.4.4.| ..4.4.. . . . . . . 4.4.4.4.4.4.4.4.4.4.",
"4.4.4.4.4.4.4.4.4.4.4.4.4.4.4.4.4.4.4.4.4.4.4.. . . . . . . . 4.4.4.4.4.4.4.4.4.4.4.4.4.4.4.4.4.4.4.4.4.4.4.4.b & . . . . . 4.4.4.4.4.4.4.4.4.4.4.4.4.",
"4.4.4.4.4.4.4.4.4.4.4.4.4.4.4.4.4.4.4.4.4.4.4.4.4.4.. . . . . . 4.4.4.4.4.4.4.4.4.4.4.4.4.4.4.4.4.4.4.4.4.4.4.X . . . 4.4.4.4.4.4.4.4.4.4.4.4.4.4.4.4.",
"4.4.4.4.4.4.4.4.4.4.4.4.4.4.4.4.4.4.4.4.4.4.4.4.4.4.4.4.. . . . 4.4.4.4.4.4.4.4.4.4.4.4.4.4.4.4.4.4.4.4.4.4.4.4.4.4.4.4.4.4.4.4.4.4.4.4.4.4.4.4.4.4.4."
};
