/* XPM */
static char *f944253bf1d2432af079456c74379d6cEt9ZuBX3kofXC4cO[] = {
/* columns rows colors chars-per-pixel */
"75 75 219 2 ",
"   c None",
".  c #3C1807",
"X  c #550000",
"o  c #461B0E",
"O  c #531805",
"+  c #5B1F09",
"@  c #522707",
"#  c #4E300B",
"$  c #6D3E25",
"%  c #2D5E14",
"&  c #375A13",
"*  c #2D510D",
"=  c #356315",
"-  c #3D6513",
";  c #3E6C14",
":  c #3B6C1A",
">  c #376917",
",  c #3E731C",
"<  c #3D7716",
"1  c #31640B",
"2  c #246D24",
"3  c #4F4E10",
"4  c #446D16",
"5  c #456A1B",
"6  c #457415",
"7  c #467C16",
"8  c #497B17",
"9  c #42741D",
"0  c #4C7D19",
"q  c #487819",
"w  c #517A1A",
"e  c #6D4127",
"r  c #6F4329",
"t  c #70442B",
"y  c #467A22",
"u  c #487D22",
"i  c #427620",
"p  c #567725",
"a  c #727D27",
"s  c #737636",
"d  c #5F615C",
"f  c #63655F",
"g  c #71726D",
"h  c #8C7230",
"j  c #A46B2D",
"k  c #C36F38",
"l  c #C26E37",
"z  c #C6763E",
"x  c #C7783F",
"c  c #967B4B",
"v  c #A77E55",
"b  c #CA7D44",
"n  c #428005",
"m  c #448514",
"M  c #488016",
"N  c #468915",
"B  c #4A8C16",
"V  c #4E8219",
"C  c #4F8B19",
"Z  c #528519",
"A  c #548B1B",
"S  c #5A8D1D",
"D  c #4D9217",
"F  c #4E9018",
"G  c #55941B",
"H  c #5C921E",
"J  c #549C19",
"K  c #5C9B1D",
"L  c #66861E",
"P  c #60961E",
"I  c #5AA41B",
"U  c #55AA00",
"Y  c #488221",
"T  c #598B23",
"R  c #5B9423",
"E  c #548338",
"W  c #668825",
"Q  c #798A28",
"!  c #649621",
"~  c #6B9D25",
"^  c #699628",
"/  c #799428",
"(  c #798737",
")  c #6B9934",
"_  c #6EA225",
"`  c #6CAB23",
"'  c #64A620",
"]  c #72A427",
"[  c #75A628",
"{  c #78A629",
"}  c #79B927",
"|  c #78B827",
" . c green",
".. c #7FC12A",
"X. c #749A55",
"o. c #6EA243",
"O. c #80BF00",
"+. c #82932C",
"@. c #89873A",
"#. c #978B36",
"$. c #829637",
"%. c #929635",
"&. c #8B872C",
"*. c #AB883B",
"=. c #AA983D",
"-. c #80BD36",
";. c #93A432",
":. c #B2A63B",
">. c #D98B31",
",. c #80C22A",
"<. c yellow",
"1. c #988847",
"2. c #929249",
"3. c #A79448",
"4. c #B69B49",
"5. c #AD8152",
"6. c #AC8D53",
"7. c #B08254",
"8. c #B68B5D",
"9. c #B28658",
"0. c #B79859",
"q. c #AF9149",
"w. c #96AA46",
"e. c #B9A555",
"r. c #B3A848",
"t. c #B78E60",
"y. c #B88F61",
"u. c #B99062",
"i. c #B69B67",
"p. c #8AB962",
"a. c #CE864B",
"s. c #C58745",
"d. c #DD8F4B",
"f. c #D78943",
"g. c #D99644",
"h. c #CB9056",
"j. c #CE955B",
"k. c #CE985E",
"l. c #C29456",
"z. c #D2905C",
"x. c #E4994E",
"c. c #E39946",
"v. c #F29E4C",
"b. c #D8A44D",
"n. c #CDAC51",
"m. c #F3A04F",
"M. c #E5A751",
"N. c #E6AA54",
"B. c #E7AE58",
"V. c #EAAD5B",
"C. c #F3A453",
"Z. c #F4AD5E",
"A. c #F7A857",
"S. c #E9B35D",
"D. c #EEAE4B",
"F. c #C29D6F",
"G. c #C79D63",
"H. c #D19B61",
"J. c #C39E70",
"K. c #D5A369",
"L. c #D4A167",
"P. c #D1A96E",
"I. c #EAB662",
"U. c #EBBB65",
"Y. c #E8B666",
"T. c #F4B162",
"R. c #F5B669",
"E. c #F5BA6D",
"W. c #FEB468",
"Q. c #F5BE73",
"!. c #F0B473",
"~. c #AFE456",
"^. c #E9C373",
"/. c #F6C175",
"(. c #F6C57D",
"). c #FFCA77",
"_. c #FFCC70",
"`. c #97968F",
"'. c #9AB887",
"]. c #9CB090",
"[. c #A0A19C",
"{. c #BCBDB9",
"}. c #B8BBB4",
"|. c #B1ADA4",
" X c #A39584",
".X c #D9BB86",
"XX c #CEB389",
"oX c #DFBD9E",
"OX c #AFC6A4",
"+X c #F7CB84",
"@X c #F7CD86",
"#X c #F7CC84",
"$X c #F7CC85",
"%X c #F8CF85",
"&X c #F8CF89",
"*X c #F5C787",
"=X c #FDD286",
"-X c #F8D38E",
";X c #F9D38D",
":X c #FFDF80",
">X c #F8D490",
",X c #F6D29A",
"<X c #F4C59B",
"1X c #F5D4A7",
"2X c #E1C1AE",
"3X c #D8DAD9",
"4X c #CED5C6",
"5X c #EBDBCC",
"6X c #EDE1D9",
"7X c #DFE5E2",
"8X c #E4E6E5",
"9X c #ECEDED",
"0X c #EAE9E2",
"qX c #EFF1F2",
"wX c #F3F4F4",
"eX c #F9F9FA",
"rX c #F7F8F8",
"tX c #F1F0EF",
"yX c #D9E1DB",
/* pixels */
"                                                                                                                                                      ",
"                                                                                                                                                      ",
"                                .X                    ;XR.                    ^.<.                  #X^.                    %X/.                      ",
"                            .X.XK.K.a.              &Xm.T.v.                ^.M.M.I.              @XP.7.J.                %X(.%XT.                    ",
"                          .X.XH.K.K.h.j.          &XZ.v.T.v.m.          A.^.S.M.M.U.N.          %XJ.7.7.F.7.            %X#X(.#XT.>X                  ",
"                        .XP.H.L.K.K.h.h.H.      %XA.Z.m.Z.v.m.Z.      :X^.D.S.N.M.U.M.M.      =Xu.J.7.7.F.7.9.j       %X/.#X(.$XT.;XQ.                ",
"                        o H.k.H.K.K.h.h.k.    O x.C.A.v.T.v.m.T.m.    . M.M.S.S.M.U.M.M.    X t u.J.9.7.F.7.8.v     O E./.#X/.#XT.;XQ.                ",
"                        o H.H.K.K.K.h.h.k.    O x.A.Z.m.Z.v.m.T.v.    . M.M.S.S.M.U.M.M.    X t u.J.7.7.J.7.8.7.    O E./.&X(.#XR.;XQ.                ",
"                        o H.k.L.K.K.h.h.H.    O x.C.Z.v.Z.m.m.Z.m.    . M.M.S.U.M.U.M.M.    X t 8.J.7.7.J.7.9.7.    O E./.&X/.#XR.>XQ.                ",
"                        o H.k.K.K.K.h.h.k.    O x.C.Z.m.Z.m.m.T.v.    . M.M.N.U.M.U.M.M.    X t G.J.7.7.J.7.8.7.    O E./.&X(.#XT.;XQ.                ",
"                        o H.H.K.K.K.h.h.k.    O x.C.Z.m.Z.m.m.T.m.    . M.M.V.U.M.U.M.M.    X t y.J.7.7.J.7.8.7.    O E.Q.&X(.$XR.;XQ.                ",
"                        o k.H.K.K.K.h.k.k.    O x.C.Z.m.Z.m.m.Z.v.    . M.M.N.U.M.U.M.M.    X t y.J.v 7.F.7.9.7.    O E./.&X/.$XR.;XQ.                ",
"                        o k.H.K.K.K.h.h.H.    O x.C.T.m.T.m.m.T.m.    . M.M.N.U.M.U.M.M.    X t y.J.v 7.F.7.9.7.    O E./.#X(.$XR.>XQ.                ",
"                        o H.H.K.K.K.h.h.H.    O x.C.Z.v.Z.m.m.Z.v.    . M.M.N.U.M.U.M.M.    X t y.J.7.7.F.7.8.7.    O E./.&X/.$XR.>XE.                ",
"                        o H.H.K.K.K.h.h.H.    O x.C.Z.v.Z.m.m.Z.m.    . M.M.M.U.M.U.M.M.    X t y.J.7.7.F.7.8.7.    O E.Q.&X(.#XR.>XQ.                ",
"                        o H.K.K.K.K.h.h.k.    O x.C.Z.v.Z.C.m.T.v.    . M.M.M.U.M.U.M.M.    X t y.J.7.7.J.5.8.7.    O E./.#X(.$XR.;XE.                ",
"                        o H.K.K.K.K.h.h.k.    O x.C.T.v.T.m.m.T.m.    . M.M.N.U.M.U.M.M.    X r y.J.v 9.J.9.8.v     O E./.%X(.+XE.>XE.                ",
"                        o H.K.K.K.K.h.j.k.    O x.C.Z.v.Z.C.m.Z.m.    . M.M.M.U.M.Y.M.M.    X t l.J.9.v J.b 8.v     O E./.%X(.+XR.>XE.                ",
"                        o k.K.K.K.K.h.h.k.    O x.C.Z.v.T.C.v.T.m.    . M.M.M.U.M.U.N.M.    X r u.J.v 9.J.v l.7.    O Q.Q.@X(.+XE.;XE.                ",
"                        o H.K.K.K.K.h.h.k.    O x.C.Z.v.Z.C.v.T.v.    . M.M.M.U.M.U.N.N.    X t u.J.9.b J.v 8.7.    O W.Q.@X(.+XE.>XE.                ",
"                        o H.K.K.K.K.h.j.k.    O x.C.Z.v.Z.C.m.Z.m.    . M.M.N.U.M.U.M.M.    X t u.J.7.7.J.7.8.v     O E.Q.&X(.@XE.>XE.                ",
"                        o H.K.K.K.K.h.h.k.    O x.A.Z.m.Z.C.m.Z.v.    . M.M.N.U.M.U.M.M.    X r y.J.v 9.J.7.8.7.    O E./.%X(.+XQ.>XR.                ",
"            a.a.a.a.a.a.o H.H.K.K.K.h.h.k.a.a.+ x.C.Z.v.Z.C.m.Z.x.a.a.. M.M.N.U.M.I.M.M.a.a.a.t u.J.7.v F.v 8.7.a.a.O E.Q.@X(.+XE.>XE.b b b b b       ",
"            a.a.a.a.a.a.o H.H.K.K.K.h.z.k.a.a.+ x.C.Z.v.Z.C.m.C.d.a.a.. M.M.N.U.M.I.M.M.a.a.a.t u.J.7.7.F.7.8.7.a.a.O E.Q.@X(.+XQ.>XR.a.a.a.a.a.      ",
"            a.a.a.a.a.a.o H.H.[.{.K.h.j.j.a.a.+ x.C.Z.{.{.A.C.C.d.a.a.. M.M.N.{.{.V.M.M.a.a.a.t G.J.v {.XXv t.s.a.a.O E.Q.%XG.{.Q.>X!.a.a.a.a.a.      ",
"            a.b a.b b b o H.H.d |.K.h.h.k.b b + x.C.Z.d [.C.m.C.f.b b . M.M.N.g  XM.M.M.b b b $ t.J.v `.F.v t.v b b O E./.%XP.[.E.>XT.s.b b b b       ",
"            a.z z x x x o k.k.K.K.K.h.h.k.z z + x.C.Z.v.Z.C.v.v.f.z z . M.M.N.U.M.M.M.M.b b b $ y.F.9.v F.v 8.v b b O E.Q.+X*X+XT.>XT.b b z z z       ",
"            a.k k k k k o H.H.K.K.K.h.j.k.k k + x.C.T.v.Z.C.m.v.f.l k o M.M.V.U.M.M.M.M.l l l $ y.F.b v J.v l.7.x x O E.Q.+X(.+XT.>XR.b b z b z       ",
"            + O O O O O o H.H.K.K.K.h.h.k.O O O x.C.Z.v.Z.C.v.v.j O O . M.M.V.U.M.M.M.M.O O O t u.J.v v J.7.8.v O O O E.Q.&X(.+XT.-XT.O O O O O       ",
"                        o H.H.K.K.K.h.h.k.    O x.C.T.v.Z.A.v.v.v.    . M.M.V.U.M.N.M.M.    X t y.J.v 9.J.v 8.7.    O E.Q.&X(.+XT.>XT.                ",
"                        o H.H.K.K.K.h.j.k.    O x.C.Z.v.Z.Z.v.v.v.    . M.M.S.U.M.N.N.N.    X t h.J.h.v F.7.8.7.    O E.Q.&X(.+XT.;XT.                ",
"                        o H.k.K.K.K.h.h.k.    O x.C.Z.v.Z.A.m.v.v.    . M.M.S.U.M.N.M.N.    X $ y.J.9.v F.7.y.7.    O E.Q.+X(.+XT.>XR.                ",
"                        o H.H.K.K.K.h.j.k.    O d.C.Z.v.A.Z.v.v.v.    . M.M.S.U.M.N.M.M.    X r y.J.9.7.F.5.8.7.    O E./.&X(.$XT.-XT.                ",
"                        o H.H.K.K.K.h.h.k.    O x.C.Z.v.Z.Z.v.v.v.    . M.M.S.U.M.S.M.M.    X r y.J.9.7.F.7.8.7.    O E.Q.%X(.$XT.-XT.                ",
"                        o H.H.K.K.K.h.h.k.    O x.C.Z.v.A.Z.v.v.v.    . M.M.S.U.M.S.M.M.    X r y.J.7.7.F.7.8.7.    O E.Q.#X(.$XT.>XT.                ",
"                        o H.H.K.K.K.h.h.k.    O x.C.Z.v.Z.Z.v.v.m.    . M.M.S.U.M.U.M.M.    X t y.F.7.7.J.7.8.7.    O E.Q.$X(.+XT.-XT.                ",
"                        o H.K.K.K.K.h.h.k.    O x.C.Z.m.Z.Z.v.v.m.    . M.M.I.U.M.U.M.M.    X r y.J.7.7.F.7.8.7.    O E./.#X(.$XT.-XZ.                ",
"                        o H.K.K.K.K.h.h.H.    O x.C.Z.v.Z.Z.m.v.m.    . M.M.S.U.M.U.M.M.    X r y.F.5.7.F.7.8.7.    O E.Q.&X(.$XT.-XT.                ",
"                        o H.K.K.K.K.h.j.H.    O x.m.Z.v.Z.Z.v.v.m.    . M.M.I.U.M.U.M.M.    X r y.J.7.7.F.7.8.7.    O E.Q.#X(.$XZ.;XT.                ",
"                        o H.K.K.K.K.h.h.H.    O x.C.T.v.Z.Z.v.v.m.    . M.M.S.U.M.U.M.M.    X r y.J.9.7.F.7.8.7.    O E./.#X(.$XT.;XZ.                ",
"                        o H.K.K.K.K.h.h.H.    O x.C.Z.v.Z.Z.m.v.m.    . M.M.I.U.M.U.M.M.    X r y.J.7.7.F.7.8.7.    O E.Q.#X(.#XT.;XZ.                ",
"                        o H.K.K.K.K.h.h.k.    O x.C.Z.v.Z.Z.v.v.m.    . M.M.S.U.M.U.M.M.    X r y.J.7.7.F.7.t.7.    O E./.#X(.#XZ.;XT.                ",
"                        o H.K.K.K.K.h.j.k.    O x.C.Z.v.Z.Z.m.v.v.    . M.M.S.U.M.U.M.M.    X r y.J.7.7.F.7.y.7.    O E.Q.$X(.#XT.;XT.                ",
"                        o H.K.K.K.K.h.j.k.    O x.C.Z.v.Z.Z.m.v.m.    . N.M.S.U.M.U.M.M.    X r y.J.7.7.F.7.8.7.    O E.Q.$X+X$XT.;XZ.                ",
"                        o H.K.K.K.K.h.j.k.    O x.C.Z.v.Z.Z.v.v.v.    . M.M.S.U.M.U.M.M.    X r y.J.9.7.F.5.y.7.    O E.Q.&X(.$XT.;XT.                ",
"                        o H.K.K.K.K.h.h.j.    O x.C.Z.v.Z.Z.v.v.m.    . N.M.S.U.M.U.M.M.    X e t.J.9.7.F.7.8.7.    O E.Q.#X(.$XT.&XT.                ",
"                        o H.K.K.K.K.h.j.k.    O x.C.Z.v.Z.Z.v.v.v.    . N.S.B.U.M.U.M.M.    X r y.J.9.7.F.7.t.7.    O E.Q.&X(.$XR.&XT.                ",
"                        o H.K.K.K.K.h.z.k.    O x.C.Z.v.T.Z.v.v.m.    o V.S.N.U.M.U.M.M.    X r y.J.7.7.J.7.8.7.    O E.Q.#X(.$XR.&XT.                ",
"                        o H.K.K.K.K.h.j.j.    O x.C.Z.v.Z.Z.m.v.m.    . V.S.N.N.M.U.M.M.    X $ y.J.9.5.F.7.8.7.    O E.Q.%X(.@XR.$XT.                ",
"                        o H.K.K.K.K.h.j.k.    O x.C.Z.v.Z.Z.m.v.m.    . S.I.M.I.M.U.M.M.    X $ y.J.9.7.F.7.y.7.    O E.Q.%X(.@XQ.&XT.                ",
"                        o H.K.K.K.K.h.j.k.    O x.C.Z.v.Z.Z.v.v.m.    . V.S.M.U.M.U.M.M.    X e y.J.9.7.F.7.y.7.    O E.Q.@X(.@XQ.$XT.                ",
"                        o H.K.K.K.K.h.j.k.    O x.C.Z.v.Z.Z.v.x.v.    . S.S.M.U.M.U.M.M.    X r y.J.7.7.J.7.8.7.    O E.Q.@X(.@XE.&XT.                ",
"                        o H.K.K.K.K.h.j.H.    O x.C.Z.v.Z.A.v.v.m.    o S.M.M.U.M.U.M.M.    X $ y.J.9.7.F.7.y.7.    O E.Q.@X(.@XE.$XT.                ",
"                        o H.K.K.K.K.h.j.k.    O x.C.Z.v.Z.Z.v.v.v.    . S.M.M.U.U.U.M.M.    X $ y.J.7.7.F.7.8.7.    O E.Q.@X(.@XT.@XT.                ",
"                        o H.K.K.P.K.h.h.k.    O x.C.Z.v.Z.A.m.v.v.    . I.N.M.U.U.U.M.M.    X $ y.J.9.7.F.7.8.7.    O E.Q.@X(.@XT.@XT.                ",
"                        o H.K.K.3.L.h.j.k.    + x.m.Z.v.Z.A.m.v.v.    . r.S.M.U.I.U.M.M.    X $ y.J.9.7.F.7.y.7.    O E.Q.@X(.+XT.%XT.                ",
"            d.a.a.a.a.a.o H.K.K.K.T h.j.j.a.a.@ x.m.Z.v.T.C.v.v./ a.a.. M.S.B.M.U.U.D.M.a.a.s.$ h.J.9.7.J.v y.v a.a.+ E.Q.#X+X+XT.%XT.a.a.a.a.a.      ",
"            a.a.a.a.a.a.@ H.K.( K.m 1.j.k.%.a.R x.m.Z.v.T.C.v.c.d.a.a.m M.U.U.N.S.^.M.M.a.a.a.$ y.J.9.7.J.9.y.9.a.a.# I.Q.#X(.+XT.(.T.a.a.a.a.a.      ",
"            a.*.a.a.a.a.o H.K.e.K.I h.V k.Q 2XX.x.C.T.m.Z.C.v.g.d.a.a.6 M.U.U.S.U.U.M.b.G a.a.$ 1.i.9.7.J.7.u.v a.a.+ C Q.&X(.$XT.(.T.a.q.a.a.a.      ",
"            a.Z *.a.a.a.o { G. X{.I h.j.@.wXwX3XrXC.A.{.{.C.S v.s.a./ . M.S.U.{..XS.M.%.D z z $ F J.9.{.J.v u.9.a.h O ) Q.#X(.{.T.(.R.a.f.a.b b       ",
"            a.z p z k k o ( T f {.I h.G.wX6X%X0X9X9XZ.`.{.m.m.g.&.k N . M.M.U.{.{.U.M.M.w h l $ F J.v }.XX9.u.5.z j O e.Q.,X9X3X!.1XQ.h l l k k       ",
"            a.x L A z z o H.w.H.K.J h.6XrX*X>.).9X<XZ.v.T.H m.v.Q x D . M.M.U.U.U.U.M.M.D - b $ B J.5.1.J.5.u.5.a.#.O U.rXqXqX9X8X1X1XJ a.a.#.a.      ",
"    1       a.a.a.J a.a.o H.0 K.K.m a.oX0XtXW.wX3XA.Z.v.4.C.v.+.M *.` . n.M.U.Y.U.U.M.b.N 4 a.$ ' F.5.m F.7.u.5.&.a O *X'.eXeXtXwXwXrX{ a.a.a.Q       ",
"      V   n O O @ m A 7 o 1.W e.H.K h.l.rX9XwXrXwXm.Z.s.V m.c.v.Z M L . M.b.U.U.+.^.%.M.@ : O $ | X.9.N F.7.u.5.V O @ E.eXwX).D.=XtX8X3 O O I O   m   ",
"      V M V %   =  .` [ 7 0 K.R G.| h.3.H.9XT ].x.C.Z.x.h C.:.g.0 >   . M.M.S.^.S.n.c.M.% i X 3 ,.H 9.K F.@.u.^ J   O 5X9X0X&XD.=XwXwXT   m ~.  N     ",
"        ! M K G     B G J Z V M 0...h.~ k.7 % 7 x.C.Z.8 T.M v.%.q m   8 +.M.U.N.^.I M.M.> y X 6 ,.^ 7.J F.7.y.v G D O e.4XwX5XW.4XeXwXwXn | J J       ",
"          [ M , J : m 0 3 0 ~ M [ } h.4.k.> , 8 x.C.+.; m c.v.+.q `   8 %.M.^.c.S.b.9XeXwXE } B ,.w.8.Z J.( W s Z N @ V 3XeXeX3XrX9Xp.  B B J         ",
"      J   , -.S < <   ..V 7 K._ V | h.w.k.V > M } A.Z.Z H g.v./ q } 9 A =.M./ P < B.p.eXwXqXwXJ ` i.9.| 2.@.y.5 G   Z [ 4XOXwXyX3X5X-.m } N ..    m   ",
"        O.2 m M [ 0 % B - 7 K.6.! ] ( 7 j.6 = # ` D.V.M G T v.! 6 A u ] +.N.S.r.J wXqXW.).9X8X4XV i.7 ..p 9.i., F   7 n.J D q.5 G w ,.J   |   m       ",
"        ) R = ] M [ q N H V 6., M M q R l.6 > & J s.#.! V.y m.N 6 M > [ Z ;.S.%.a qXwX=X_.W.wXrX7 ( ~ ..6 h y.y A   V E.N J P.Y :.5 ~.Z J U m  .    ~ ",
"          0 u 7 m Z > G S 8 Y 1.u V 7 M A 6 y u T W M _ M y T m 4 P M [ q ! N.n.u 4X8X8X6XwX3X-.M u s } 4 p y.y 7 ..0 !.F B !.Y S.F N ,...B ..  M     ",
"            , i _ M ] & ,.R u 0.u M [ M j.q H ^ 6 6 M i ;.9 ! F ; q M { W =.M.- y p X.8XwX9X4X| M M c | 5 p 5 y 4 ' _ w.N , #.u q.^ 9 N K ..  V     S ",
"              G M _ M , 8 4 S H.y M [ P 3.~   V 6 0 [ y T.6 _ ^ - q M _ a U.M.* y V w.o.9X7XN } 7 A c B 2.5 4 y 5 M [ H ; q q u & T ` D ,.  M   G     ",
"              i 7 [ M [ 7 k.9 M 1.M ~ K H !   M q 0 +.7 Z.q ;.&.4 Z M ~ =.I.M.- u H n.B m , B | 7 _ 5.m 4 V 6 y & 8 S n.q Y = y ; M ..G   M ] M       ",
"              i ; 7 , V w q 4 - K.@.M R ~ V 5 4 u q V.7 A.4 :.*.- R V R M.N.M.6 U.C n.N   ; } | 7 T 9.m 6 c $.s m M M E.m Y - 9 ; - ` .. .! N ]       "
};
